SeanSans-CondensedBlack.ufo
<glyph name="exclam" format="1">
  <advance width="254"/>
  <unicode hex="0021"/>
  <outline>
    <contour>
      <point x="198" y="229" type="line"/>
      <point x="208" y="722" type="line"/>
      <point x="47" y="722" type="line"/>
      <point x="57" y="229" type="line"/>
    </contour>
    <contour>
      <point x="200" y="61" type="curve"/>
      <point x="200" y="108"/>
      <point x="168" y="132"/>
      <point x="126" y="132" type="curve"/>
      <point x="83" y="132"/>
      <point x="54" y="106"/>
      <point x="54" y="61" type="curve"/>
      <point x="200" y="61"/>
      <point x="54" y="61"/>
      <point x="200" y="61" type="curve"/>
      <point x="200" y="13"/>
      <point x="169" y="-9"/>
      <point x="126" y="-9" type="curve"/>
      <point x="82" y="-9"/>
      <point x="54" y="15"/>
      <point x="54" y="61" type="curve"/>
      <point x="200" y="61"/>
      <point x="54" y="61"/>
    </contour>
  </outline>
</glyph>
<glyph name="quotedbl" format="1">
  <advance width="404"/>
  <unicode hex="0022"/>
  <outline>
    <contour>
      <point x="170" y="628" type="line"/>
      <point x="180" y="845" type="line"/>
      <point x="39" y="845" type="line"/>
      <point x="49" y="628" type="line"/>
    </contour>
    <contour>
      <point x="356" y="628" type="line"/>
      <point x="365" y="845" type="line"/>
      <point x="225" y="845" type="line"/>
      <point x="235" y="628" type="line"/>
    </contour>
  </outline>
</glyph>
<glyph name="numbersign" format="1">
  <advance width="563"/>
  <unicode hex="0023"/>
  <outline>
    <contour>
      <point x="33" y="218" type="curve"/>
      <point x="456" y="218" type="curve"/>
      <point x="483" y="327" type="curve"/>
      <point x="61" y="327" type="curve"/>
    </contour>
    <contour>
      <point x="81" y="430" type="curve"/>
      <point x="506" y="430" type="curve"/>
      <point x="533" y="539" type="curve"/>
      <point x="107" y="539" type="curve"/>
    </contour>
    <contour>
      <point x="376" y="39" type="curve"/>
      <point x="538" y="722" type="curve"/>
      <point x="397" y="722" type="curve"/>
      <point x="235" y="39" type="curve"/>
    </contour>
    <contour>
      <point x="164" y="46" type="curve"/>
      <point x="325" y="722" type="curve"/>
      <point x="185" y="722" type="curve"/>
      <point x="29" y="46" type="curve"/>
    </contour>
  </outline>
</glyph>
<glyph name="dollar" format="1">
  <advance width="479"/>
  <unicode hex="0024"/>
  <outline>
    <contour>
      <point x="292" y="-42" type="curve"/>
      <point x="292" y="-12"/>
      <point x="292" y="66"/>
      <point x="292" y="96" type="curve"/>
      <point x="152" y="96"/>
      <point x="292" y="96"/>
      <point x="152" y="96" type="curve"/>
      <point x="152" y="66"/>
      <point x="152" y="-12"/>
      <point x="152" y="-42" type="curve"/>
      <point x="292" y="-42"/>
      <point x="152" y="-42"/>
    </contour>
    <contour>
      <point x="301" y="633" type="curve"/>
      <point x="301" y="663"/>
      <point x="301" y="743"/>
      <point x="301" y="773" type="curve"/>
      <point x="161" y="773"/>
      <point x="301" y="773"/>
      <point x="161" y="773" type="curve"/>
      <point x="161" y="743"/>
      <point x="161" y="663"/>
      <point x="161" y="633" type="curve"/>
      <point x="301" y="633"/>
      <point x="161" y="633"/>
    </contour>
    <contour>
      <point x="41" y="91" type="curve"/>
      <point x="89" y="63"/>
      <point x="148" y="42"/>
      <point x="216" y="42" type="curve"/>
      <point x="351" y="42"/>
      <point x="453" y="109"/>
      <point x="453" y="221" type="curve"/>
      <point x="453" y="316"/>
      <point x="371" y="373"/>
      <point x="274" y="422" type="curve"/>
      <point x="219" y="450"/>
      <point x="172" y="469"/>
      <point x="172" y="520" type="curve"/>
      <point x="172" y="553"/>
      <point x="195" y="580"/>
      <point x="231" y="580" type="curve"/>
      <point x="275" y="580"/>
      <point x="304" y="566"/>
      <point x="340" y="543" type="curve"/>
      <point x="410" y="636"/>
      <point x="340" y="543"/>
      <point x="410" y="636" type="curve"/>
      <point x="354" y="670"/>
      <point x="306" y="688"/>
      <point x="237" y="688" type="curve"/>
      <point x="117" y="688"/>
      <point x="32" y="623"/>
      <point x="32" y="520" type="curve"/>
      <point x="32" y="426"/>
      <point x="96" y="371"/>
      <point x="191" y="324" type="curve"/>
      <point x="250" y="296"/>
      <point x="312" y="273"/>
      <point x="312" y="216" type="curve"/>
      <point x="312" y="175"/>
      <point x="276" y="150"/>
      <point x="228" y="150" type="curve"/>
      <point x="184" y="150"/>
      <point x="148" y="171"/>
      <point x="118" y="189" type="curve"/>
      <point x="41" y="91"/>
      <point x="118" y="189"/>
    </contour>
  </outline>
</glyph>
<glyph name="percent" format="1">
  <advance width="1002"/>
  <unicode hex="0025"/>
  <outline>
    <contour>
      <point x="409" y="-36" type="line"/>
      <point x="729" y="708" type="line"/>
      <point x="601" y="708" type="line"/>
      <point x="281" y="-36" type="line"/>
    </contour>
    <contour>
      <point x="142" y="494" type="curve"/>
      <point x="142" y="559"/>
      <point x="156" y="613"/>
      <point x="213" y="613" type="curve"/>
      <point x="271" y="614"/>
      <point x="286" y="559"/>
      <point x="286" y="492" type="curve"/>
      <point x="286" y="427"/>
      <point x="277" y="370"/>
      <point x="220" y="370" type="curve"/>
      <point x="159" y="370"/>
      <point x="142" y="426"/>
      <point x="142" y="494" type="curve"/>
      <point x="99" y="494"/>
      <point x="69" y="494"/>
      <point x="25" y="494" type="curve"/>
      <point x="25" y="364"/>
      <point x="91" y="273"/>
      <point x="214" y="273" type="curve"/>
      <point x="341" y="273"/>
      <point x="409" y="365"/>
      <point x="409" y="497" type="curve"/>
      <point x="409" y="625"/>
      <point x="341" y="711"/>
      <point x="219" y="710" type="curve"/>
      <point x="94" y="710"/>
      <point x="25" y="623"/>
      <point x="25" y="494" type="curve"/>
      <point x="69" y="494"/>
      <point x="99" y="494"/>
    </contour>
    <contour>
      <point x="710" y="185" type="curve"/>
      <point x="710" y="250"/>
      <point x="724" y="304"/>
      <point x="781" y="304" type="curve"/>
      <point x="838" y="305"/>
      <point x="853" y="250"/>
      <point x="853" y="184" type="curve"/>
      <point x="853" y="118"/>
      <point x="844" y="61"/>
      <point x="788" y="61" type="curve"/>
      <point x="727" y="61"/>
      <point x="710" y="117"/>
      <point x="710" y="185" type="curve"/>
      <point x="667" y="185"/>
      <point x="636" y="185"/>
      <point x="593" y="185" type="curve"/>
      <point x="593" y="55"/>
      <point x="658" y="-36"/>
      <point x="782" y="-36" type="curve"/>
      <point x="908" y="-36"/>
      <point x="976" y="56"/>
      <point x="976" y="188" type="curve"/>
      <point x="976" y="316"/>
      <point x="909" y="402"/>
      <point x="787" y="401" type="curve"/>
      <point x="662" y="401"/>
      <point x="593" y="314"/>
      <point x="593" y="185" type="curve"/>
      <point x="636" y="185"/>
      <point x="667" y="185"/>
    </contour>
  </outline>
</glyph>
<glyph name="ampersand" format="1">
  <advance width="606"/>
  <unicode hex="0026"/>
  <outline>
    <contour>
      <point x="573" y="44" type="line"/>
      <point x="497" y="142"/>
      <point x="406" y="275"/>
      <point x="324" y="377" type="curve"/>
      <point x="282" y="432"/>
      <point x="223" y="479"/>
      <point x="223" y="550" type="curve"/>
      <point x="223" y="583"/>
      <point x="228" y="619"/>
      <point x="257" y="619" type="curve"/>
      <point x="288" y="619"/>
      <point x="294" y="587"/>
      <point x="294" y="552" type="curve"/>
      <point x="294" y="492"/>
      <point x="262" y="453"/>
      <point x="212" y="419" type="curve"/>
      <point x="122" y="358"/>
      <point x="42" y="306"/>
      <point x="42" y="201" type="curve"/>
      <point x="42" y="77"/>
      <point x="127" y="-5"/>
      <point x="251" y="-5" type="curve"/>
      <point x="425" y="-5"/>
      <point x="509" y="135"/>
      <point x="555" y="312" type="curve"/>
      <point x="434" y="340"/>
      <point x="555" y="312"/>
      <point x="434" y="340" type="curve"/>
      <point x="402" y="219"/>
      <point x="374" y="104"/>
      <point x="258" y="104" type="curve"/>
      <point x="208" y="104"/>
      <point x="182" y="146"/>
      <point x="182" y="201" type="curve"/>
      <point x="182" y="261"/>
      <point x="219" y="297"/>
      <point x="270" y="333" type="curve"/>
      <point x="357" y="393"/>
      <point x="434" y="447"/>
      <point x="435" y="552" type="curve"/>
      <point x="435" y="657"/>
      <point x="366" y="727"/>
      <point x="262" y="727" type="curve"/>
      <point x="159" y="727"/>
      <point x="93" y="655"/>
      <point x="93" y="550" type="curve"/>
      <point x="93" y="451"/>
      <point x="162" y="388"/>
      <point x="224" y="312" type="curve"/>
      <point x="300" y="214"/>
      <point x="401" y="71"/>
      <point x="471" y="-21" type="curve"/>
    </contour>
  </outline>
</glyph>
<glyph name="quotesingle" format="1">
  <advance width="218"/>
  <unicode hex="0027"/>
  <outline>
    <contour>
      <point x="170" y="628" type="line"/>
      <point x="180" y="845" type="line"/>
      <point x="39" y="845" type="line"/>
      <point x="49" y="628" type="line"/>
    </contour>
  </outline>
</glyph>
<glyph name="parenleft" format="1">
  <advance width="328"/>
  <unicode hex="0028"/>
  <outline>
    <contour>
      <point x="326" y="-205" type="curve"/>
      <point x="199" y="-37"/>
      <point x="168" y="116"/>
      <point x="168" y="326" type="curve"/>
      <point x="168" y="537"/>
      <point x="200" y="690"/>
      <point x="325" y="861" type="curve"/>
      <point x="242" y="930"/>
      <point x="325" y="861"/>
      <point x="242" y="930" type="curve"/>
      <point x="94" y="737"/>
      <point x="31" y="571"/>
      <point x="31" y="326" type="curve"/>
      <point x="31" y="80"/>
      <point x="95" y="-86"/>
      <point x="242" y="-281" type="curve"/>
      <point x="326" y="-205"/>
      <point x="242" y="-281"/>
    </contour>
  </outline>
</glyph>
<glyph name="parenright" format="1">
  <advance width="336"/>
  <unicode hex="0029"/>
  <outline>
    <contour>
      <point x="82" y="-294" type="curve"/>
      <point x="231" y="-92"/>
      <point x="304" y="76"/>
      <point x="304" y="329" type="curve"/>
      <point x="304" y="576"/>
      <point x="238" y="741"/>
      <point x="85" y="933" type="curve"/>
      <point x="2" y="857"/>
      <point x="85" y="933"/>
      <point x="2" y="857" type="curve"/>
      <point x="131" y="688"/>
      <point x="166" y="536"/>
      <point x="166" y="324" type="curve"/>
      <point x="166" y="108"/>
      <point x="123" y="-46"/>
      <point x="-1" y="-225" type="curve"/>
      <point x="82" y="-294"/>
      <point x="-1" y="-225"/>
    </contour>
  </outline>
</glyph>
<glyph name="asterisk" format="1">
  <advance width="514"/>
  <unicode hex="002A"/>
  <outline>
    <contour>
      <point x="299" y="542" type="line"/>
      <point x="306" y="760" type="line"/>
      <point x="207" y="760" type="line"/>
      <point x="214" y="542" type="line"/>
    </contour>
    <contour>
      <point x="272" y="501" type="line"/>
      <point x="478" y="569" type="line"/>
      <point x="445" y="661" type="line"/>
      <point x="243" y="581" type="line"/>
    </contour>
    <contour>
      <point x="225" y="512" type="line"/>
      <point x="360" y="340" type="line"/>
      <point x="434" y="404" type="line"/>
      <point x="290" y="566" type="line"/>
    </contour>
    <contour>
      <point x="223" y="567" type="line"/>
      <point x="78" y="404" type="line"/>
      <point x="154" y="341" type="line"/>
      <point x="288" y="513" type="line"/>
    </contour>
    <contour>
      <point x="270" y="581" type="line"/>
      <point x="67" y="661" type="line"/>
      <point x="34" y="569" type="line"/>
      <point x="240" y="501" type="line"/>
    </contour>
  </outline>
</glyph>
<glyph name="plus" format="1">
  <advance width="585"/>
  <unicode hex="002B"/>
  <outline>
    <contour>
      <point x="32" y="256" type="curve"/>
      <point x="553" y="256" type="line"/>
      <point x="553" y="375"/>
      <point x="553" y="256"/>
      <point x="553" y="375" type="curve"/>
      <point x="32" y="375" type="line"/>
      <point x="32" y="256"/>
      <point x="32" y="375"/>
    </contour>
    <contour>
      <point x="358" y="57" type="curve"/>
      <point x="358" y="578" type="line"/>
      <point x="217" y="578"/>
      <point x="368" y="578"/>
      <point x="227" y="578" type="curve"/>
      <point x="227" y="57" type="line"/>
      <point x="368" y="57"/>
      <point x="217" y="57"/>
    </contour>
  </outline>
</glyph>
<glyph name="comma" format="1">
  <advance width="216"/>
  <unicode hex="002C"/>
  <outline>
    <contour>
      <point x="11" y="-119" type="line"/>
      <point x="107" y="-118"/>
      <point x="170" y="-49"/>
      <point x="170" y="57" type="curve"/>
      <point x="170" y="144"/>
      <point x="137" y="190"/>
      <point x="90" y="190" type="curve"/>
      <point x="47" y="190"/>
      <point x="18" y="165"/>
      <point x="18" y="119" type="curve"/>
      <point x="18" y="81"/>
      <point x="39" y="52"/>
      <point x="77" y="52" type="curve"/>
      <point x="77" y="25"/>
      <point x="75" y="-30"/>
      <point x="11" y="-42" type="curve"/>
    </contour>
  </outline>
</glyph>
<glyph name="hyphen" format="1">
  <advance width="320"/>
  <unicode hex="002D"/>
  <outline>
    <contour>
      <point x="51" y="224" type="curve"/>
      <point x="124" y="224"/>
      <point x="197" y="224"/>
      <point x="269" y="224" type="curve"/>
      <point x="269" y="343"/>
      <point x="269" y="224"/>
      <point x="269" y="343" type="curve"/>
      <point x="197" y="343"/>
      <point x="124" y="343"/>
      <point x="51" y="343" type="curve"/>
      <point x="51" y="224"/>
      <point x="51" y="343"/>
    </contour>
  </outline>
</glyph>
<glyph name="period" format="1">
  <advance width="235"/>
  <unicode hex="002E"/>
  <outline>
    <contour>
      <point x="190" y="61" type="curve"/>
      <point x="190" y="108"/>
      <point x="159" y="132"/>
      <point x="116" y="132" type="curve"/>
      <point x="73" y="132"/>
      <point x="44" y="106"/>
      <point x="44" y="61" type="curve"/>
      <point x="190" y="61"/>
      <point x="44" y="61"/>
      <point x="190" y="61" type="curve"/>
      <point x="190" y="13"/>
      <point x="160" y="-9"/>
      <point x="116" y="-9" type="curve"/>
      <point x="72" y="-9"/>
      <point x="44" y="15"/>
      <point x="44" y="61" type="curve"/>
      <point x="190" y="61"/>
      <point x="44" y="61"/>
    </contour>
  </outline>
</glyph>
<glyph name="slash" format="1">
  <advance width="496"/>
  <unicode hex="002F"/>
  <outline>
    <contour>
      <point x="159" y="-14" type="curve"/>
      <point x="265" y="252"/>
      <point x="372" y="517"/>
      <point x="477" y="783" type="curve"/>
      <point x="337" y="783"/>
      <point x="477" y="783"/>
      <point x="337" y="783" type="curve"/>
      <point x="231" y="517"/>
      <point x="124" y="252"/>
      <point x="18" y="-14" type="curve"/>
      <point x="159" y="-14"/>
      <point x="18" y="-14"/>
    </contour>
  </outline>
</glyph>
<glyph name="zero" format="1">
  <advance width="596"/>
  <unicode hex="0030"/>
  <outline>
    <contour>
      <point x="178" y="360" type="curve"/>
      <point x="178" y="498"/>
      <point x="195" y="614"/>
      <point x="294" y="614" type="curve"/>
      <point x="398" y="614"/>
      <point x="420" y="501"/>
      <point x="420" y="363" type="curve"/>
      <point x="420" y="225"/>
      <point x="403" y="109"/>
      <point x="304" y="109" type="curve"/>
      <point x="198" y="109"/>
      <point x="178" y="222"/>
      <point x="178" y="360" type="curve"/>
      <point x="40" y="360"/>
      <point x="178" y="360"/>
      <point x="40" y="360" type="curve"/>
      <point x="40" y="150"/>
      <point x="114" y="-5"/>
      <point x="298" y="-5" type="curve"/>
      <point x="483" y="-5"/>
      <point x="556" y="150"/>
      <point x="556" y="363" type="curve"/>
      <point x="556" y="572"/>
      <point x="487" y="727"/>
      <point x="306" y="727" type="curve"/>
      <point x="119" y="727"/>
      <point x="40" y="573"/>
      <point x="40" y="360" type="curve"/>
      <point x="178" y="360"/>
      <point x="40" y="360"/>
    </contour>
  </outline>
</glyph>
<glyph name="one" format="1">
  <advance width="355"/>
  <unicode hex="0031"/>
  <outline>
    <contour>
      <point x="89" y="477" type="curve"/>
      <point x="264" y="649"/>
      <point x="89" y="477"/>
      <point x="264" y="649" type="curve"/>
      <point x="161" y="722"/>
      <point x="264" y="649"/>
      <point x="161" y="722" type="curve"/>
      <point x="5" y="565"/>
      <point x="161" y="722"/>
      <point x="5" y="565" type="curve"/>
      <point x="89" y="477"/>
      <point x="5" y="565"/>
    </contour>
    <contour>
      <point x="298" y="0" type="curve"/>
      <point x="298" y="241"/>
      <point x="298" y="481"/>
      <point x="298" y="722" type="curve"/>
      <point x="161" y="722"/>
      <point x="298" y="722"/>
      <point x="161" y="722" type="curve"/>
      <point x="161" y="481"/>
      <point x="161" y="241"/>
      <point x="161" y="0" type="curve"/>
      <point x="298" y="0"/>
      <point x="161" y="0"/>
    </contour>
  </outline>
</glyph>
<glyph name="two" format="1">
  <advance width="489"/>
  <unicode hex="0032"/>
  <outline>
    <contour>
      <point x="36" y="0" type="curve"/>
      <point x="203" y="0"/>
      <point x="353" y="0"/>
      <point x="454" y="0" type="curve"/>
      <point x="454" y="108"/>
      <point x="454" y="0"/>
      <point x="454" y="108" type="curve"/>
      <point x="332" y="108"/>
      <point x="160" y="109"/>
      <point x="37" y="109" type="curve"/>
      <point x="36" y="0"/>
      <point x="37" y="108"/>
    </contour>
    <contour>
      <point x="131" y="519" type="curve"/>
      <point x="162" y="571"/>
      <point x="180" y="614"/>
      <point x="234" y="614" type="curve"/>
      <point x="288" y="614"/>
      <point x="305" y="566"/>
      <point x="305" y="502" type="curve"/>
      <point x="305" y="410"/>
      <point x="262" y="348"/>
      <point x="199" y="281" type="curve"/>
      <point x="145" y="222"/>
      <point x="95" y="169"/>
      <point x="37" y="109" type="curve"/>
      <point x="36" y="0"/>
      <point x="37" y="108"/>
      <point x="36" y="0" type="curve"/>
      <point x="166" y="55"/>
      <point x="228" y="133"/>
      <point x="290" y="201" type="curve"/>
      <point x="382" y="296"/>
      <point x="439" y="375"/>
      <point x="439" y="508" type="curve"/>
      <point x="439" y="643"/>
      <point x="370" y="727"/>
      <point x="240" y="727" type="curve"/>
      <point x="138" y="727"/>
      <point x="71" y="668"/>
      <point x="34" y="576" type="curve"/>
      <point x="131" y="519"/>
      <point x="34" y="576"/>
    </contour>
  </outline>
</glyph>
<glyph name="three" format="1">
  <advance width="464"/>
  <unicode hex="0033"/>
  <outline>
    <contour>
      <point x="29" y="60" type="curve"/>
      <point x="83" y="20"/>
      <point x="127" y="-5"/>
      <point x="195" y="-5" type="curve"/>
      <point x="337" y="-5"/>
      <point x="426" y="69"/>
      <point x="426" y="209" type="curve"/>
      <point x="426" y="332"/>
      <point x="312" y="407"/>
      <point x="129" y="407" type="curve"/>
      <point x="129" y="315"/>
      <point x="129" y="406"/>
      <point x="129" y="315" type="curve"/>
      <point x="225" y="315"/>
      <point x="291" y="269"/>
      <point x="291" y="204" type="curve"/>
      <point x="291" y="146"/>
      <point x="255" y="109"/>
      <point x="201" y="109" type="curve"/>
      <point x="164" y="109"/>
      <point x="137" y="120"/>
      <point x="106" y="142" type="curve"/>
      <point x="29" y="60"/>
      <point x="106" y="142"/>
    </contour>
    <contour>
      <point x="119" y="563" type="curve"/>
      <point x="133" y="585"/>
      <point x="158" y="614"/>
      <point x="192" y="614" type="curve"/>
      <point x="242" y="614"/>
      <point x="267" y="579"/>
      <point x="267" y="526" type="curve"/>
      <point x="267" y="470"/>
      <point x="213" y="427"/>
      <point x="129" y="427" type="curve"/>
      <point x="129" y="336"/>
      <point x="129" y="427"/>
      <point x="129" y="336" type="curve"/>
      <point x="287" y="336"/>
      <point x="400" y="408"/>
      <point x="400" y="529" type="curve"/>
      <point x="400" y="654"/>
      <point x="325" y="727"/>
      <point x="205" y="727" type="curve"/>
      <point x="127" y="727"/>
      <point x="61" y="684"/>
      <point x="29" y="633" type="curve"/>
      <point x="119" y="563"/>
      <point x="29" y="633"/>
    </contour>
  </outline>
</glyph>
<glyph name="four" format="1">
  <advance width="489"/>
  <unicode hex="0034"/>
  <outline>
    <contour>
      <point x="65" y="249" type="line"/>
      <point x="357" y="694" type="line"/>
      <point x="241" y="697" type="line"/>
      <point x="8" y="347" type="line"/>
    </contour>
    <contour>
      <point x="459" y="347" type="line"/>
      <point x="8" y="347" type="line"/>
      <point x="9" y="227" type="line"/>
      <point x="459" y="227" type="line"/>
    </contour>
    <contour>
      <point x="382" y="0" type="line"/>
      <point x="382" y="697" type="line"/>
      <point x="244" y="697" type="line"/>
      <point x="244" y="0" type="line"/>
    </contour>
  </outline>
</glyph>
<glyph name="five" format="1">
  <advance width="460"/>
  <unicode hex="0035"/>
  <outline>
    <contour>
      <point x="49" y="722" type="curve"/>
      <point x="49" y="625"/>
      <point x="49" y="517"/>
      <point x="49" y="379" type="curve"/>
      <point x="184" y="336"/>
      <point x="49" y="379"/>
      <point x="183" y="336" type="curve"/>
      <point x="183" y="425"/>
      <point x="183" y="525"/>
      <point x="183" y="614" type="curve"/>
      <point x="49" y="722"/>
      <point x="183" y="614"/>
    </contour>
    <contour>
      <point x="183" y="336" type="curve"/>
      <point x="190" y="344"/>
      <point x="203" y="353"/>
      <point x="225" y="353" type="curve"/>
      <point x="279" y="353"/>
      <point x="292" y="302"/>
      <point x="292" y="240" type="curve"/>
      <point x="292" y="172"/>
      <point x="265" y="108"/>
      <point x="207" y="108" type="curve"/>
      <point x="166" y="108"/>
      <point x="139" y="118"/>
      <point x="107" y="140" type="curve"/>
      <point x="37" y="43"/>
      <point x="107" y="140"/>
      <point x="37" y="43" type="curve"/>
      <point x="80" y="13"/>
      <point x="147" y="-5"/>
      <point x="215" y="-5" type="curve"/>
      <point x="340" y="-5"/>
      <point x="427" y="100"/>
      <point x="427" y="242" type="curve"/>
      <point x="427" y="371"/>
      <point x="365" y="470"/>
      <point x="246" y="470" type="curve"/>
      <point x="191" y="470"/>
      <point x="144" y="452"/>
      <point x="85" y="379" type="curve"/>
      <point x="187" y="346"/>
      <point x="81" y="369"/>
    </contour>
    <contour>
      <point x="400" y="722" type="curve"/>
      <point x="296" y="722"/>
      <point x="153" y="722"/>
      <point x="49" y="722" type="curve"/>
      <point x="183" y="614"/>
      <point x="49" y="722"/>
      <point x="183" y="614" type="curve"/>
      <point x="243" y="614"/>
      <point x="340" y="614"/>
      <point x="400" y="614" type="curve"/>
      <point x="400" y="722"/>
      <point x="400" y="614"/>
    </contour>
  </outline>
</glyph>
<glyph name="six" format="1">
  <advance width="509"/>
  <unicode hex="0036"/>
  <outline>
    <contour>
      <point x="150" y="209" type="curve"/>
      <point x="167" y="280"/>
      <point x="199" y="336"/>
      <point x="262" y="336" type="curve"/>
      <point x="321" y="336"/>
      <point x="338" y="288"/>
      <point x="338" y="226" type="curve"/>
      <point x="338" y="166"/>
      <point x="319" y="118"/>
      <point x="265" y="118" type="curve"/>
      <point x="196" y="118"/>
      <point x="170" y="179"/>
      <point x="170" y="260" type="curve"/>
      <point x="170" y="446"/>
      <point x="262" y="561"/>
      <point x="448" y="627" type="curve"/>
      <point x="409" y="728"/>
      <point x="448" y="627"/>
      <point x="409" y="728" type="curve"/>
      <point x="172" y="648"/>
      <point x="35" y="502"/>
      <point x="35" y="254" type="curve"/>
      <point x="35" y="96"/>
      <point x="114" y="-12"/>
      <point x="264" y="-12" type="curve"/>
      <point x="402" y="-12"/>
      <point x="479" y="83"/>
      <point x="479" y="226" type="curve"/>
      <point x="479" y="362"/>
      <point x="410" y="450"/>
      <point x="288" y="450" type="curve"/>
      <point x="159" y="450"/>
      <point x="89" y="323"/>
      <point x="84" y="237" type="curve"/>
      <point x="150" y="209"/>
      <point x="84" y="237"/>
    </contour>
  </outline>
</glyph>
<glyph name="seven" format="1">
  <advance width="456"/>
  <unicode hex="0037"/>
  <outline>
    <contour>
      <point x="47" y="614" type="curve"/>
      <point x="440" y="614" type="curve"/>
      <point x="440" y="722" type="curve"/>
      <point x="47" y="722" type="curve"/>
    </contour>
    <contour>
      <point x="349" y="722" type="curve"/>
      <point x="24" y="0" type="curve"/>
      <point x="173" y="0" type="curve"/>
      <point x="440" y="614" type="curve"/>
    </contour>
  </outline>
</glyph>
<glyph name="eight" format="1">
  <advance width="508"/>
  <unicode hex="0038"/>
  <outline>
    <contour>
      <point x="54" y="537" type="curve"/>
      <point x="54" y="433"/>
      <point x="121" y="391"/>
      <point x="213" y="339" type="curve"/>
      <point x="281" y="298"/>
      <point x="331" y="265"/>
      <point x="331" y="194" type="curve"/>
      <point x="331" y="143"/>
      <point x="307" y="109"/>
      <point x="255" y="109" type="curve"/>
      <point x="202" y="109"/>
      <point x="176" y="142"/>
      <point x="176" y="194" type="curve"/>
      <point x="176" y="267"/>
      <point x="227" y="296"/>
      <point x="297" y="338" type="curve"/>
      <point x="385" y="391"/>
      <point x="454" y="433"/>
      <point x="454" y="535" type="curve"/>
      <point x="454" y="659"/>
      <point x="382" y="727"/>
      <point x="255" y="727" type="curve"/>
      <point x="131" y="727"/>
      <point x="54" y="658"/>
      <point x="54" y="537" type="curve"/>
      <point x="190" y="537"/>
      <point x="54" y="537"/>
      <point x="190" y="537" type="curve"/>
      <point x="190" y="580"/>
      <point x="207" y="614"/>
      <point x="251" y="614" type="curve"/>
      <point x="297" y="614"/>
      <point x="317" y="582"/>
      <point x="317" y="535" type="curve"/>
      <point x="317" y="474"/>
      <point x="270" y="449"/>
      <point x="212" y="415" type="curve"/>
      <point x="111" y="356"/>
      <point x="40" y="308"/>
      <point x="40" y="194" type="curve"/>
      <point x="40" y="66"/>
      <point x="118" y="-5"/>
      <point x="248" y="-5" type="curve"/>
      <point x="383" y="-5"/>
      <point x="468" y="64"/>
      <point x="468" y="194" type="curve"/>
      <point x="468" y="307"/>
      <point x="396" y="358"/>
      <point x="298" y="416" type="curve"/>
      <point x="238" y="452"/>
      <point x="190" y="474"/>
      <point x="190" y="537" type="curve"/>
      <point x="54" y="537"/>
      <point x="190" y="537"/>
    </contour>
  </outline>
</glyph>
<glyph name="nine" format="1">
  <advance width="508"/>
  <unicode hex="0039"/>
  <outline>
    <contour>
      <point x="368" y="475" type="curve"/>
      <point x="344" y="409"/>
      <point x="312" y="386"/>
      <point x="249" y="386" type="curve"/>
      <point x="190" y="386"/>
      <point x="163" y="437"/>
      <point x="163" y="502" type="curve"/>
      <point x="163" y="559"/>
      <point x="188" y="604"/>
      <point x="238" y="604" type="curve"/>
      <point x="311" y="604"/>
      <point x="337" y="543"/>
      <point x="337" y="462" type="curve"/>
      <point x="337" y="276"/>
      <point x="247" y="157"/>
      <point x="71" y="92" type="curve"/>
      <point x="125" y="-15"/>
      <point x="71" y="92"/>
      <point x="125" y="-15" type="curve"/>
      <point x="329" y="58"/>
      <point x="471" y="220"/>
      <point x="471" y="468" type="curve"/>
      <point x="471" y="626"/>
      <point x="393" y="734"/>
      <point x="243" y="734" type="curve"/>
      <point x="105" y="734"/>
      <point x="28" y="639"/>
      <point x="28" y="496" type="curve"/>
      <point x="28" y="360"/>
      <point x="104" y="272"/>
      <point x="237" y="272" type="curve"/>
      <point x="349" y="272"/>
      <point x="408" y="376"/>
      <point x="435" y="449" type="curve"/>
      <point x="368" y="475"/>
      <point x="435" y="449"/>
    </contour>
  </outline>
</glyph>
<glyph name="colon" format="1">
  <advance width="247"/>
  <unicode hex="003A"/>
  <outline>
    <contour>
      <point x="196" y="362" type="curve"/>
      <point x="196" y="410"/>
      <point x="165" y="433"/>
      <point x="122" y="433" type="curve"/>
      <point x="79" y="433"/>
      <point x="50" y="408"/>
      <point x="50" y="362" type="curve"/>
      <point x="196" y="362"/>
      <point x="50" y="362"/>
      <point x="196" y="362" type="curve"/>
      <point x="196" y="314"/>
      <point x="166" y="292"/>
      <point x="122" y="292" type="curve"/>
      <point x="78" y="292"/>
      <point x="50" y="316"/>
      <point x="50" y="362" type="curve"/>
      <point x="196" y="362"/>
      <point x="50" y="362"/>
    </contour>
    <contour>
      <point x="196" y="65" type="curve"/>
      <point x="196" y="112"/>
      <point x="165" y="136"/>
      <point x="122" y="136" type="curve"/>
      <point x="79" y="136"/>
      <point x="50" y="110"/>
      <point x="50" y="65" type="curve"/>
      <point x="196" y="65"/>
      <point x="50" y="65"/>
      <point x="196" y="65" type="curve"/>
      <point x="196" y="17"/>
      <point x="166" y="-5"/>
      <point x="122" y="-5" type="curve"/>
      <point x="78" y="-5"/>
      <point x="50" y="19"/>
      <point x="50" y="65" type="curve"/>
      <point x="196" y="65"/>
      <point x="50" y="65"/>
    </contour>
  </outline>
</glyph>
<glyph name="semicolon" format="1">
  <advance width="232"/>
  <unicode hex="003B"/>
  <outline>
    <contour>
      <point x="10" y="-214" type="line"/>
      <point x="114" y="-213"/>
      <point x="182" y="-144"/>
      <point x="182" y="-38" type="curve"/>
      <point x="182" y="49"/>
      <point x="146" y="95"/>
      <point x="96" y="95" type="curve"/>
      <point x="48" y="95"/>
      <point x="17" y="70"/>
      <point x="17" y="24" type="curve"/>
      <point x="17" y="-14"/>
      <point x="39" y="-43"/>
      <point x="82" y="-43" type="curve"/>
      <point x="82" y="-70"/>
      <point x="80" y="-125"/>
      <point x="10" y="-137" type="curve"/>
    </contour>
    <contour>
      <point x="167" y="377" type="curve"/>
      <point x="167" y="424"/>
      <point x="136" y="448"/>
      <point x="94" y="448" type="curve"/>
      <point x="50" y="448"/>
      <point x="22" y="422"/>
      <point x="22" y="377" type="curve"/>
      <point x="167" y="377"/>
      <point x="22" y="377"/>
      <point x="167" y="377" type="curve"/>
      <point x="167" y="329"/>
      <point x="137" y="307"/>
      <point x="94" y="307" type="curve"/>
      <point x="49" y="307"/>
      <point x="22" y="331"/>
      <point x="22" y="377" type="curve"/>
      <point x="167" y="377"/>
      <point x="22" y="377"/>
    </contour>
  </outline>
</glyph>
<glyph name="less" format="1">
  <advance width="532"/>
  <unicode hex="003C"/>
  <outline>
    <contour>
      <point x="480" y="630" type="curve"/>
      <point x="328" y="540"/>
      <point x="177" y="450"/>
      <point x="25" y="360" type="curve"/>
      <point x="25" y="240"/>
      <point x="25" y="360"/>
      <point x="25" y="240" type="curve"/>
      <point x="177" y="330"/>
      <point x="328" y="420"/>
      <point x="480" y="510" type="curve"/>
      <point x="480" y="630"/>
      <point x="480" y="510"/>
    </contour>
    <contour>
      <point x="488" y="96" type="curve"/>
      <point x="333" y="184"/>
      <point x="179" y="272"/>
      <point x="25" y="360" type="curve"/>
      <point x="25" y="240"/>
      <point x="25" y="360"/>
      <point x="25" y="240" type="curve"/>
      <point x="179" y="152"/>
      <point x="333" y="64"/>
      <point x="488" y="-24" type="curve"/>
      <point x="488" y="96"/>
      <point x="488" y="-24"/>
    </contour>
  </outline>
</glyph>
<glyph name="equal" format="1">
  <advance width="574"/>
  <unicode hex="003D"/>
  <outline>
    <contour>
      <point x="52" y="160" type="curve"/>
      <point x="209" y="160"/>
      <point x="365" y="160"/>
      <point x="522" y="160" type="curve"/>
      <point x="522" y="275"/>
      <point x="522" y="160"/>
      <point x="522" y="275" type="curve"/>
      <point x="365" y="275"/>
      <point x="209" y="275"/>
      <point x="52" y="275" type="curve"/>
      <point x="52" y="160"/>
      <point x="52" y="275"/>
    </contour>
    <contour>
      <point x="52" y="382" type="curve"/>
      <point x="209" y="382"/>
      <point x="365" y="382"/>
      <point x="522" y="382" type="curve"/>
      <point x="522" y="497"/>
      <point x="522" y="382"/>
      <point x="522" y="497" type="curve"/>
      <point x="365" y="497"/>
      <point x="209" y="497"/>
      <point x="52" y="497" type="curve"/>
      <point x="52" y="382"/>
      <point x="52" y="497"/>
    </contour>
  </outline>
</glyph>
<glyph name="greater" format="1">
  <advance width="534"/>
  <unicode hex="003E"/>
  <outline>
    <contour>
      <point x="51" y="-24" type="curve"/>
      <point x="203" y="66"/>
      <point x="356" y="156"/>
      <point x="507" y="246" type="curve"/>
      <point x="507" y="366"/>
      <point x="507" y="246"/>
      <point x="507" y="366" type="curve"/>
      <point x="356" y="276"/>
      <point x="203" y="186"/>
      <point x="51" y="96" type="curve"/>
      <point x="51" y="-24"/>
      <point x="51" y="96"/>
    </contour>
    <contour>
      <point x="44" y="510" type="curve"/>
      <point x="198" y="422"/>
      <point x="353" y="334"/>
      <point x="507" y="246" type="curve"/>
      <point x="507" y="366"/>
      <point x="507" y="246"/>
      <point x="507" y="366" type="curve"/>
      <point x="353" y="454"/>
      <point x="198" y="542"/>
      <point x="44" y="630" type="curve"/>
      <point x="44" y="510"/>
      <point x="44" y="630"/>
    </contour>
  </outline>
</glyph>
<glyph name="question" format="1">
  <advance width="472"/>
  <unicode hex="003F"/>
  <outline>
    <contour>
      <point x="171" y="379" type="curve"/>
      <point x="171" y="342"/>
      <point x="171" y="258"/>
      <point x="171" y="221" type="curve"/>
      <point x="299" y="221"/>
      <point x="171" y="221"/>
      <point x="299" y="221" type="curve"/>
      <point x="299" y="258"/>
      <point x="299" y="342"/>
      <point x="299" y="379" type="curve"/>
      <point x="171" y="379"/>
      <point x="299" y="379"/>
    </contour>
    <contour>
      <point x="110" y="582" type="line"/>
      <point x="142" y="616"/>
      <point x="170" y="635"/>
      <point x="214" y="635" type="curve"/>
      <point x="279" y="635"/>
      <point x="312" y="586"/>
      <point x="312" y="518" type="curve"/>
      <point x="312" y="436"/>
      <point x="265" y="379"/>
      <point x="185" y="379" type="curve"/>
      <point x="185" y="340"/>
      <point x="184" y="313"/>
      <point x="184" y="275" type="curve"/>
      <point x="343" y="275"/>
      <point x="446" y="368"/>
      <point x="446" y="518" type="curve"/>
      <point x="446" y="663"/>
      <point x="355" y="751"/>
      <point x="220" y="751" type="curve"/>
      <point x="141" y="751"/>
      <point x="81" y="726"/>
      <point x="36" y="671" type="curve"/>
    </contour>
    <contour>
      <point x="309" y="61" type="curve"/>
      <point x="309" y="108"/>
      <point x="277" y="132"/>
      <point x="235" y="132" type="curve"/>
      <point x="191" y="132"/>
      <point x="163" y="106"/>
      <point x="163" y="61" type="curve"/>
      <point x="309" y="61"/>
      <point x="163" y="61"/>
      <point x="309" y="61" type="curve"/>
      <point x="309" y="13"/>
      <point x="278" y="-9"/>
      <point x="235" y="-9" type="curve"/>
      <point x="191" y="-9"/>
      <point x="163" y="15"/>
      <point x="163" y="61" type="curve"/>
      <point x="309" y="61"/>
      <point x="163" y="61"/>
    </contour>
  </outline>
</glyph>
<glyph name="at" format="1">
  <advance width="707"/>
  <unicode hex="0040"/>
  <outline>
    <contour>
      <point x="459" y="-6" type="curve"/>
      <point x="429" y="-25"/>
      <point x="406" y="-33"/>
      <point x="370" y="-33" type="curve"/>
      <point x="237" y="-33"/>
      <point x="158" y="70"/>
      <point x="158" y="214" type="curve"/>
      <point x="158" y="350"/>
      <point x="231" y="448"/>
      <point x="358" y="448" type="curve"/>
      <point x="481" y="448"/>
      <point x="553" y="349"/>
      <point x="553" y="213" type="curve"/>
      <point x="553" y="166"/>
      <point x="553" y="125"/>
      <point x="536" y="125" type="curve"/>
      <point x="521" y="125"/>
      <point x="522" y="166"/>
      <point x="522" y="218" type="curve"/>
      <point x="522" y="331"/>
      <point x="464" y="411"/>
      <point x="356" y="411" type="curve"/>
      <point x="238" y="411"/>
      <point x="189" y="334"/>
      <point x="189" y="214" type="curve"/>
      <point x="189" y="92"/>
      <point x="233" y="10"/>
      <point x="345" y="10" type="curve"/>
      <point x="447" y="10"/>
      <point x="489" y="88"/>
      <point x="502" y="198" type="curve"/>
      <point x="413" y="219"/>
      <point x="502" y="198"/>
      <point x="413" y="219" type="curve"/>
      <point x="403" y="169"/>
      <point x="408" y="118"/>
      <point x="360" y="118" type="curve"/>
      <point x="323" y="118"/>
      <point x="313" y="164"/>
      <point x="313" y="220" type="curve"/>
      <point x="313" y="263"/>
      <point x="315" y="302"/>
      <point x="350" y="302" type="curve"/>
      <point x="395" y="302"/>
      <point x="394" y="261"/>
      <point x="394" y="212" type="curve"/>
      <point x="394" y="104"/>
      <point x="427" y="22"/>
      <point x="525" y="22" type="curve"/>
      <point x="629" y="22"/>
      <point x="670" y="104"/>
      <point x="670" y="219" type="curve"/>
      <point x="670" y="424"/>
      <point x="558" y="562"/>
      <point x="361" y="562" type="curve"/>
      <point x="152" y="562"/>
      <point x="35" y="423"/>
      <point x="35" y="208" type="curve"/>
      <point x="35" y="-5"/>
      <point x="158" y="-142"/>
      <point x="364" y="-142" type="curve"/>
      <point x="427" y="-142"/>
      <point x="461" y="-132"/>
      <point x="514" y="-99" type="curve"/>
      <point x="459" y="-6"/>
      <point x="514" y="-99"/>
    </contour>
  </outline>
</glyph>
<glyph name="A" format="1">
  <advance width="580"/>
  <unicode hex="0041"/>
  <outline>
    <contour>
      <point x="402" y="294" type="curve"/>
      <point x="330" y="294"/>
      <point x="257" y="294"/>
      <point x="184" y="294" type="curve"/>
      <point x="126" y="179"/>
      <point x="184" y="294"/>
      <point x="126" y="179" type="curve"/>
      <point x="233" y="179"/>
      <point x="341" y="179"/>
      <point x="447" y="179" type="curve"/>
      <point x="402" y="294"/>
      <point x="447" y="179"/>
    </contour>
    <contour>
      <point x="571" y="0" type="curve"/>
      <point x="503" y="241"/>
      <point x="428" y="481"/>
      <point x="361" y="722" type="curve"/>
      <point x="233" y="722"/>
      <point x="361" y="722"/>
      <point x="233" y="722" type="curve"/>
      <point x="299" y="482"/>
      <point x="358" y="240"/>
      <point x="425" y="0" type="curve"/>
      <point x="571" y="0"/>
      <point x="425" y="0"/>
    </contour>
    <contour>
      <point x="148" y="0" type="curve"/>
      <point x="222" y="240"/>
      <point x="285" y="482"/>
      <point x="360" y="722" type="curve"/>
      <point x="232" y="722"/>
      <point x="360" y="722"/>
      <point x="232" y="722" type="curve"/>
      <point x="156" y="480"/>
      <point x="69" y="242"/>
      <point x="-6" y="0" type="curve"/>
      <point x="148" y="0"/>
      <point x="-6" y="0"/>
    </contour>
    <contour>
      <point x="293" y="781" type="move" name="top"/>
    </contour>
    <contour>
      <point x="559" y="5" type="move" name="bottom"/>
    </contour>
  </outline>
</glyph>
<glyph name="B" format="1">
  <advance width="539"/>
  <unicode hex="0042"/>
  <outline>
    <contour>
      <point x="130" y="614" type="curve"/>
      <point x="180" y="614"/>
      <point x="213" y="614"/>
      <point x="263" y="614" type="curve"/>
      <point x="312" y="614"/>
      <point x="332" y="581"/>
      <point x="332" y="536" type="curve"/>
      <point x="332" y="492"/>
      <point x="312" y="458"/>
      <point x="267" y="458" type="curve"/>
      <point x="216" y="458"/>
      <point x="181" y="458"/>
      <point x="130" y="458" type="curve"/>
      <point x="130" y="417"/>
      <point x="130" y="390"/>
      <point x="130" y="349" type="curve"/>
      <point x="164" y="349"/>
      <point x="186" y="349"/>
      <point x="221" y="349" type="curve"/>
      <point x="338" y="349"/>
      <point x="471" y="399"/>
      <point x="471" y="531" type="curve"/>
      <point x="471" y="652"/>
      <point x="396" y="722"/>
      <point x="273" y="722" type="curve"/>
      <point x="219" y="722"/>
      <point x="184" y="722"/>
      <point x="130" y="722" type="curve"/>
      <point x="130" y="681"/>
      <point x="130" y="655"/>
    </contour>
    <contour>
      <point x="212" y="0" type="curve"/>
      <point x="212" y="241"/>
      <point x="212" y="481"/>
      <point x="212" y="722" type="curve"/>
      <point x="65" y="722"/>
      <point x="212" y="722"/>
      <point x="65" y="722" type="curve"/>
      <point x="65" y="481"/>
      <point x="65" y="241"/>
      <point x="65" y="0" type="curve"/>
      <point x="212" y="0"/>
      <point x="65" y="0"/>
    </contour>
    <contour>
      <point x="130" y="349" type="curve"/>
      <point x="181" y="349"/>
      <point x="216" y="349"/>
      <point x="267" y="349" type="curve"/>
      <point x="338" y="349"/>
      <point x="367" y="297"/>
      <point x="367" y="228" type="curve"/>
      <point x="367" y="158"/>
      <point x="336" y="108"/>
      <point x="268" y="108" type="curve"/>
      <point x="216" y="108"/>
      <point x="182" y="108"/>
      <point x="130" y="108" type="curve"/>
      <point x="130" y="67"/>
      <point x="130" y="41"/>
      <point x="130" y="0" type="curve"/>
      <point x="186" y="0"/>
      <point x="222" y="0"/>
      <point x="277" y="0" type="curve"/>
      <point x="420" y="0"/>
      <point x="507" y="82"/>
      <point x="507" y="224" type="curve"/>
      <point x="507" y="382"/>
      <point x="376" y="458"/>
      <point x="221" y="458" type="curve"/>
      <point x="186" y="458"/>
      <point x="164" y="458"/>
      <point x="130" y="458" type="curve"/>
      <point x="130" y="417"/>
      <point x="130" y="390"/>
    </contour>
  </outline>
</glyph>
<glyph name="D" format="1">
  <advance width="621"/>
  <unicode hex="0044"/>
  <outline>
    <contour>
      <point x="65" y="722" type="curve"/>
      <point x="65" y="481"/>
      <point x="65" y="241"/>
      <point x="65" y="0" type="curve"/>
      <point x="206" y="0"/>
      <point x="65" y="0"/>
      <point x="206" y="0" type="curve"/>
      <point x="206" y="241"/>
      <point x="206" y="481"/>
      <point x="206" y="722" type="curve"/>
      <point x="65" y="722"/>
      <point x="206" y="722"/>
    </contour>
    <contour>
      <point x="137" y="0" type="curve"/>
      <point x="185" y="0"/>
      <point x="233" y="0"/>
      <point x="282" y="0" type="curve"/>
      <point x="490" y="0"/>
      <point x="584" y="134"/>
      <point x="584" y="354" type="curve"/>
      <point x="584" y="581"/>
      <point x="493" y="722"/>
      <point x="279" y="722" type="curve"/>
      <point x="233" y="722"/>
      <point x="185" y="722"/>
      <point x="137" y="722" type="curve"/>
      <point x="137" y="614"/>
      <point x="137" y="722"/>
      <point x="137" y="614" type="curve"/>
      <point x="183" y="614"/>
      <point x="228" y="614"/>
      <point x="274" y="614" type="curve"/>
      <point x="410" y="614"/>
      <point x="444" y="505"/>
      <point x="444" y="352" type="curve"/>
      <point x="444" y="211"/>
      <point x="416" y="108"/>
      <point x="294" y="108" type="curve"/>
      <point x="241" y="108"/>
      <point x="190" y="108"/>
      <point x="137" y="108" type="curve"/>
      <point x="137" y="0"/>
      <point x="137" y="108"/>
    </contour>
    <contour>
      <point x="254" y="781" type="move" name="top"/>
    </contour>
  </outline>
</glyph>
<glyph name="E" format="1">
  <advance width="480"/>
  <unicode hex="0045"/>
  <outline>
    <contour>
      <point x="139" y="318" type="curve"/>
      <point x="220" y="318"/>
      <point x="303" y="318"/>
      <point x="385" y="318" type="curve"/>
      <point x="385" y="427"/>
      <point x="385" y="318"/>
      <point x="385" y="427" type="curve"/>
      <point x="303" y="427"/>
      <point x="220" y="427"/>
      <point x="139" y="427" type="curve"/>
      <point x="139" y="318"/>
      <point x="139" y="427"/>
    </contour>
    <contour>
      <point x="127" y="614" type="curve"/>
      <point x="229" y="614"/>
      <point x="330" y="614"/>
      <point x="432" y="614" type="curve"/>
      <point x="432" y="722"/>
      <point x="432" y="614"/>
      <point x="432" y="722" type="curve"/>
      <point x="330" y="722"/>
      <point x="229" y="722"/>
      <point x="127" y="722" type="curve"/>
      <point x="127" y="614"/>
      <point x="127" y="722"/>
    </contour>
    <contour>
      <point x="206" y="0" type="curve"/>
      <point x="206" y="722" type="line"/>
      <point x="65" y="722"/>
      <point x="206" y="722"/>
      <point x="65" y="722" type="curve"/>
      <point x="65" y="481"/>
      <point x="65" y="241"/>
      <point x="65" y="0" type="curve"/>
      <point x="206" y="0"/>
      <point x="65" y="0"/>
    </contour>
    <contour>
      <point x="127" y="0" type="curve"/>
      <point x="237" y="0"/>
      <point x="347" y="0"/>
      <point x="457" y="0" type="curve"/>
      <point x="457" y="108"/>
      <point x="457" y="0"/>
      <point x="457" y="108" type="curve"/>
      <point x="347" y="108"/>
      <point x="237" y="108"/>
      <point x="127" y="108" type="curve"/>
      <point x="127" y="0"/>
      <point x="127" y="108"/>
    </contour>
    <contour>
      <point x="238" y="781" type="move" name="top"/>
    </contour>
    <contour>
      <point x="434" y="4" type="move" name="bottom"/>
    </contour>
  </outline>
</glyph>
<glyph name="F" format="1">
  <advance width="457"/>
  <unicode hex="0046"/>
  <outline>
    <contour>
      <point x="138" y="318" type="curve"/>
      <point x="219" y="318"/>
      <point x="299" y="318"/>
      <point x="380" y="318" type="curve"/>
      <point x="380" y="427"/>
      <point x="380" y="318"/>
      <point x="380" y="427" type="curve"/>
      <point x="299" y="427"/>
      <point x="219" y="427"/>
      <point x="138" y="427" type="curve"/>
      <point x="138" y="318"/>
      <point x="138" y="427"/>
    </contour>
    <contour>
      <point x="206" y="0" type="curve"/>
      <point x="206" y="722" type="line"/>
      <point x="65" y="722"/>
      <point x="206" y="722"/>
      <point x="65" y="722" type="curve"/>
      <point x="65" y="481"/>
      <point x="65" y="241"/>
      <point x="65" y="0" type="curve"/>
      <point x="206" y="0"/>
      <point x="65" y="0"/>
    </contour>
    <contour>
      <point x="127" y="614" type="curve"/>
      <point x="229" y="614"/>
      <point x="332" y="614"/>
      <point x="435" y="614" type="curve"/>
      <point x="435" y="722"/>
      <point x="435" y="614"/>
      <point x="435" y="722" type="curve"/>
      <point x="332" y="722"/>
      <point x="229" y="722"/>
      <point x="127" y="722" type="curve"/>
      <point x="127" y="614"/>
      <point x="127" y="722"/>
    </contour>
  </outline>
</glyph>
<glyph name="H" format="1">
  <advance width="640"/>
  <unicode hex="0048"/>
  <outline>
    <contour>
      <point x="206" y="0" type="curve"/>
      <point x="206" y="722" type="line"/>
      <point x="65" y="722"/>
      <point x="206" y="722"/>
      <point x="65" y="722" type="curve"/>
      <point x="65" y="481"/>
      <point x="65" y="241"/>
      <point x="65" y="0" type="curve"/>
      <point x="206" y="0"/>
      <point x="65" y="0"/>
    </contour>
    <contour>
      <point x="503" y="417" type="curve"/>
      <point x="380" y="417"/>
      <point x="258" y="417"/>
      <point x="135" y="417" type="curve"/>
      <point x="135" y="308"/>
      <point x="135" y="417"/>
      <point x="135" y="308" type="curve"/>
      <point x="258" y="308"/>
      <point x="380" y="308"/>
      <point x="503" y="308" type="curve"/>
      <point x="503" y="417"/>
      <point x="503" y="308"/>
    </contour>
    <contour>
      <point x="575" y="0" type="curve"/>
      <point x="575" y="210"/>
      <point x="575" y="512"/>
      <point x="575" y="722" type="curve"/>
      <point x="434" y="722"/>
      <point x="575" y="722"/>
      <point x="434" y="722" type="curve"/>
      <point x="434" y="0" type="line"/>
      <point x="575" y="0"/>
      <point x="434" y="0"/>
    </contour>
  </outline>
</glyph>
<glyph name="J" format="1">
  <advance width="376"/>
  <unicode hex="004A"/>
  <outline>
    <contour>
      <point x="-2" y="45" type="curve"/>
      <point x="24" y="23"/>
      <point x="64" y="-4"/>
      <point x="115" y="-4" type="curve"/>
      <point x="252" y="-4"/>
      <point x="314" y="85"/>
      <point x="314" y="245" type="curve"/>
      <point x="314" y="403"/>
      <point x="314" y="563"/>
      <point x="314" y="722" type="curve"/>
      <point x="174" y="722"/>
      <point x="314" y="722"/>
      <point x="174" y="722" type="curve"/>
      <point x="174" y="563"/>
      <point x="174" y="403"/>
      <point x="174" y="245" type="curve"/>
      <point x="174" y="171"/>
      <point x="175" y="107"/>
      <point x="115" y="107" type="curve"/>
      <point x="92" y="107"/>
      <point x="79" y="119"/>
      <point x="62" y="131" type="curve"/>
      <point x="-1" y="45"/>
      <point x="62" y="131"/>
    </contour>
  </outline>
</glyph>
<glyph name="K" format="1">
  <advance width="612"/>
  <unicode hex="004B"/>
  <outline>
    <contour>
      <point x="424" y="722" type="curve"/>
      <point x="191" y="380" type="line"/>
      <point x="341" y="380"/>
      <point x="205" y="380"/>
      <point x="354" y="380" type="curve"/>
      <point x="585" y="722" type="line"/>
      <point x="487" y="722"/>
      <point x="522" y="722"/>
    </contour>
    <contour>
      <point x="206" y="0" type="curve"/>
      <point x="206" y="722" type="line"/>
      <point x="65" y="722"/>
      <point x="206" y="722"/>
      <point x="65" y="722" type="curve"/>
      <point x="65" y="481"/>
      <point x="65" y="241"/>
      <point x="65" y="0" type="curve"/>
      <point x="206" y="0"/>
      <point x="65" y="0"/>
    </contour>
    <contour>
      <point x="602" y="0" type="curve"/>
      <point x="354" y="380" type="line"/>
      <point x="205" y="380"/>
      <point x="341" y="380"/>
      <point x="191" y="380" type="curve"/>
      <point x="441" y="0" type="line"/>
      <point x="554" y="0"/>
      <point x="489" y="0"/>
    </contour>
    <contour>
      <point x="319" y="-2" type="move" name="bottom"/>
    </contour>
  </outline>
</glyph>
<glyph name="L" format="1">
  <advance width="463"/>
  <unicode hex="004C"/>
  <outline>
    <contour>
      <point x="206" y="0" type="curve"/>
      <point x="206" y="241"/>
      <point x="206" y="481"/>
      <point x="206" y="722" type="curve"/>
      <point x="65" y="722"/>
      <point x="206" y="722"/>
      <point x="65" y="722" type="curve"/>
      <point x="65" y="481"/>
      <point x="65" y="241"/>
      <point x="65" y="0" type="curve"/>
      <point x="206" y="0"/>
      <point x="65" y="0"/>
    </contour>
    <contour>
      <point x="135" y="0" type="curve"/>
      <point x="240" y="0"/>
      <point x="346" y="0"/>
      <point x="451" y="0" type="curve"/>
      <point x="451" y="108"/>
      <point x="451" y="0"/>
      <point x="451" y="108" type="curve"/>
      <point x="346" y="108"/>
      <point x="240" y="108"/>
      <point x="135" y="108" type="curve"/>
      <point x="135" y="0"/>
      <point x="135" y="108"/>
    </contour>
    <contour>
      <point x="135" y="781" type="move" name="top"/>
    </contour>
    <contour>
      <point x="282" y="2" type="move" name="bottom"/>
    </contour>
  </outline>
</glyph>
<glyph name="M" format="1">
  <advance width="742"/>
  <unicode hex="004D"/>
  <outline>
    <contour>
      <point x="700" y="0" type="curve"/>
      <point x="684" y="241"/>
      <point x="663" y="481"/>
      <point x="648" y="722" type="curve"/>
      <point x="520" y="722"/>
      <point x="648" y="722"/>
      <point x="520" y="722" type="curve"/>
      <point x="535" y="481"/>
      <point x="544" y="241"/>
      <point x="559" y="0" type="curve"/>
      <point x="700" y="0"/>
      <point x="559" y="0"/>
    </contour>
    <contour>
      <point x="165" y="0" type="curve"/>
      <point x="179" y="241"/>
      <point x="193" y="481"/>
      <point x="207" y="722" type="curve"/>
      <point x="89" y="722"/>
      <point x="207" y="722"/>
      <point x="89" y="722" type="curve"/>
      <point x="74" y="481"/>
      <point x="60" y="241"/>
      <point x="45" y="0" type="curve"/>
      <point x="165" y="0"/>
      <point x="45" y="0"/>
    </contour>
    <contour>
      <point x="420" y="0" type="curve"/>
      <point x="350" y="241"/>
      <point x="279" y="481"/>
      <point x="209" y="722" type="curve"/>
      <point x="91" y="722"/>
      <point x="209" y="722"/>
      <point x="91" y="722" type="curve"/>
      <point x="161" y="481"/>
      <point x="231" y="241"/>
      <point x="301" y="0" type="curve"/>
      <point x="420" y="0"/>
      <point x="301" y="0"/>
    </contour>
    <contour>
      <point x="427" y="0" type="curve"/>
      <point x="496" y="241"/>
      <point x="564" y="481"/>
      <point x="632" y="722" type="curve"/>
      <point x="514" y="722"/>
      <point x="632" y="722"/>
      <point x="514" y="722" type="curve"/>
      <point x="445" y="481"/>
      <point x="376" y="241"/>
      <point x="307" y="0" type="curve"/>
      <point x="427" y="0"/>
      <point x="307" y="0"/>
    </contour>
  </outline>
</glyph>
<glyph name="N" format="1">
  <advance width="676"/>
  <unicode hex="004E"/>
  <outline>
    <contour>
      <point x="611" y="0" type="curve"/>
      <point x="478" y="241"/>
      <point x="344" y="481"/>
      <point x="211" y="722" type="curve"/>
      <point x="65" y="722"/>
      <point x="211" y="722"/>
      <point x="65" y="722" type="curve"/>
      <point x="198" y="481"/>
      <point x="332" y="241"/>
      <point x="466" y="0" type="curve"/>
      <point x="611" y="0"/>
      <point x="466" y="0"/>
    </contour>
    <contour>
      <point x="470" y="722" type="curve"/>
      <point x="470" y="481"/>
      <point x="470" y="241"/>
      <point x="470" y="0" type="curve"/>
      <point x="610" y="0"/>
      <point x="470" y="0"/>
      <point x="610" y="0" type="curve"/>
      <point x="610" y="241"/>
      <point x="610" y="481"/>
      <point x="610" y="722" type="curve"/>
      <point x="470" y="722"/>
      <point x="610" y="722"/>
    </contour>
    <contour>
      <point x="206" y="0" type="curve"/>
      <point x="206" y="241"/>
      <point x="206" y="481"/>
      <point x="206" y="722" type="curve"/>
      <point x="65" y="722"/>
      <point x="206" y="722"/>
      <point x="65" y="722" type="curve"/>
      <point x="65" y="481"/>
      <point x="65" y="241"/>
      <point x="65" y="0" type="curve"/>
      <point x="206" y="0"/>
      <point x="65" y="0"/>
    </contour>
    <contour>
      <point x="338" y="781" type="move" name="top"/>
    </contour>
    <contour>
      <point x="401" y="-2" type="move" name="bottom"/>
    </contour>
  </outline>
</glyph>
<glyph name="P" format="1">
  <advance width="500"/>
  <unicode hex="0050"/>
  <outline>
    <contour>
      <point x="115" y="299" type="curve"/>
      <point x="165" y="269"/>
      <point x="218" y="253"/>
      <point x="279" y="253" type="curve"/>
      <point x="400" y="255"/>
      <point x="478" y="338"/>
      <point x="478" y="475" type="curve"/>
      <point x="478" y="622"/>
      <point x="386" y="722"/>
      <point x="243" y="722" type="curve"/>
      <point x="208" y="722"/>
      <point x="173" y="722"/>
      <point x="139" y="722" type="curve"/>
      <point x="139" y="614"/>
      <point x="139" y="722"/>
      <point x="139" y="614" type="curve"/>
      <point x="167" y="614"/>
      <point x="195" y="614"/>
      <point x="224" y="614" type="curve"/>
      <point x="298" y="614"/>
      <point x="337" y="556"/>
      <point x="337" y="480" type="curve"/>
      <point x="337" y="412"/>
      <point x="317" y="356"/>
      <point x="260" y="356" type="curve"/>
      <point x="220" y="356"/>
      <point x="194" y="368"/>
      <point x="160" y="388" type="curve"/>
      <point x="116" y="302"/>
      <point x="160" y="388"/>
    </contour>
    <contour>
      <point x="206" y="0" type="curve"/>
      <point x="206" y="241"/>
      <point x="206" y="481"/>
      <point x="206" y="722" type="curve"/>
      <point x="65" y="722"/>
      <point x="206" y="722"/>
      <point x="65" y="722" type="curve"/>
      <point x="65" y="481"/>
      <point x="65" y="241"/>
      <point x="65" y="0" type="curve"/>
      <point x="206" y="0"/>
      <point x="65" y="0"/>
    </contour>
  </outline>
</glyph>
<glyph name="Q" format="1">
  <advance width="649"/>
  <unicode hex="0051"/>
  <outline>
    <contour>
      <point x="270" y="27" type="curve"/>
      <point x="348" y="-141"/>
      <point x="454" y="-212"/>
      <point x="628" y="-212" type="curve"/>
      <point x="628" y="-97"/>
      <point x="628" y="-212"/>
      <point x="628" y="-97" type="curve"/>
      <point x="509" y="-97"/>
      <point x="446" y="-36"/>
      <point x="391" y="81" type="curve"/>
      <point x="270" y="27"/>
      <point x="391" y="81"/>
    </contour>
    <contour>
      <point x="177" y="360" type="curve"/>
      <point x="177" y="494"/>
      <point x="204" y="607"/>
      <point x="320" y="607" type="curve"/>
      <point x="438" y="607"/>
      <point x="471" y="496"/>
      <point x="471" y="360" type="curve"/>
      <point x="471" y="225"/>
      <point x="446" y="108"/>
      <point x="329" y="108" type="curve"/>
      <point x="209" y="109"/>
      <point x="177" y="223"/>
      <point x="177" y="360" type="curve"/>
      <point x="37" y="360"/>
      <point x="177" y="360"/>
      <point x="37" y="360" type="curve"/>
      <point x="37" y="151"/>
      <point x="131" y="-5"/>
      <point x="322" y="-5" type="curve"/>
      <point x="518" y="-5"/>
      <point x="612" y="154"/>
      <point x="612" y="366" type="curve"/>
      <point x="612" y="574"/>
      <point x="523" y="732"/>
      <point x="331" y="732" type="curve"/>
      <point x="135" y="732"/>
      <point x="37" y="572"/>
      <point x="37" y="360" type="curve"/>
      <point x="177" y="360"/>
      <point x="37" y="360"/>
    </contour>
  </outline>
</glyph>
<glyph name="T" format="1">
  <advance width="488"/>
  <unicode hex="0054"/>
  <outline>
    <contour>
      <point x="314" y="0" type="curve"/>
      <point x="314" y="237"/>
      <point x="314" y="473"/>
      <point x="314" y="710" type="curve"/>
      <point x="174" y="710"/>
      <point x="314" y="710"/>
      <point x="174" y="710" type="curve"/>
      <point x="173" y="473"/>
      <point x="174" y="237"/>
      <point x="174" y="0" type="curve"/>
      <point x="314" y="0"/>
      <point x="174" y="0"/>
    </contour>
    <contour>
      <point x="12" y="607" type="curve"/>
      <point x="166" y="607"/>
      <point x="322" y="607"/>
      <point x="476" y="607" type="curve"/>
      <point x="476" y="727"/>
      <point x="476" y="602"/>
      <point x="476" y="722" type="curve"/>
      <point x="322" y="722"/>
      <point x="166" y="722"/>
      <point x="12" y="722" type="curve"/>
      <point x="12" y="602"/>
      <point x="12" y="727"/>
    </contour>
    <contour>
      <point x="244" y="781" type="move" name="top"/>
    </contour>
    <contour>
      <point x="306" y="-1" type="move" name="bottom"/>
    </contour>
  </outline>
</glyph>
<glyph name="V" format="1">
  <advance width="576"/>
  <unicode hex="0056"/>
  <outline>
    <contour>
      <point x="428" y="722" type="curve"/>
      <point x="362" y="480"/>
      <point x="298" y="242"/>
      <point x="235" y="0" type="curve"/>
      <point x="378" y="0"/>
      <point x="219" y="0"/>
      <point x="363" y="0" type="curve"/>
      <point x="432" y="241"/>
      <point x="500" y="481"/>
      <point x="570" y="722" type="curve"/>
      <point x="428" y="722"/>
      <point x="570" y="722"/>
    </contour>
    <contour>
      <point x="3" y="722" type="curve"/>
      <point x="73" y="481"/>
      <point x="144" y="241"/>
      <point x="214" y="0" type="curve"/>
      <point x="358" y="0"/>
      <point x="201" y="0"/>
      <point x="345" y="0" type="curve"/>
      <point x="280" y="242"/>
      <point x="215" y="482"/>
      <point x="147" y="722" type="curve"/>
      <point x="3" y="722"/>
      <point x="147" y="722"/>
    </contour>
  </outline>
</glyph>
<glyph name="W" format="1">
  <advance width="731"/>
  <unicode hex="0057"/>
  <outline>
    <contour>
      <point x="277" y="0" type="curve"/>
      <point x="328" y="241"/>
      <point x="378" y="481"/>
      <point x="428" y="722" type="curve"/>
      <point x="310" y="722"/>
      <point x="428" y="722"/>
      <point x="310" y="722" type="curve"/>
      <point x="264" y="482"/>
      <point x="220" y="243"/>
      <point x="173" y="0" type="curve"/>
      <point x="287" y="0"/>
      <point x="163" y="0"/>
    </contour>
    <contour>
      <point x="315" y="722" type="curve"/>
      <point x="360" y="481"/>
      <point x="405" y="241"/>
      <point x="451" y="0" type="curve"/>
      <point x="565" y="0"/>
      <point x="437" y="0"/>
      <point x="551" y="0" type="curve"/>
      <point x="510" y="245"/>
      <point x="473" y="481"/>
      <point x="433" y="722" type="curve"/>
      <point x="315" y="722"/>
      <point x="433" y="722"/>
    </contour>
    <contour>
      <point x="21" y="722" type="curve"/>
      <point x="67" y="481"/>
      <point x="113" y="241"/>
      <point x="158" y="0" type="curve"/>
      <point x="273" y="0"/>
      <point x="158" y="0"/>
      <point x="273" y="0" type="curve"/>
      <point x="229" y="241"/>
      <point x="185" y="481"/>
      <point x="142" y="722" type="curve"/>
      <point x="21" y="722"/>
      <point x="142" y="722"/>
    </contour>
    <contour>
      <point x="591" y="722" type="curve"/>
      <point x="547" y="481"/>
      <point x="501" y="241"/>
      <point x="455" y="0" type="curve"/>
      <point x="570" y="0"/>
      <point x="455" y="0"/>
      <point x="570" y="0" type="curve"/>
      <point x="617" y="241"/>
      <point x="665" y="481"/>
      <point x="713" y="722" type="curve"/>
      <point x="591" y="722"/>
      <point x="713" y="722"/>
    </contour>
  </outline>
</glyph>
<glyph name="X" format="1">
  <advance width="531"/>
  <unicode hex="0058"/>
  <outline>
    <contour>
      <point x="379" y="722" type="curve"/>
      <point x="254" y="481"/>
      <point x="129" y="241"/>
      <point x="4" y="0" type="curve"/>
      <point x="142" y="0"/>
      <point x="4" y="0"/>
      <point x="142" y="0" type="curve"/>
      <point x="266" y="241"/>
      <point x="390" y="481"/>
      <point x="513" y="722" type="curve"/>
      <point x="379" y="722"/>
      <point x="513" y="722"/>
    </contour>
    <contour>
      <point x="19" y="722" type="curve"/>
      <point x="142" y="481"/>
      <point x="265" y="241"/>
      <point x="388" y="0" type="curve"/>
      <point x="525" y="0"/>
      <point x="388" y="0"/>
      <point x="525" y="0" type="curve"/>
      <point x="401" y="241"/>
      <point x="278" y="481"/>
      <point x="154" y="722" type="curve"/>
      <point x="19" y="722"/>
      <point x="154" y="722"/>
    </contour>
  </outline>
</glyph>
<glyph name="Y" format="1">
  <advance width="515"/>
  <unicode hex="0059"/>
  <outline>
    <contour>
      <point x="8" y="722" type="curve"/>
      <point x="67" y="594"/>
      <point x="122" y="469"/>
      <point x="179" y="337" type="curve"/>
      <point x="322" y="337"/>
      <point x="158" y="337"/>
      <point x="300" y="337" type="curve"/>
      <point x="251" y="470"/>
      <point x="204" y="591"/>
      <point x="151" y="722" type="curve"/>
      <point x="8" y="722"/>
      <point x="151" y="722"/>
    </contour>
    <contour>
      <point x="371" y="722" type="curve"/>
      <point x="312" y="589"/>
      <point x="262" y="469"/>
      <point x="202" y="337" type="curve"/>
      <point x="344" y="337"/>
      <point x="190" y="337"/>
      <point x="333" y="337" type="curve"/>
      <point x="394" y="468"/>
      <point x="452" y="594"/>
      <point x="514" y="722" type="curve"/>
      <point x="371" y="722"/>
      <point x="514" y="722"/>
    </contour>
    <contour>
      <point x="333" y="0" type="curve"/>
      <point x="333" y="115"/>
      <point x="333" y="222"/>
      <point x="333" y="337" type="curve"/>
      <point x="179" y="337"/>
      <point x="333" y="337"/>
      <point x="179" y="337" type="curve"/>
      <point x="179" y="222"/>
      <point x="179" y="115"/>
      <point x="179" y="0" type="curve"/>
      <point x="333" y="0"/>
      <point x="179" y="0"/>
    </contour>
    <contour>
      <point x="262" y="781" type="move" name="top"/>
    </contour>
  </outline>
</glyph>
<glyph name="Z" format="1">
  <advance width="565"/>
  <unicode hex="005A"/>
  <outline>
    <contour>
      <point x="49" y="614" type="curve"/>
      <point x="170" y="614"/>
      <point x="344" y="614"/>
      <point x="465" y="614" type="curve"/>
      <point x="454" y="624"/>
      <point x="435" y="622"/>
      <point x="424" y="633" type="curve"/>
      <point x="413" y="641"/>
      <point x="416" y="659"/>
      <point x="406" y="669" type="curve"/>
      <point x="400" y="659"/>
      <point x="384" y="669"/>
      <point x="378" y="659" type="curve"/>
      <point x="24" y="108" type="line"/>
      <point x="24" y="53"/>
      <point x="24" y="108"/>
      <point x="24" y="53" type="curve"/>
      <point x="24" y="0"/>
      <point x="24" y="53"/>
      <point x="24" y="0" type="curve"/>
      <point x="76" y="0"/>
      <point x="24" y="0"/>
      <point x="76" y="0" type="curve"/>
      <point x="509" y="0"/>
      <point x="395" y="0"/>
      <point x="540" y="0" type="curve"/>
      <point x="540" y="108"/>
      <point x="540" y="0"/>
      <point x="540" y="108" type="curve"/>
      <point x="395" y="108"/>
      <point x="220" y="108"/>
      <point x="76" y="108" type="curve"/>
      <point x="86" y="100"/>
      <point x="102" y="101"/>
      <point x="111" y="93" type="curve"/>
      <point x="122" y="83"/>
      <point x="121" y="64"/>
      <point x="132" y="53" type="curve"/>
      <point x="139" y="63"/>
      <point x="155" y="54"/>
      <point x="162" y="63" type="curve"/>
      <point x="522" y="614" type="line"/>
      <point x="522" y="669"/>
      <point x="522" y="614"/>
      <point x="522" y="669" type="curve"/>
      <point x="522" y="722"/>
      <point x="522" y="669"/>
      <point x="522" y="722" type="curve"/>
      <point x="465" y="722"/>
      <point x="522" y="722"/>
      <point x="465" y="722" type="curve"/>
      <point x="344" y="722"/>
      <point x="170" y="722"/>
      <point x="49" y="722" type="curve"/>
      <point x="49" y="614"/>
      <point x="49" y="722"/>
    </contour>
    <contour>
      <point x="286" y="781" type="move" name="top"/>
    </contour>
  </outline>
</glyph>
<glyph name="bracketleft" format="1">
  <advance width="275"/>
  <unicode hex="005B"/>
  <outline>
    <contour>
      <point x="235" y="769" type="curve"/>
      <point x="198" y="769"/>
      <point x="160" y="769"/>
      <point x="122" y="769" type="curve"/>
      <point x="106" y="769"/>
      <point x="71" y="769"/>
      <point x="56" y="769" type="curve"/>
      <point x="56" y="752"/>
      <point x="56" y="732"/>
      <point x="56" y="715" type="curve"/>
      <point x="56" y="456"/>
      <point x="56" y="199"/>
      <point x="56" y="-60" type="curve"/>
      <point x="56" y="-78"/>
      <point x="56" y="-90"/>
      <point x="56" y="-113" type="curve"/>
      <point x="71" y="-113"/>
      <point x="104" y="-113"/>
      <point x="121" y="-113" type="curve"/>
      <point x="159" y="-113"/>
      <point x="198" y="-113"/>
      <point x="235" y="-113" type="curve"/>
      <point x="235" y="7"/>
      <point x="235" y="-113"/>
      <point x="235" y="7" type="curve"/>
      <point x="198" y="7"/>
      <point x="159" y="7"/>
      <point x="121" y="7" type="curve"/>
      <point x="196" y="7"/>
      <point x="121" y="7"/>
      <point x="196" y="7" type="curve"/>
      <point x="196" y="-60"/>
      <point x="196" y="7"/>
      <point x="196" y="-60" type="curve"/>
      <point x="196" y="199"/>
      <point x="196" y="456"/>
      <point x="196" y="715" type="curve"/>
      <point x="196" y="650"/>
      <point x="196" y="715"/>
      <point x="196" y="650" type="curve"/>
      <point x="122" y="650"/>
      <point x="196" y="650"/>
      <point x="122" y="650" type="curve"/>
      <point x="160" y="650"/>
      <point x="198" y="650"/>
      <point x="235" y="650" type="curve"/>
      <point x="235" y="769"/>
      <point x="235" y="650"/>
    </contour>
  </outline>
</glyph>
<glyph name="backslash" format="1">
  <advance width="479"/>
  <unicode hex="005C"/>
  <outline>
    <contour>
      <point x="459" y="-68" type="curve"/>
      <point x="362" y="236"/>
      <point x="264" y="540"/>
      <point x="166" y="844" type="curve"/>
      <point x="19" y="844"/>
      <point x="166" y="844"/>
      <point x="19" y="844" type="curve"/>
      <point x="117" y="540"/>
      <point x="215" y="236"/>
      <point x="313" y="-68" type="curve"/>
      <point x="459" y="-68"/>
      <point x="313" y="-68"/>
    </contour>
  </outline>
</glyph>
<glyph name="bracketright" format="1">
  <advance width="275"/>
  <unicode hex="005D"/>
  <outline>
    <contour>
      <point x="41" y="650" type="curve"/>
      <point x="79" y="650"/>
      <point x="117" y="650"/>
      <point x="155" y="650" type="curve"/>
      <point x="143" y="662"/>
      <point x="123" y="663"/>
      <point x="111" y="675" type="curve"/>
      <point x="100" y="687"/>
      <point x="91" y="702"/>
      <point x="80" y="715" type="curve"/>
      <point x="80" y="456"/>
      <point x="79" y="199"/>
      <point x="80" y="-60" type="curve"/>
      <point x="91" y="-46"/>
      <point x="103" y="-35"/>
      <point x="115" y="-22" type="curve"/>
      <point x="126" y="-9"/>
      <point x="145" y="-6"/>
      <point x="156" y="7" type="curve"/>
      <point x="118" y="7"/>
      <point x="79" y="7"/>
      <point x="41" y="7" type="curve"/>
      <point x="40" y="-113"/>
      <point x="41" y="7"/>
      <point x="40" y="-113" type="curve"/>
      <point x="79" y="-113"/>
      <point x="118" y="-113"/>
      <point x="156" y="-113" type="curve"/>
      <point x="220" y="-113"/>
      <point x="156" y="-113"/>
      <point x="220" y="-113" type="curve"/>
      <point x="220" y="-60"/>
      <point x="220" y="-113"/>
      <point x="220" y="-60" type="curve"/>
      <point x="219" y="199"/>
      <point x="220" y="456"/>
      <point x="220" y="715" type="curve"/>
      <point x="220" y="769"/>
      <point x="220" y="715"/>
      <point x="220" y="769" type="curve"/>
      <point x="155" y="769"/>
      <point x="220" y="769"/>
      <point x="155" y="769" type="curve"/>
      <point x="117" y="769"/>
      <point x="79" y="769"/>
      <point x="41" y="769" type="curve"/>
      <point x="41" y="650"/>
      <point x="41" y="769"/>
    </contour>
  </outline>
</glyph>
<glyph name="asciicircum" format="1">
  <advance width="460"/>
  <unicode hex="005E"/>
  <outline>
    <contour>
      <point x="169" y="453" type="curve"/>
      <point x="212" y="555"/>
      <point x="256" y="655"/>
      <point x="300" y="755" type="curve"/>
      <point x="160" y="755"/>
      <point x="300" y="755"/>
      <point x="160" y="755" type="curve"/>
      <point x="116" y="655"/>
      <point x="72" y="555"/>
      <point x="29" y="453" type="curve"/>
      <point x="169" y="453"/>
      <point x="29" y="453"/>
    </contour>
    <contour>
      <point x="431" y="453" type="curve"/>
      <point x="388" y="553"/>
      <point x="343" y="655"/>
      <point x="300" y="755" type="curve"/>
      <point x="160" y="755"/>
      <point x="300" y="755"/>
      <point x="160" y="755" type="curve"/>
      <point x="202" y="655"/>
      <point x="247" y="553"/>
      <point x="290" y="453" type="curve"/>
      <point x="431" y="453"/>
      <point x="290" y="453"/>
    </contour>
  </outline>
</glyph>
<glyph name="underscore" format="1">
  <advance width="510"/>
  <unicode hex="005F"/>
  <outline>
    <contour>
      <point x="0" y="-184" type="curve"/>
      <point x="170" y="-184"/>
      <point x="340" y="-184"/>
      <point x="510" y="-184" type="curve"/>
      <point x="510" y="-74"/>
      <point x="510" y="-184"/>
      <point x="510" y="-74" type="curve"/>
      <point x="340" y="-74"/>
      <point x="170" y="-74"/>
      <point x="0" y="-74" type="curve"/>
      <point x="0" y="-184"/>
      <point x="0" y="-74"/>
    </contour>
  </outline>
</glyph>
<glyph name="grave" format="1">
  <advance width="377"/>
  <unicode hex="0060"/>
  <outline>
    <contour>
      <point x="264" y="591" type="line"/>
      <point x="181" y="757" type="line"/>
      <point x="9" y="757" type="line"/>
      <point x="132" y="591" type="line"/>
    </contour>
    <contour>
      <point x="197" y="590" type="move" name="_top"/>
    </contour>
  </outline>
</glyph>
<glyph name="a" format="1">
  <advance width="480"/>
  <unicode hex="0061"/>
  <outline>
    <contour>
      <point x="429" y="0" type="curve"/>
      <point x="429" y="123"/>
      <point x="429" y="247"/>
      <point x="429" y="370" type="curve"/>
      <point x="429" y="488"/>
      <point x="351" y="538"/>
      <point x="237" y="538" type="curve"/>
      <point x="154" y="538"/>
      <point x="95" y="505"/>
      <point x="53" y="461" type="curve"/>
      <point x="106" y="370"/>
      <point x="53" y="461"/>
      <point x="106" y="370" type="curve"/>
      <point x="132" y="396"/>
      <point x="165" y="425"/>
      <point x="217" y="425" type="curve"/>
      <point x="263" y="425"/>
      <point x="288" y="398"/>
      <point x="288" y="353" type="curve"/>
      <point x="288" y="235"/>
      <point x="288" y="117"/>
      <point x="288" y="0" type="curve"/>
      <point x="429" y="0"/>
      <point x="288" y="0"/>
    </contour>
    <contour>
      <point x="355" y="349" type="curve"/>
      <point x="297" y="340"/>
      <point x="262" y="338"/>
      <point x="206" y="329" type="curve"/>
      <point x="97" y="312"/>
      <point x="26" y="268"/>
      <point x="26" y="165" type="curve"/>
      <point x="26" y="58"/>
      <point x="82" y="-5"/>
      <point x="188" y="-5" type="curve"/>
      <point x="292" y="-5"/>
      <point x="332" y="83"/>
      <point x="394" y="153" type="curve"/>
      <point x="323" y="213"/>
      <point x="394" y="153"/>
      <point x="323" y="213" type="curve"/>
      <point x="298" y="154"/>
      <point x="278" y="103"/>
      <point x="221" y="103" type="curve"/>
      <point x="178" y="103"/>
      <point x="161" y="128"/>
      <point x="161" y="170" type="curve"/>
      <point x="161" y="202"/>
      <point x="184" y="228"/>
      <point x="209" y="232" type="curve"/>
      <point x="272" y="242"/>
      <point x="298" y="247"/>
      <point x="361" y="257" type="curve"/>
      <point x="355" y="349"/>
      <point x="361" y="257"/>
    </contour>
    <contour>
      <point x="240" y="611" type="move" name="top"/>
    </contour>
    <contour>
      <point x="426" y="4" type="move" name="bottom"/>
    </contour>
  </outline>
</glyph>
<glyph name="b" format="1">
  <advance width="541"/>
  <unicode hex="0062"/>
  <outline>
    <contour>
      <point x="162" y="350" type="curve"/>
      <point x="185" y="380"/>
      <point x="225" y="425"/>
      <point x="281" y="425" type="curve"/>
      <point x="354" y="425"/>
      <point x="369" y="347"/>
      <point x="369" y="261" type="curve"/>
      <point x="370" y="179"/>
      <point x="352" y="108"/>
      <point x="283" y="108" type="curve"/>
      <point x="236" y="108"/>
      <point x="203" y="129"/>
      <point x="172" y="164" type="curve"/>
      <point x="101" y="117"/>
      <point x="172" y="164"/>
      <point x="101" y="117" type="curve"/>
      <point x="148" y="47"/>
      <point x="203" y="-5"/>
      <point x="297" y="-5" type="curve"/>
      <point x="433" y="-5"/>
      <point x="509" y="112"/>
      <point x="509" y="267" type="curve"/>
      <point x="509" y="421"/>
      <point x="435" y="538"/>
      <point x="300" y="538" type="curve"/>
      <point x="204" y="538"/>
      <point x="143" y="464"/>
      <point x="103" y="397" type="curve"/>
      <point x="162" y="350"/>
      <point x="103" y="397"/>
    </contour>
    <contour>
      <point x="195" y="0" type="curve"/>
      <point x="195" y="267"/>
      <point x="195" y="533"/>
      <point x="195" y="800" type="curve"/>
      <point x="54" y="800"/>
      <point x="195" y="800"/>
      <point x="54" y="800" type="curve"/>
      <point x="54" y="533"/>
      <point x="54" y="267"/>
      <point x="54" y="0" type="curve"/>
      <point x="195" y="0"/>
      <point x="54" y="0"/>
    </contour>
  </outline>
</glyph>
<glyph name="f" format="1">
  <advance width="359"/>
  <unicode hex="0066"/>
  <outline>
    <contour>
      <point x="23" y="425" type="curve"/>
      <point x="338" y="425" type="line"/>
      <point x="338" y="533"/>
      <point x="338" y="425"/>
      <point x="338" y="533" type="curve"/>
      <point x="23" y="533" type="line"/>
      <point x="23" y="425"/>
      <point x="23" y="533"/>
    </contour>
    <contour>
      <point x="231" y="0" type="curve"/>
      <point x="231" y="605" type="line"/>
      <point x="231" y="654"/>
      <point x="229" y="701"/>
      <point x="273" y="701" type="curve"/>
      <point x="291" y="701"/>
      <point x="307" y="692"/>
      <point x="322" y="683" type="curve"/>
      <point x="379" y="769"/>
      <point x="322" y="683"/>
      <point x="379" y="769" type="curve"/>
      <point x="348" y="790"/>
      <point x="311" y="805"/>
      <point x="273" y="805" type="curve"/>
      <point x="157" y="805"/>
      <point x="90" y="723"/>
      <point x="91" y="605" type="curve"/>
      <point x="91" y="0" type="line"/>
      <point x="231" y="0"/>
      <point x="91" y="0"/>
    </contour>
  </outline>
</glyph>
<glyph name="g" format="1">
  <advance width="491"/>
  <unicode hex="0067"/>
  <outline>
    <contour>
      <point x="348" y="427" type="curve"/>
      <point x="459" y="484" type="line"/>
      <point x="402" y="583" type="line"/>
      <point x="271" y="514" type="line"/>
      <point x="348" y="427"/>
      <point x="271" y="514"/>
    </contour>
    <contour>
      <point x="187" y="336" type="curve"/>
      <point x="187" y="385"/>
      <point x="204" y="429"/>
      <point x="248" y="429" type="curve"/>
      <point x="292" y="429"/>
      <point x="306" y="384"/>
      <point x="306" y="335" type="curve"/>
      <point x="306" y="290"/>
      <point x="291" y="249"/>
      <point x="248" y="249" type="curve"/>
      <point x="207" y="249"/>
      <point x="187" y="289"/>
      <point x="187" y="336" type="curve"/>
      <point x="46" y="331"/>
      <point x="187" y="336"/>
      <point x="46" y="331" type="curve"/>
      <point x="46" y="217"/>
      <point x="125" y="141"/>
      <point x="242" y="141" type="curve"/>
      <point x="362" y="141"/>
      <point x="446" y="219"/>
      <point x="446" y="339" type="curve"/>
      <point x="446" y="457"/>
      <point x="366" y="537"/>
      <point x="248" y="537" type="curve"/>
      <point x="125" y="537"/>
      <point x="46" y="453"/>
      <point x="46" y="331" type="curve"/>
      <point x="187" y="336"/>
      <point x="46" y="331"/>
    </contour>
    <contour>
      <point x="140" y="246" type="curve"/>
      <point x="87" y="213"/>
      <point x="49" y="174"/>
      <point x="49" y="112" type="curve"/>
      <point x="49" y="18"/>
      <point x="130" y="-24"/>
      <point x="231" y="-34" type="curve"/>
      <point x="295" y="-40"/>
      <point x="354" y="-56"/>
      <point x="354" y="-120" type="curve"/>
      <point x="354" y="-174"/>
      <point x="305" y="-197"/>
      <point x="247" y="-197" type="curve"/>
      <point x="192" y="-197"/>
      <point x="154" y="-161"/>
      <point x="154" y="-105" type="curve"/>
      <point x="154" y="-57"/>
      <point x="167" y="-15"/>
      <point x="206" y="3" type="curve"/>
      <point x="135" y="68"/>
      <point x="206" y="3"/>
      <point x="135" y="68" type="curve"/>
      <point x="61" y="33"/>
      <point x="13" y="-24"/>
      <point x="13" y="-110" type="curve"/>
      <point x="13" y="-235"/>
      <point x="110" y="-305"/>
      <point x="241" y="-305" type="curve"/>
      <point x="376" y="-305"/>
      <point x="483" y="-237"/>
      <point x="481" y="-109" type="curve"/>
      <point x="481" y="10"/>
      <point x="379" y="59"/>
      <point x="256" y="70" type="curve"/>
      <point x="220" y="73"/>
      <point x="190" y="88"/>
      <point x="190" y="123" type="curve"/>
      <point x="190" y="146"/>
      <point x="196" y="160"/>
      <point x="213" y="175" type="curve"/>
      <point x="140" y="246"/>
      <point x="213" y="175"/>
    </contour>
    <contour>
      <point x="246" y="611" type="move" name="top"/>
    </contour>
  </outline>
</glyph>
<glyph name="h" format="1">
  <advance width="523"/>
  <unicode hex="0068"/>
  <outline>
    <contour>
      <point x="163" y="302" type="curve"/>
      <point x="182" y="362"/>
      <point x="215" y="425"/>
      <point x="272" y="425" type="curve"/>
      <point x="331" y="425"/>
      <point x="333" y="372"/>
      <point x="333" y="309" type="curve"/>
      <point x="333" y="205"/>
      <point x="333" y="103"/>
      <point x="333" y="0" type="curve"/>
      <point x="473" y="0"/>
      <point x="333" y="0"/>
      <point x="473" y="0" type="curve"/>
      <point x="473" y="106"/>
      <point x="473" y="213"/>
      <point x="473" y="320" type="curve"/>
      <point x="473" y="444"/>
      <point x="438" y="533"/>
      <point x="313" y="533" type="curve"/>
      <point x="222" y="533"/>
      <point x="151" y="455"/>
      <point x="128" y="356" type="curve"/>
      <point x="163" y="302"/>
      <point x="128" y="356"/>
    </contour>
    <contour>
      <point x="195" y="0" type="curve"/>
      <point x="195" y="267"/>
      <point x="195" y="533"/>
      <point x="195" y="800" type="curve"/>
      <point x="54" y="800"/>
      <point x="195" y="800"/>
      <point x="54" y="800" type="curve"/>
      <point x="54" y="533"/>
      <point x="54" y="267"/>
      <point x="54" y="0" type="curve"/>
      <point x="195" y="0"/>
      <point x="54" y="0"/>
    </contour>
  </outline>
</glyph>
<glyph name="i" format="1">
  <advance width="240"/>
  <unicode hex="0069"/>
  <outline>
    <contour>
      <point x="195" y="0" type="curve"/>
      <point x="195" y="178"/>
      <point x="195" y="355"/>
      <point x="195" y="533" type="curve"/>
      <point x="47" y="533"/>
      <point x="195" y="533"/>
      <point x="47" y="533" type="curve"/>
      <point x="47" y="355"/>
      <point x="47" y="178"/>
      <point x="47" y="0" type="curve"/>
      <point x="195" y="0"/>
      <point x="47" y="0"/>
    </contour>
    <contour>
      <point x="190" y="678" type="curve"/>
      <point x="190" y="725"/>
      <point x="159" y="749"/>
      <point x="116" y="749" type="curve"/>
      <point x="73" y="749"/>
      <point x="44" y="723"/>
      <point x="44" y="678" type="curve"/>
      <point x="190" y="678"/>
      <point x="44" y="678"/>
      <point x="190" y="678" type="curve"/>
      <point x="190" y="630"/>
      <point x="160" y="608"/>
      <point x="116" y="608" type="curve"/>
      <point x="72" y="608"/>
      <point x="44" y="632"/>
      <point x="44" y="678" type="curve"/>
      <point x="190" y="678"/>
      <point x="44" y="678"/>
    </contour>
    <contour>
      <point x="116" y="612" type="move" name="top"/>
    </contour>
    <contour>
      <point x="184" y="4" type="move" name="bottom"/>
    </contour>
  </outline>
</glyph>
<glyph name="j" format="1">
  <advance width="235"/>
  <unicode hex="006A"/>
  <outline>
    <contour>
      <point x="-17" y="-304" type="curve"/>
      <point x="-9" y="-305"/>
      <point x="1" y="-305"/>
      <point x="11" y="-305" type="curve"/>
      <point x="120" y="-305"/>
      <point x="195" y="-230"/>
      <point x="195" y="-120" type="curve"/>
      <point x="195" y="98"/>
      <point x="195" y="316"/>
      <point x="195" y="534" type="curve"/>
      <point x="54" y="534"/>
      <point x="195" y="534"/>
      <point x="54" y="534" type="curve"/>
      <point x="54" y="316"/>
      <point x="54" y="98"/>
      <point x="54" y="-120" type="curve"/>
      <point x="54" y="-161"/>
      <point x="52" y="-202"/>
      <point x="17" y="-202" type="curve"/>
      <point x="12" y="-202"/>
      <point x="10" y="-202"/>
      <point x="3" y="-201" type="curve"/>
      <point x="-17" y="-304"/>
      <point x="3" y="-201"/>
    </contour>
    <contour>
      <point x="195" y="670" type="curve"/>
      <point x="195" y="718"/>
      <point x="163" y="741"/>
      <point x="121" y="741" type="curve"/>
      <point x="77" y="741"/>
      <point x="49" y="716"/>
      <point x="49" y="670" type="curve"/>
      <point x="195" y="670"/>
      <point x="49" y="670"/>
      <point x="195" y="670" type="curve"/>
      <point x="195" y="622"/>
      <point x="164" y="600"/>
      <point x="121" y="600" type="curve"/>
      <point x="76" y="600"/>
      <point x="49" y="624"/>
      <point x="49" y="670" type="curve"/>
      <point x="195" y="670"/>
      <point x="49" y="670"/>
    </contour>
  </outline>
</glyph>
<glyph name="k" format="1">
  <advance width="537"/>
  <unicode hex="006B"/>
  <outline>
    <contour>
      <point x="195" y="0" type="curve"/>
      <point x="195" y="800" type="line"/>
      <point x="54" y="800"/>
      <point x="195" y="800"/>
      <point x="54" y="800" type="curve"/>
      <point x="54" y="533"/>
      <point x="54" y="267"/>
      <point x="54" y="0" type="curve"/>
      <point x="195" y="0"/>
      <point x="54" y="0"/>
    </contour>
    <contour>
      <point x="346" y="533" type="curve"/>
      <point x="173" y="275" type="line"/>
      <point x="306" y="275"/>
      <point x="191" y="275"/>
      <point x="324" y="275" type="curve"/>
      <point x="505" y="533" type="line"/>
      <point x="392" y="533"/>
      <point x="459" y="533"/>
    </contour>
    <contour>
      <point x="524" y="0" type="curve"/>
      <point x="324" y="275" type="line"/>
      <point x="191" y="275"/>
      <point x="306" y="275"/>
      <point x="173" y="275" type="curve"/>
      <point x="366" y="0" type="line"/>
      <point x="468" y="0"/>
      <point x="422" y="0"/>
    </contour>
    <contour>
      <point x="332" y="-2" type="move" name="bottom"/>
    </contour>
  </outline>
</glyph>
<glyph name="m" format="1">
  <advance width="743"/>
  <unicode hex="006D"/>
  <outline>
    <contour>
      <point x="412" y="273" type="curve"/>
      <point x="430" y="345"/>
      <point x="444" y="425"/>
      <point x="503" y="425" type="curve"/>
      <point x="561" y="425"/>
      <point x="551" y="375"/>
      <point x="551" y="309" type="curve"/>
      <point x="551" y="205"/>
      <point x="551" y="103"/>
      <point x="551" y="0" type="curve"/>
      <point x="692" y="0"/>
      <point x="551" y="0"/>
      <point x="692" y="0" type="curve"/>
      <point x="692" y="106"/>
      <point x="692" y="213"/>
      <point x="692" y="320" type="curve"/>
      <point x="692" y="451"/>
      <point x="681" y="538"/>
      <point x="554" y="538" type="curve"/>
      <point x="460" y="538"/>
      <point x="403" y="453"/>
      <point x="376" y="337" type="curve"/>
      <point x="417" y="276"/>
      <point x="372" y="334"/>
    </contour>
    <contour>
      <point x="163" y="273" type="curve"/>
      <point x="179" y="345"/>
      <point x="195" y="425"/>
      <point x="254" y="425" type="curve"/>
      <point x="312" y="425"/>
      <point x="303" y="375"/>
      <point x="303" y="309" type="curve"/>
      <point x="303" y="205"/>
      <point x="303" y="103"/>
      <point x="303" y="0" type="curve"/>
      <point x="443" y="0"/>
      <point x="303" y="0"/>
      <point x="443" y="0" type="curve"/>
      <point x="443" y="106"/>
      <point x="443" y="213"/>
      <point x="443" y="320" type="curve"/>
      <point x="443" y="451"/>
      <point x="432" y="538"/>
      <point x="305" y="538" type="curve"/>
      <point x="210" y="538"/>
      <point x="156" y="454"/>
      <point x="128" y="337" type="curve"/>
      <point x="168" y="276"/>
      <point x="123" y="334"/>
    </contour>
    <contour>
      <point x="195" y="0" type="curve"/>
      <point x="195" y="178"/>
      <point x="195" y="355"/>
      <point x="195" y="533" type="curve"/>
      <point x="54" y="533"/>
      <point x="195" y="533"/>
      <point x="54" y="533" type="curve"/>
      <point x="54" y="355"/>
      <point x="54" y="178"/>
      <point x="54" y="0" type="curve"/>
      <point x="195" y="0"/>
      <point x="54" y="0"/>
    </contour>
  </outline>
</glyph>
<glyph name="p" format="1">
  <advance width="545"/>
  <unicode hex="0070"/>
  <outline>
    <contour>
      <point x="165" y="298" type="curve"/>
      <point x="180" y="360"/>
      <point x="224" y="426"/>
      <point x="275" y="426" type="curve"/>
      <point x="362" y="426"/>
      <point x="372" y="347"/>
      <point x="372" y="261" type="curve"/>
      <point x="373" y="178"/>
      <point x="360" y="103"/>
      <point x="279" y="103" type="curve"/>
      <point x="232" y="103"/>
      <point x="199" y="125"/>
      <point x="169" y="161" type="curve"/>
      <point x="121" y="102"/>
      <point x="169" y="161"/>
      <point x="121" y="102" type="curve"/>
      <point x="171" y="33"/>
      <point x="227" y="-5"/>
      <point x="309" y="-5" type="curve"/>
      <point x="458" y="-5"/>
      <point x="512" y="119"/>
      <point x="512" y="267" type="curve"/>
      <point x="512" y="413"/>
      <point x="460" y="539"/>
      <point x="309" y="539" type="curve"/>
      <point x="226" y="539"/>
      <point x="162" y="464"/>
      <point x="128" y="387" type="curve"/>
      <point x="162" y="297"/>
      <point x="131" y="388"/>
    </contour>
    <contour>
      <point x="195" y="-300" type="curve"/>
      <point x="195" y="-22"/>
      <point x="195" y="255"/>
      <point x="195" y="533" type="curve"/>
      <point x="54" y="533"/>
      <point x="195" y="533"/>
      <point x="54" y="533" type="curve"/>
      <point x="54" y="255"/>
      <point x="54" y="-22"/>
      <point x="54" y="-300" type="curve"/>
      <point x="195" y="-300"/>
      <point x="54" y="-300"/>
    </contour>
  </outline>
</glyph>
<glyph name="q" format="1">
  <advance width="548"/>
  <unicode hex="0071"/>
  <outline>
    <contour>
      <point x="422" y="396" type="curve"/>
      <point x="385" y="480"/>
      <point x="319" y="538"/>
      <point x="237" y="538" type="curve"/>
      <point x="84" y="538"/>
      <point x="31" y="414"/>
      <point x="32" y="265" type="curve"/>
      <point x="32" y="115"/>
      <point x="91" y="-5"/>
      <point x="242" y="-5" type="curve"/>
      <point x="319" y="-5"/>
      <point x="381" y="54"/>
      <point x="420" y="124" type="curve"/>
      <point x="379" y="184"/>
      <point x="420" y="124"/>
      <point x="379" y="184" type="curve"/>
      <point x="353" y="139"/>
      <point x="315" y="103"/>
      <point x="265" y="103" type="curve"/>
      <point x="187" y="103"/>
      <point x="172" y="183"/>
      <point x="172" y="271" type="curve"/>
      <point x="172" y="352"/>
      <point x="190" y="426"/>
      <point x="263" y="426" type="curve"/>
      <point x="309" y="426"/>
      <point x="343" y="405"/>
      <point x="384" y="337" type="curve"/>
      <point x="412" y="401"/>
      <point x="394" y="332"/>
    </contour>
    <contour>
      <point x="494" y="-300" type="curve"/>
      <point x="494" y="-22"/>
      <point x="494" y="255"/>
      <point x="494" y="533" type="curve"/>
      <point x="347" y="533"/>
      <point x="494" y="533"/>
      <point x="347" y="533" type="curve"/>
      <point x="347" y="255"/>
      <point x="347" y="-22"/>
      <point x="347" y="-300" type="curve"/>
      <point x="494" y="-300"/>
      <point x="347" y="-300"/>
    </contour>
  </outline>
</glyph>
<glyph name="r" format="1">
  <advance width="332"/>
  <unicode hex="0072"/>
  <outline>
    <contour>
      <point x="195" y="0" type="curve"/>
      <point x="195" y="178"/>
      <point x="195" y="355"/>
      <point x="195" y="533" type="curve"/>
      <point x="54" y="533"/>
      <point x="195" y="533"/>
      <point x="54" y="533" type="curve"/>
      <point x="54" y="355"/>
      <point x="54" y="178"/>
      <point x="54" y="0" type="curve"/>
      <point x="195" y="0"/>
      <point x="54" y="0"/>
    </contour>
    <contour>
      <point x="165" y="286" type="curve"/>
      <point x="196" y="401"/>
      <point x="254" y="425"/>
      <point x="321" y="425" type="curve"/>
      <point x="321" y="538"/>
      <point x="321" y="425"/>
      <point x="321" y="538" type="curve"/>
      <point x="223" y="538"/>
      <point x="151" y="449"/>
      <point x="115" y="337" type="curve"/>
      <point x="162" y="284"/>
      <point x="118" y="339"/>
    </contour>
    <contour>
      <point x="136" y="611" type="move" name="top"/>
    </contour>
    <contour>
      <point x="189" y="0" type="move" name="bottom"/>
    </contour>
  </outline>
</glyph>
<glyph name="s" format="1">
  <advance width="406"/>
  <unicode hex="0073"/>
  <outline>
    <contour>
      <point x="27" y="47" type="curve"/>
      <point x="83" y="15"/>
      <point x="137" y="-5"/>
      <point x="197" y="-5" type="curve"/>
      <point x="311" y="-5"/>
      <point x="386" y="51"/>
      <point x="386" y="161" type="curve"/>
      <point x="385" y="258"/>
      <point x="315" y="292"/>
      <point x="220" y="326" type="curve" smooth="yes"/>
      <point x="185" y="339"/>
      <point x="159" y="357"/>
      <point x="159" y="389" type="curve"/>
      <point x="159" y="408"/>
      <point x="172" y="425"/>
      <point x="198" y="425" type="curve"/>
      <point x="227" y="425"/>
      <point x="261" y="409"/>
      <point x="280" y="395" type="curve"/>
      <point x="344" y="493"/>
      <point x="280" y="395"/>
      <point x="344" y="493" type="curve"/>
      <point x="312" y="516"/>
      <point x="251" y="538"/>
      <point x="201" y="538" type="curve"/>
      <point x="97" y="538"/>
      <point x="31" y="487"/>
      <point x="31" y="389" type="curve"/>
      <point x="31" y="298"/>
      <point x="86" y="254"/>
      <point x="175" y="223" type="curve" smooth="yes"/>
      <point x="217" y="209"/>
      <point x="252" y="191"/>
      <point x="252" y="153" type="curve"/>
      <point x="252" y="127"/>
      <point x="231" y="112"/>
      <point x="206" y="112" type="curve"/>
      <point x="166" y="112"/>
      <point x="133" y="124"/>
      <point x="98" y="144" type="curve"/>
      <point x="27" y="47"/>
      <point x="98" y="144"/>
    </contour>
    <contour>
      <point x="203" y="611" type="move" name="top"/>
    </contour>
    <contour>
      <point x="246" y="1" type="move" name="bottom"/>
    </contour>
  </outline>
</glyph>
<glyph name="t" format="1">
  <advance width="343"/>
  <unicode hex="0074"/>
  <outline>
    <contour>
      <point x="30" y="423" type="curve"/>
      <point x="323" y="423" type="line"/>
      <point x="323" y="532"/>
      <point x="323" y="423"/>
      <point x="323" y="532" type="curve"/>
      <point x="30" y="532" type="line"/>
      <point x="30" y="423"/>
      <point x="30" y="532"/>
    </contour>
    <contour>
      <point x="280" y="123" type="curve"/>
      <point x="268" y="113"/>
      <point x="260" y="108"/>
      <point x="245" y="108" type="curve"/>
      <point x="214" y="108"/>
      <point x="216" y="139"/>
      <point x="216" y="174" type="curve"/>
      <point x="216" y="680" type="line"/>
      <point x="75" y="592"/>
      <point x="215" y="680"/>
      <point x="75" y="591" type="curve"/>
      <point x="75" y="169" type="line"/>
      <point x="75" y="60"/>
      <point x="124" y="-6"/>
      <point x="225" y="-6" type="curve"/>
      <point x="268" y="-6"/>
      <point x="298" y="8"/>
      <point x="337" y="31" type="curve"/>
      <point x="280" y="123"/>
      <point x="337" y="31"/>
    </contour>
    <contour>
      <point x="276" y="5" type="move" name="bottom"/>
    </contour>
  </outline>
</glyph>
<glyph name="v" format="1">
  <advance width="503"/>
  <unicode hex="0076"/>
  <outline>
    <contour>
      <point x="11" y="533" type="curve"/>
      <point x="63" y="355"/>
      <point x="115" y="178"/>
      <point x="167" y="0" type="curve"/>
      <point x="298" y="0"/>
      <point x="167" y="0"/>
      <point x="298" y="0" type="curve"/>
      <point x="247" y="177"/>
      <point x="205" y="356"/>
      <point x="154" y="533" type="curve"/>
      <point x="11" y="533"/>
      <point x="154" y="533"/>
    </contour>
    <contour>
      <point x="354" y="533" type="curve"/>
      <point x="200" y="0" type="line"/>
      <point x="331" y="0"/>
      <point x="200" y="0"/>
      <point x="331" y="0" type="curve"/>
      <point x="386" y="178"/>
      <point x="440" y="355"/>
      <point x="495" y="533" type="curve"/>
      <point x="354" y="533"/>
      <point x="495" y="533"/>
    </contour>
  </outline>
</glyph>
<glyph name="w" format="1">
  <advance width="713"/>
  <unicode hex="0077"/>
  <outline>
    <contour>
      <point x="268" y="0" type="curve"/>
      <point x="319" y="178"/>
      <point x="370" y="355"/>
      <point x="420" y="533" type="curve"/>
      <point x="299" y="533"/>
      <point x="420" y="533"/>
      <point x="299" y="533" type="curve"/>
      <point x="249" y="355"/>
      <point x="199" y="178"/>
      <point x="149" y="0" type="curve"/>
      <point x="268" y="0"/>
      <point x="149" y="0"/>
    </contour>
    <contour>
      <point x="582" y="533" type="curve"/>
      <point x="535" y="355"/>
      <point x="488" y="178"/>
      <point x="442" y="0" type="curve"/>
      <point x="560" y="0"/>
      <point x="442" y="0"/>
      <point x="560" y="0" type="curve"/>
      <point x="608" y="178"/>
      <point x="656" y="355"/>
      <point x="703" y="533" type="curve"/>
      <point x="582" y="533"/>
      <point x="703" y="533"/>
    </contour>
    <contour>
      <point x="304" y="533" type="curve"/>
      <point x="349" y="355"/>
      <point x="395" y="178"/>
      <point x="441" y="0" type="curve"/>
      <point x="560" y="0"/>
      <point x="441" y="0"/>
      <point x="560" y="0" type="curve"/>
      <point x="515" y="178"/>
      <point x="469" y="355"/>
      <point x="424" y="533" type="curve"/>
      <point x="304" y="533"/>
      <point x="424" y="533"/>
    </contour>
    <contour>
      <point x="12" y="533" type="curve"/>
      <point x="57" y="355"/>
      <point x="103" y="178"/>
      <point x="149" y="0" type="curve"/>
      <point x="267" y="0"/>
      <point x="149" y="0"/>
      <point x="267" y="0" type="curve"/>
      <point x="222" y="178"/>
      <point x="178" y="355"/>
      <point x="133" y="533" type="curve"/>
      <point x="12" y="533"/>
      <point x="133" y="533"/>
    </contour>
  </outline>
</glyph>
<glyph name="x" format="1">
  <advance width="507"/>
  <unicode hex="0078"/>
  <outline>
    <contour>
      <point x="498" y="0" type="curve"/>
      <point x="496" y="4"/>
      <point x="153" y="529"/>
      <point x="151" y="533" type="curve"/>
      <point x="6" y="533"/>
      <point x="151" y="533"/>
      <point x="6" y="533" type="curve"/>
      <point x="8" y="529"/>
      <point x="350" y="4"/>
      <point x="352" y="0" type="curve"/>
      <point x="498" y="0"/>
      <point x="352" y="0"/>
    </contour>
    <contour>
      <point x="361" y="533" type="curve"/>
      <point x="359" y="529"/>
      <point x="11" y="4"/>
      <point x="9" y="0" type="curve"/>
      <point x="153" y="0"/>
      <point x="9" y="0"/>
      <point x="153" y="0" type="curve"/>
      <point x="155" y="4"/>
      <point x="501" y="529"/>
      <point x="503" y="533" type="curve"/>
      <point x="361" y="533"/>
      <point x="503" y="533"/>
    </contour>
  </outline>
</glyph>
<glyph name="y" format="1">
  <advance width="531"/>
  <unicode hex="0079"/>
  <outline>
    <contour>
      <point x="327" y="-23" type="curve"/>
      <point x="268" y="159"/>
      <point x="209" y="350"/>
      <point x="150" y="533" type="curve"/>
      <point x="6" y="533"/>
      <point x="150" y="533"/>
      <point x="6" y="533" type="curve"/>
      <point x="70" y="352"/>
      <point x="133" y="158"/>
      <point x="197" y="-24" type="curve"/>
      <point x="327" y="-24"/>
      <point x="197" y="-23"/>
    </contour>
    <contour>
      <point x="228" y="-300" type="curve"/>
      <point x="327" y="-28"/>
      <point x="432" y="261"/>
      <point x="531" y="533" type="curve"/>
      <point x="388" y="533"/>
      <point x="531" y="533"/>
      <point x="388" y="533" type="curve"/>
      <point x="288" y="261"/>
      <point x="183" y="-28"/>
      <point x="84" y="-300" type="curve"/>
      <point x="228" y="-300"/>
      <point x="84" y="-300"/>
    </contour>
    <contour>
      <point x="264" y="611" type="move" name="top"/>
    </contour>
  </outline>
</glyph>
<glyph name="braceleft" format="1">
  <advance width="251"/>
  <unicode hex="007B"/>
  <outline>
    <contour>
      <point x="208" y="0" type="curve"/>
      <point x="178" y="0"/>
      <point x="185" y="32"/>
      <point x="185" y="65" type="curve"/>
      <point x="185" y="116"/>
      <point x="185" y="168"/>
      <point x="185" y="219" type="curve"/>
      <point x="185" y="322"/>
      <point x="132" y="398"/>
      <point x="35" y="398" type="curve"/>
      <point x="35" y="284"/>
      <point x="35" y="398"/>
      <point x="35" y="284" type="curve"/>
      <point x="59" y="284"/>
      <point x="57" y="257"/>
      <point x="57" y="230" type="curve"/>
      <point x="57" y="176"/>
      <point x="57" y="123"/>
      <point x="57" y="71" type="curve"/>
      <point x="57" y="-34"/>
      <point x="108" y="-108"/>
      <point x="208" y="-108" type="curve"/>
      <point x="208" y="0"/>
      <point x="208" y="-108"/>
    </contour>
    <contour>
      <point x="208" y="790" type="curve"/>
      <point x="108" y="790"/>
      <point x="57" y="718"/>
      <point x="57" y="615" type="curve"/>
      <point x="57" y="560"/>
      <point x="57" y="505"/>
      <point x="57" y="449" type="curve"/>
      <point x="57" y="423"/>
      <point x="58" y="398"/>
      <point x="35" y="398" type="curve"/>
      <point x="35" y="284"/>
      <point x="35" y="398"/>
      <point x="35" y="284" type="curve"/>
      <point x="133" y="284"/>
      <point x="185" y="360"/>
      <point x="185" y="466" type="curve"/>
      <point x="185" y="515"/>
      <point x="185" y="565"/>
      <point x="185" y="615" type="curve"/>
      <point x="185" y="648"/>
      <point x="177" y="681"/>
      <point x="208" y="681" type="curve"/>
      <point x="208" y="790"/>
      <point x="208" y="681"/>
    </contour>
  </outline>
</glyph>
<glyph name="braceright" format="1">
  <advance width="251"/>
  <unicode hex="007D"/>
  <outline>
    <contour>
      <point x="41" y="-108" type="curve"/>
      <point x="140" y="-108"/>
      <point x="192" y="-34"/>
      <point x="192" y="71" type="curve"/>
      <point x="192" y="123"/>
      <point x="192" y="176"/>
      <point x="192" y="230" type="curve"/>
      <point x="192" y="257"/>
      <point x="189" y="284"/>
      <point x="214" y="284" type="curve"/>
      <point x="214" y="398"/>
      <point x="214" y="284"/>
      <point x="214" y="398" type="curve"/>
      <point x="116" y="398"/>
      <point x="64" y="322"/>
      <point x="64" y="219" type="curve"/>
      <point x="64" y="168"/>
      <point x="64" y="116"/>
      <point x="64" y="65" type="curve"/>
      <point x="64" y="32"/>
      <point x="70" y="0"/>
      <point x="41" y="0" type="curve"/>
      <point x="41" y="-108"/>
      <point x="41" y="0"/>
    </contour>
    <contour>
      <point x="41" y="681" type="curve"/>
      <point x="71" y="681"/>
      <point x="64" y="648"/>
      <point x="64" y="615" type="curve"/>
      <point x="64" y="565"/>
      <point x="64" y="515"/>
      <point x="64" y="466" type="curve"/>
      <point x="64" y="360"/>
      <point x="115" y="284"/>
      <point x="214" y="284" type="curve"/>
      <point x="214" y="398"/>
      <point x="214" y="284"/>
      <point x="214" y="398" type="curve"/>
      <point x="190" y="398"/>
      <point x="192" y="423"/>
      <point x="192" y="449" type="curve"/>
      <point x="192" y="505"/>
      <point x="192" y="560"/>
      <point x="192" y="615" type="curve"/>
      <point x="192" y="718"/>
      <point x="140" y="790"/>
      <point x="41" y="790" type="curve"/>
      <point x="41" y="681"/>
      <point x="41" y="790"/>
    </contour>
  </outline>
</glyph>
<glyph name="asciitilde" format="1">
  <advance width="563"/>
  <unicode hex="007E"/>
  <outline>
    <contour>
      <point x="410" y="379" type="curve"/>
      <point x="400" y="343"/>
      <point x="387" y="309"/>
      <point x="367" y="309" type="curve"/>
      <point x="349" y="309"/>
      <point x="339" y="316"/>
      <point x="327" y="328" type="curve"/>
      <point x="286" y="370"/>
      <point x="257" y="392"/>
      <point x="198" y="392" type="curve"/>
      <point x="104" y="392"/>
      <point x="62" y="336"/>
      <point x="40" y="242" type="curve"/>
      <point x="85" y="227"/>
      <point x="109" y="218"/>
      <point x="153" y="203" type="curve"/>
      <point x="161" y="242"/>
      <point x="174" y="276"/>
      <point x="196" y="276" type="curve"/>
      <point x="215" y="276"/>
      <point x="224" y="269"/>
      <point x="238" y="255" type="curve"/>
      <point x="280" y="214"/>
      <point x="310" y="194"/>
      <point x="369" y="193" type="curve"/>
      <point x="460" y="193"/>
      <point x="495" y="253"/>
      <point x="522" y="344" type="curve"/>
      <point x="478" y="358"/>
      <point x="454" y="365"/>
    </contour>
  </outline>
</glyph>
<glyph name="exclamdown" format="1">
  <advance width="251"/>
  <unicode hex="00A1"/>
  <outline>
    <contour>
      <point x="58" y="301" type="line"/>
      <point x="46" y="-192" type="line"/>
      <point x="206" y="-193" type="line"/>
      <point x="198" y="300" type="line"/>
    </contour>
    <contour>
      <point x="56" y="469" type="curve"/>
      <point x="56" y="422"/>
      <point x="87" y="398"/>
      <point x="129" y="397" type="curve"/>
      <point x="173" y="397"/>
      <point x="202" y="423"/>
      <point x="202" y="468" type="curve"/>
      <point x="56" y="469"/>
      <point x="202" y="468"/>
      <point x="56" y="469" type="curve"/>
      <point x="56" y="517"/>
      <point x="87" y="539"/>
      <point x="130" y="538" type="curve"/>
      <point x="175" y="538"/>
      <point x="202" y="514"/>
      <point x="202" y="468" type="curve"/>
      <point x="56" y="469"/>
      <point x="202" y="468"/>
    </contour>
  </outline>
</glyph>
<glyph name="cent" format="1">
  <advance width="533"/>
  <unicode hex="00A2"/>
  <outline>
    <contour>
      <point x="360" y="-53" type="curve"/>
      <point x="360" y="-13"/>
      <point x="360" y="27"/>
      <point x="360" y="67" type="curve"/>
      <point x="219" y="67"/>
      <point x="360" y="67"/>
      <point x="219" y="67" type="curve"/>
      <point x="219" y="27"/>
      <point x="219" y="-13"/>
      <point x="219" y="-53" type="curve"/>
      <point x="360" y="-53"/>
      <point x="219" y="-53"/>
    </contour>
    <contour>
      <point x="235" y="778" type="curve"/>
      <point x="235" y="742"/>
      <point x="235" y="706"/>
      <point x="235" y="670" type="curve"/>
      <point x="376" y="670"/>
      <point x="235" y="670"/>
      <point x="376" y="670" type="curve"/>
      <point x="376" y="706"/>
      <point x="376" y="742"/>
      <point x="376" y="778" type="curve"/>
      <point x="235" y="778"/>
      <point x="376" y="778"/>
    </contour>
    <contour>
      <point x="505" y="610" type="curve"/>
      <point x="444" y="667"/>
      <point x="391" y="687"/>
      <point x="314" y="687" type="curve"/>
      <point x="133" y="687"/>
      <point x="32" y="554"/>
      <point x="32" y="363" type="curve"/>
      <point x="32" y="180"/>
      <point x="114" y="45"/>
      <point x="283" y="45" type="curve"/>
      <point x="375" y="45"/>
      <point x="440" y="71"/>
      <point x="501" y="146" type="curve"/>
      <point x="417" y="227"/>
      <point x="501" y="146"/>
      <point x="417" y="227" type="curve"/>
      <point x="379" y="189"/>
      <point x="349" y="159"/>
      <point x="296" y="159" type="curve"/>
      <point x="202" y="159"/>
      <point x="172" y="255"/>
      <point x="172" y="369" type="curve"/>
      <point x="172" y="481"/>
      <point x="212" y="573"/>
      <point x="301" y="573" type="curve"/>
      <point x="352" y="573"/>
      <point x="387" y="555"/>
      <point x="426" y="520" type="curve"/>
      <point x="505" y="610"/>
      <point x="426" y="520"/>
    </contour>
  </outline>
</glyph>
<glyph name="sterling" format="1">
  <advance width="406"/>
  <unicode hex="00A3"/>
  <outline>
    <contour>
      <point x="350" y="109" type="curve"/>
      <point x="250" y="109"/>
      <point x="140" y="109"/>
      <point x="41" y="109" type="curve"/>
      <point x="41" y="0"/>
      <point x="41" y="109"/>
      <point x="41" y="0" type="curve"/>
      <point x="140" y="0"/>
      <point x="249" y="0"/>
      <point x="350" y="0" type="curve"/>
      <point x="350" y="109"/>
      <point x="350" y="0"/>
    </contour>
    <contour>
      <point x="307" y="429" type="curve"/>
      <point x="226" y="429"/>
      <point x="136" y="429"/>
      <point x="56" y="429" type="curve"/>
      <point x="56" y="321"/>
      <point x="56" y="429"/>
      <point x="56" y="321" type="curve"/>
      <point x="136" y="321"/>
      <point x="226" y="321"/>
      <point x="307" y="321" type="curve"/>
      <point x="307" y="429"/>
      <point x="307" y="321"/>
    </contour>
    <contour>
      <point x="381" y="660" type="curve"/>
      <point x="341" y="707"/>
      <point x="304" y="720"/>
      <point x="252" y="720" type="curve"/>
      <point x="93" y="720"/>
      <point x="58" y="557"/>
      <point x="92" y="362" type="curve"/>
      <point x="114" y="233"/>
      <point x="112" y="109"/>
      <point x="41" y="109" type="curve"/>
      <point x="41" y="0"/>
      <point x="41" y="109"/>
      <point x="41" y="0" type="curve"/>
      <point x="214" y="0"/>
      <point x="251" y="177"/>
      <point x="216" y="386" type="curve"/>
      <point x="196" y="503"/>
      <point x="188" y="617"/>
      <point x="245" y="617" type="curve"/>
      <point x="273" y="617"/>
      <point x="289" y="600"/>
      <point x="310" y="581" type="curve"/>
      <point x="381" y="660"/>
      <point x="310" y="581"/>
    </contour>
  </outline>
</glyph>
<glyph name="currency" format="1">
  <advance width="583"/>
  <unicode hex="00A4"/>
  <outline>
    <contour>
      <point x="244" y="317" type="curve"/>
      <point x="244" y="360"/>
      <point x="250" y="401"/>
      <point x="288" y="401" type="curve"/>
      <point x="328" y="401"/>
      <point x="336" y="365"/>
      <point x="336" y="318" type="curve"/>
      <point x="336" y="273"/>
      <point x="330" y="227"/>
      <point x="291" y="227" type="curve"/>
      <point x="249" y="227"/>
      <point x="244" y="269"/>
      <point x="244" y="317" type="curve"/>
      <point x="103" y="317"/>
      <point x="252" y="317"/>
      <point x="111" y="317" type="curve"/>
      <point x="111" y="198"/>
      <point x="177" y="118"/>
      <point x="292" y="118" type="curve"/>
      <point x="406" y="118"/>
      <point x="471" y="201"/>
      <point x="471" y="320" type="curve"/>
      <point x="471" y="432"/>
      <point x="409" y="509"/>
      <point x="300" y="509" type="curve"/>
      <point x="183" y="509"/>
      <point x="111" y="433"/>
      <point x="111" y="317" type="curve"/>
      <point x="252" y="317"/>
      <point x="103" y="317"/>
    </contour>
    <contour>
      <point x="380" y="339" type="line"/>
      <point x="541" y="486" type="line"/>
      <point x="441" y="585" type="line"/>
      <point x="295" y="424" type="line"/>
    </contour>
    <contour>
      <point x="301" y="212" type="line"/>
      <point x="447" y="52" type="line"/>
      <point x="547" y="151" type="line"/>
      <point x="386" y="298" type="line"/>
    </contour>
    <contour>
      <point x="197" y="297" type="line"/>
      <point x="37" y="150" type="line"/>
      <point x="136" y="51" type="line"/>
      <point x="283" y="211" type="line"/>
    </contour>
    <contour>
      <point x="291" y="425" type="line"/>
      <point x="144" y="586" type="line"/>
      <point x="45" y="487" type="line"/>
      <point x="205" y="340" type="line"/>
    </contour>
  </outline>
</glyph>
<glyph name="yen" format="1">
  <advance width="547"/>
  <unicode hex="00A5"/>
  <outline>
    <contour>
      <point x="437" y="419" type="curve"/>
      <point x="384" y="419"/>
      <point x="331" y="419"/>
      <point x="279" y="419" type="curve"/>
      <point x="279" y="299"/>
      <point x="279" y="419"/>
      <point x="279" y="299" type="curve"/>
      <point x="331" y="299"/>
      <point x="384" y="299"/>
      <point x="437" y="299" type="curve"/>
      <point x="437" y="419"/>
      <point x="437" y="299"/>
    </contour>
    <contour>
      <point x="257" y="419" type="curve"/>
      <point x="205" y="419"/>
      <point x="154" y="419"/>
      <point x="103" y="419" type="curve"/>
      <point x="103" y="299"/>
      <point x="103" y="419"/>
      <point x="103" y="299" type="curve"/>
      <point x="154" y="299"/>
      <point x="205" y="299"/>
      <point x="257" y="299" type="curve"/>
      <point x="257" y="419"/>
      <point x="257" y="299"/>
    </contour>
    <contour>
      <point x="437" y="276" type="curve"/>
      <point x="325" y="276"/>
      <point x="213" y="276"/>
      <point x="103" y="276" type="curve"/>
      <point x="103" y="156"/>
      <point x="103" y="276"/>
      <point x="103" y="156" type="curve"/>
      <point x="213" y="156"/>
      <point x="325" y="156"/>
      <point x="437" y="156" type="curve"/>
      <point x="437" y="276"/>
      <point x="437" y="156"/>
    </contour>
    <contour>
      <point x="23" y="722" type="curve"/>
      <point x="82" y="594"/>
      <point x="137" y="469"/>
      <point x="194" y="337" type="curve"/>
      <point x="336" y="337"/>
      <point x="172" y="337"/>
      <point x="315" y="337" type="curve"/>
      <point x="265" y="470"/>
      <point x="218" y="591"/>
      <point x="165" y="722" type="curve"/>
      <point x="23" y="722"/>
      <point x="165" y="722"/>
    </contour>
    <contour>
      <point x="385" y="722" type="curve"/>
      <point x="326" y="589"/>
      <point x="276" y="469"/>
      <point x="216" y="337" type="curve"/>
      <point x="359" y="337"/>
      <point x="204" y="337"/>
      <point x="347" y="337" type="curve"/>
      <point x="408" y="468"/>
      <point x="466" y="594"/>
      <point x="528" y="722" type="curve"/>
      <point x="385" y="722"/>
      <point x="528" y="722"/>
    </contour>
    <contour>
      <point x="347" y="0" type="curve"/>
      <point x="347" y="115"/>
      <point x="347" y="222"/>
      <point x="347" y="337" type="curve"/>
      <point x="194" y="337"/>
      <point x="347" y="337"/>
      <point x="194" y="337" type="curve"/>
      <point x="194" y="222"/>
      <point x="194" y="115"/>
      <point x="194" y="0" type="curve"/>
      <point x="347" y="0"/>
      <point x="194" y="0"/>
    </contour>
  </outline>
</glyph>
<glyph name="section" format="1">
  <advance width="448"/>
  <unicode hex="00A7"/>
  <outline>
    <contour>
      <point x="364" y="698" type="curve"/>
      <point x="317" y="733"/>
      <point x="282" y="748"/>
      <point x="229" y="748" type="curve"/>
      <point x="125" y="748"/>
      <point x="58" y="690"/>
      <point x="58" y="595" type="curve"/>
      <point x="58" y="511"/>
      <point x="102" y="459"/>
      <point x="181" y="427" type="curve"/>
      <point x="226" y="408"/>
      <point x="277" y="401"/>
      <point x="277" y="361" type="curve"/>
      <point x="277" y="318"/>
      <point x="252" y="290"/>
      <point x="209" y="281" type="curve"/>
      <point x="293" y="193"/>
      <point x="209" y="281"/>
      <point x="293" y="193" type="curve"/>
      <point x="375" y="216"/>
      <point x="418" y="275"/>
      <point x="418" y="361" type="curve"/>
      <point x="417" y="456"/>
      <point x="343" y="496"/>
      <point x="251" y="530" type="curve"/>
      <point x="219" y="543"/>
      <point x="190" y="561"/>
      <point x="190" y="595" type="curve"/>
      <point x="190" y="617"/>
      <point x="204" y="640"/>
      <point x="230" y="640" type="curve"/>
      <point x="262" y="640"/>
      <point x="275" y="629"/>
      <point x="298" y="612" type="curve"/>
      <point x="364" y="698"/>
      <point x="298" y="612"/>
    </contour>
    <contour>
      <point x="157" y="528" type="curve"/>
      <point x="78" y="499"/>
      <point x="32" y="449"/>
      <point x="32" y="366" type="curve"/>
      <point x="32" y="275"/>
      <point x="92" y="228"/>
      <point x="179" y="195" type="curve"/>
      <point x="217" y="179"/>
      <point x="260" y="172"/>
      <point x="260" y="132" type="curve"/>
      <point x="260" y="106"/>
      <point x="246" y="82"/>
      <point x="223" y="82" type="curve"/>
      <point x="188" y="82"/>
      <point x="171" y="97"/>
      <point x="144" y="119" type="curve"/>
      <point x="67" y="43"/>
      <point x="144" y="119"/>
      <point x="67" y="43" type="curve"/>
      <point x="115" y="-8"/>
      <point x="159" y="-26"/>
      <point x="221" y="-26" type="curve"/>
      <point x="325" y="-26"/>
      <point x="396" y="31"/>
      <point x="396" y="132" type="curve"/>
      <point x="395" y="216"/>
      <point x="348" y="268"/>
      <point x="269" y="298" type="curve"/>
      <point x="222" y="316"/>
      <point x="172" y="325"/>
      <point x="172" y="366" type="curve"/>
      <point x="172" y="405"/>
      <point x="190" y="433"/>
      <point x="227" y="446" type="curve"/>
      <point x="157" y="528"/>
      <point x="227" y="446"/>
    </contour>
  </outline>
</glyph>
<glyph name="dieresis" format="1">
  <advance width="377"/>
  <unicode hex="00A8"/>
  <outline>
    <contour>
      <point x="165" y="670" type="curve"/>
      <point x="165" y="717"/>
      <point x="134" y="741"/>
      <point x="91" y="741" type="curve"/>
      <point x="48" y="741"/>
      <point x="20" y="715"/>
      <point x="20" y="670" type="curve"/>
      <point x="165" y="670"/>
      <point x="20" y="670"/>
      <point x="165" y="670" type="curve"/>
      <point x="165" y="622"/>
      <point x="135" y="600"/>
      <point x="91" y="600" type="curve"/>
      <point x="47" y="600"/>
      <point x="20" y="624"/>
      <point x="20" y="670" type="curve"/>
      <point x="165" y="670"/>
      <point x="20" y="670"/>
    </contour>
    <contour>
      <point x="363" y="670" type="curve"/>
      <point x="363" y="717"/>
      <point x="331" y="741"/>
      <point x="289" y="741" type="curve"/>
      <point x="246" y="741"/>
      <point x="217" y="715"/>
      <point x="217" y="670" type="curve"/>
      <point x="363" y="670"/>
      <point x="217" y="670"/>
      <point x="363" y="670" type="curve"/>
      <point x="363" y="622"/>
      <point x="332" y="600"/>
      <point x="289" y="600" type="curve"/>
      <point x="245" y="600"/>
      <point x="217" y="624"/>
      <point x="217" y="670" type="curve"/>
      <point x="363" y="670"/>
      <point x="217" y="670"/>
    </contour>
    <contour>
      <point x="190" y="606" type="move" name="_top"/>
    </contour>
  </outline>
</glyph>
<glyph name="copyright" format="1">
  <advance width="639"/>
  <unicode hex="00A9"/>
  <outline>
    <contour>
      <point x="145" y="324" type="curve"/>
      <point x="145" y="453"/>
      <point x="204" y="557"/>
      <point x="321" y="557" type="curve"/>
      <point x="435" y="557"/>
      <point x="492" y="451"/>
      <point x="492" y="322" type="curve"/>
      <point x="492" y="198"/>
      <point x="438" y="92"/>
      <point x="328" y="92" type="curve"/>
      <point x="211" y="92"/>
      <point x="145" y="196"/>
      <point x="145" y="324" type="curve"/>
      <point x="32" y="324"/>
      <point x="148" y="324"/>
      <point x="35" y="324" type="curve"/>
      <point x="35" y="142"/>
      <point x="146" y="6"/>
      <point x="323" y="6" type="curve"/>
      <point x="495" y="6"/>
      <point x="600" y="144"/>
      <point x="600" y="326" type="curve"/>
      <point x="600" y="508"/>
      <point x="493" y="645"/>
      <point x="321" y="645" type="curve"/>
      <point x="145" y="645"/>
      <point x="35" y="508"/>
      <point x="35" y="324" type="curve"/>
      <point x="148" y="324"/>
      <point x="32" y="324"/>
    </contour>
    <contour>
      <point x="454" y="436" type="curve"/>
      <point x="419" y="493"/>
      <point x="377" y="513"/>
      <point x="328" y="513" type="curve"/>
      <point x="218" y="513"/>
      <point x="164" y="436"/>
      <point x="164" y="323" type="curve"/>
      <point x="164" y="214"/>
      <point x="211" y="138"/>
      <point x="314" y="138" type="curve"/>
      <point x="369" y="138"/>
      <point x="409" y="148"/>
      <point x="448" y="206" type="curve"/>
      <point x="378" y="256"/>
      <point x="448" y="206"/>
      <point x="378" y="256" type="curve"/>
      <point x="359" y="238"/>
      <point x="345" y="226"/>
      <point x="319" y="226" type="curve"/>
      <point x="273" y="226"/>
      <point x="268" y="273"/>
      <point x="268" y="327" type="curve"/>
      <point x="268" y="380"/>
      <point x="276" y="426"/>
      <point x="323" y="426" type="curve"/>
      <point x="343" y="426"/>
      <point x="359" y="419"/>
      <point x="372" y="400" type="curve"/>
      <point x="461" y="439"/>
      <point x="364" y="397"/>
    </contour>
  </outline>
</glyph>
<glyph name="ordfeminine" format="1">
  <advance width="340"/>
  <unicode hex="00AA"/>
  <outline>
    <contour>
      <point x="291" y="424" type="curve"/>
      <point x="291" y="503"/>
      <point x="291" y="583"/>
      <point x="291" y="662" type="curve"/>
      <point x="291" y="738"/>
      <point x="241" y="770"/>
      <point x="167" y="770" type="curve"/>
      <point x="114" y="770"/>
      <point x="77" y="749"/>
      <point x="50" y="721" type="curve"/>
      <point x="83" y="662"/>
      <point x="50" y="721"/>
      <point x="83" y="662" type="curve"/>
      <point x="100" y="679"/>
      <point x="121" y="697"/>
      <point x="155" y="697" type="curve"/>
      <point x="184" y="697"/>
      <point x="201" y="681"/>
      <point x="201" y="651" type="curve"/>
      <point x="201" y="575"/>
      <point x="201" y="499"/>
      <point x="201" y="424" type="curve"/>
      <point x="291" y="424"/>
      <point x="201" y="424"/>
    </contour>
    <contour>
      <point x="244" y="649" type="curve"/>
      <point x="207" y="644"/>
      <point x="184" y="642"/>
      <point x="147" y="636" type="curve"/>
      <point x="78" y="626"/>
      <point x="32" y="597"/>
      <point x="32" y="530" type="curve"/>
      <point x="32" y="461"/>
      <point x="69" y="421"/>
      <point x="136" y="421" type="curve"/>
      <point x="203" y="421"/>
      <point x="229" y="477"/>
      <point x="269" y="523" type="curve"/>
      <point x="223" y="561"/>
      <point x="268" y="523"/>
      <point x="223" y="561" type="curve"/>
      <point x="207" y="523"/>
      <point x="194" y="491"/>
      <point x="158" y="491" type="curve"/>
      <point x="130" y="491"/>
      <point x="120" y="506"/>
      <point x="120" y="534" type="curve"/>
      <point x="120" y="554"/>
      <point x="134" y="570"/>
      <point x="150" y="573" type="curve"/>
      <point x="191" y="579"/>
      <point x="207" y="583"/>
      <point x="248" y="589" type="curve"/>
      <point x="244" y="648"/>
      <point x="248" y="590"/>
    </contour>
  </outline>
</glyph>
<glyph name="guillemotleft" format="1">
  <advance width="429"/>
  <unicode hex="00AB"/>
  <outline>
    <contour>
      <point x="193" y="487" type="curve"/>
      <point x="152" y="453"/>
      <point x="77" y="391"/>
      <point x="35" y="357" type="curve"/>
      <point x="35" y="237"/>
      <point x="35" y="337"/>
      <point x="35" y="217" type="curve"/>
      <point x="77" y="251"/>
      <point x="152" y="324"/>
      <point x="193" y="358" type="curve"/>
      <point x="193" y="477"/>
      <point x="193" y="368"/>
    </contour>
    <contour>
      <point x="193" y="218" type="curve"/>
      <point x="152" y="252"/>
      <point x="77" y="322"/>
      <point x="35" y="357" type="curve"/>
      <point x="35" y="237"/>
      <point x="35" y="337"/>
      <point x="35" y="217" type="curve"/>
      <point x="77" y="183"/>
      <point x="152" y="123"/>
      <point x="193" y="89" type="curve"/>
      <point x="193" y="208"/>
      <point x="193" y="99"/>
    </contour>
    <contour>
      <point x="375" y="487" type="curve"/>
      <point x="333" y="453"/>
      <point x="258" y="391"/>
      <point x="216" y="357" type="curve"/>
      <point x="216" y="237"/>
      <point x="216" y="337"/>
      <point x="216" y="217" type="curve"/>
      <point x="258" y="251"/>
      <point x="333" y="324"/>
      <point x="375" y="358" type="curve"/>
      <point x="375" y="477"/>
      <point x="375" y="368"/>
    </contour>
    <contour>
      <point x="375" y="218" type="curve"/>
      <point x="333" y="252"/>
      <point x="258" y="322"/>
      <point x="216" y="357" type="curve"/>
      <point x="216" y="237"/>
      <point x="216" y="337"/>
      <point x="216" y="217" type="curve"/>
      <point x="258" y="183"/>
      <point x="333" y="123"/>
      <point x="375" y="89" type="curve"/>
      <point x="375" y="208"/>
      <point x="375" y="99"/>
    </contour>
  </outline>
</glyph>
<glyph name="logicalnot" format="1">
  <advance width="491"/>
  <unicode hex="00AC"/>
  <outline>
    <contour>
      <point x="53" y="256" type="curve"/>
      <point x="435" y="256" type="line"/>
      <point x="435" y="375"/>
      <point x="435" y="256"/>
      <point x="435" y="375" type="curve"/>
      <point x="53" y="375" type="line"/>
      <point x="53" y="256"/>
      <point x="53" y="375"/>
    </contour>
    <contour>
      <point x="435" y="138" type="curve"/>
      <point x="435" y="375" type="line"/>
      <point x="294" y="375"/>
      <point x="436" y="375"/>
      <point x="295" y="375" type="curve"/>
      <point x="295" y="138" type="line"/>
      <point x="436" y="138"/>
      <point x="294" y="138"/>
    </contour>
  </outline>
</glyph>
<glyph name="registered" format="1">
  <advance width="663"/>
  <unicode hex="00AE"/>
  <outline>
    <contour>
      <point x="132" y="322" type="curve"/>
      <point x="132" y="464"/>
      <point x="201" y="565"/>
      <point x="334" y="565" type="curve"/>
      <point x="467" y="565"/>
      <point x="531" y="462"/>
      <point x="531" y="320" type="curve"/>
      <point x="531" y="182"/>
      <point x="470" y="81"/>
      <point x="341" y="81" type="curve"/>
      <point x="206" y="81"/>
      <point x="132" y="180"/>
      <point x="132" y="322" type="curve"/>
      <point x="98" y="322"/>
      <point x="74" y="322"/>
      <point x="39" y="322" type="curve"/>
      <point x="39" y="130"/>
      <point x="149" y="4"/>
      <point x="336" y="4" type="curve"/>
      <point x="521" y="4"/>
      <point x="624" y="133"/>
      <point x="624" y="324" type="curve"/>
      <point x="624" y="515"/>
      <point x="519" y="643"/>
      <point x="334" y="643" type="curve"/>
      <point x="147" y="643"/>
      <point x="39" y="515"/>
      <point x="39" y="322" type="curve"/>
      <point x="74" y="322"/>
      <point x="98" y="322"/>
    </contour>
    <contour>
      <point x="302" y="321" type="curve"/>
      <point x="302" y="320"/>
      <point x="377" y="142"/>
      <point x="378" y="141" type="curve"/>
      <point x="432" y="141"/>
      <point x="417" y="141"/>
      <point x="470" y="141" type="curve"/>
      <point x="470" y="142"/>
      <point x="394" y="312"/>
      <point x="394" y="313" type="curve"/>
      <point x="270" y="313"/>
      <point x="426" y="321"/>
    </contour>
    <contour>
      <point x="321" y="141" type="curve"/>
      <point x="321" y="235"/>
      <point x="321" y="413"/>
      <point x="321" y="507" type="curve"/>
      <point x="256" y="507"/>
      <point x="292" y="509"/>
      <point x="220" y="509" type="curve"/>
      <point x="220" y="415"/>
      <point x="220" y="235"/>
      <point x="220" y="141" type="curve"/>
      <point x="288" y="141"/>
      <point x="242" y="141"/>
    </contour>
    <contour>
      <point x="278" y="270" type="curve"/>
      <point x="291" y="270"/>
      <point x="305" y="270"/>
      <point x="318" y="270" type="curve"/>
      <point x="403" y="270"/>
      <point x="458" y="307"/>
      <point x="458" y="392" type="curve"/>
      <point x="458" y="464"/>
      <point x="412" y="509"/>
      <point x="340" y="509" type="curve"/>
      <point x="338" y="509"/>
      <point x="224" y="509"/>
      <point x="222" y="509" type="curve"/>
      <point x="221" y="460"/>
      <point x="333" y="509"/>
      <point x="220" y="421" type="curve"/>
      <point x="253" y="421"/>
      <point x="287" y="421"/>
      <point x="320" y="421" type="curve"/>
      <point x="343" y="421"/>
      <point x="360" y="411"/>
      <point x="360" y="388" type="curve"/>
      <point x="360" y="370"/>
      <point x="352" y="356"/>
      <point x="334" y="356" type="curve"/>
      <point x="315" y="356"/>
      <point x="296" y="356"/>
      <point x="278" y="356" type="curve"/>
      <point x="278" y="270"/>
      <point x="278" y="356"/>
    </contour>
  </outline>
</glyph>
<glyph name="macron" format="1">
  <advance width="286"/>
  <unicode hex="00AF"/>
  <outline>
    <contour>
      <point x="192" y="685" type="curve"/>
      <point x="136" y="685"/>
      <point x="80" y="685"/>
      <point x="24" y="685" type="curve"/>
      <point x="24" y="577"/>
      <point x="24" y="685"/>
      <point x="24" y="577" type="curve"/>
      <point x="80" y="577"/>
      <point x="136" y="577"/>
      <point x="192" y="577" type="curve"/>
      <point x="192" y="685"/>
      <point x="192" y="577"/>
    </contour>
    <contour>
      <point x="109" y="577" type="move" name="_top"/>
    </contour>
  </outline>
</glyph>
<glyph name="degree" format="1">
  <advance width="388"/>
  <unicode hex="00B0"/>
  <outline>
    <contour>
      <point x="359" y="621" type="curve"/>
      <point x="359" y="724"/>
      <point x="295" y="789"/>
      <point x="192" y="789" type="curve"/>
      <point x="91" y="789"/>
      <point x="30" y="723"/>
      <point x="30" y="621" type="curve"/>
      <point x="73" y="621"/>
      <point x="101" y="621"/>
      <point x="143" y="621" type="curve"/>
      <point x="143" y="660"/>
      <point x="157" y="691"/>
      <point x="192" y="691" type="curve"/>
      <point x="227" y="691"/>
      <point x="241" y="660"/>
      <point x="241" y="621" type="curve"/>
      <point x="241" y="582"/>
      <point x="229" y="552"/>
      <point x="194" y="552" type="curve"/>
      <point x="158" y="552"/>
      <point x="143" y="582"/>
      <point x="143" y="621" type="curve"/>
      <point x="101" y="621"/>
      <point x="73" y="621"/>
      <point x="30" y="621" type="curve"/>
      <point x="30" y="518"/>
      <point x="92" y="452"/>
      <point x="194" y="452" type="curve"/>
      <point x="297" y="452"/>
      <point x="359" y="518"/>
    </contour>
  </outline>
</glyph>
<glyph name="twosuperior" format="1">
  <advance width="376"/>
  <unicode hex="00B2"/>
  <outline>
    <contour>
      <point x="35" y="398" type="curve"/>
      <point x="131" y="398"/>
      <point x="252" y="398"/>
      <point x="336" y="398" type="curve"/>
      <point x="336" y="443"/>
      <point x="336" y="429"/>
      <point x="336" y="484" type="curve"/>
      <point x="245" y="484"/>
      <point x="125" y="484"/>
      <point x="35" y="484" type="curve"/>
      <point x="35" y="398"/>
      <point x="35" y="484"/>
    </contour>
    <contour>
      <point x="133" y="689" type="curve"/>
      <point x="140" y="716"/>
      <point x="151" y="742"/>
      <point x="179" y="742" type="curve"/>
      <point x="206" y="742"/>
      <point x="216" y="718"/>
      <point x="216" y="688" type="curve"/>
      <point x="216" y="654"/>
      <point x="196" y="636"/>
      <point x="173" y="612" type="curve"/>
      <point x="127" y="570"/>
      <point x="81" y="526"/>
      <point x="35" y="484" type="curve"/>
      <point x="35" y="398"/>
      <point x="35" y="484"/>
      <point x="35" y="398" type="curve"/>
      <point x="101" y="446"/>
      <point x="192" y="494"/>
      <point x="245" y="543" type="curve"/>
      <point x="289" y="590"/>
      <point x="323" y="627"/>
      <point x="323" y="693" type="curve"/>
      <point x="323" y="776"/>
      <point x="269" y="828"/>
      <point x="184" y="828" type="curve"/>
      <point x="118" y="828"/>
      <point x="71" y="803"/>
      <point x="52" y="719" type="curve"/>
      <point x="133" y="689"/>
      <point x="52" y="719"/>
    </contour>
    <contour>
      <point x="191" y="829" type="move" name="_top"/>
    </contour>
    <contour>
      <point x="178" y="398" type="move" name="_bottom"/>
    </contour>
  </outline>
</glyph>
<glyph name="threesuperior" format="1">
  <advance width="333"/>
  <unicode hex="00B3"/>
  <outline>
    <contour>
      <point x="95" y="709" type="curve"/>
      <point x="108" y="724"/>
      <point x="120" y="737"/>
      <point x="139" y="737" type="curve"/>
      <point x="163" y="737"/>
      <point x="176" y="719"/>
      <point x="176" y="693" type="curve"/>
      <point x="176" y="661"/>
      <point x="145" y="650"/>
      <point x="109" y="647" type="curve"/>
      <point x="109" y="573"/>
      <point x="109" y="647"/>
      <point x="109" y="573" type="curve"/>
      <point x="209" y="576"/>
      <point x="288" y="612"/>
      <point x="288" y="701" type="curve"/>
      <point x="288" y="781"/>
      <point x="233" y="824"/>
      <point x="150" y="824" type="curve"/>
      <point x="101" y="824"/>
      <point x="57" y="802"/>
      <point x="29" y="765" type="curve"/>
      <point x="95" y="709"/>
      <point x="29" y="765"/>
    </contour>
    <contour>
      <point x="29" y="426" type="curve"/>
      <point x="61" y="403"/>
      <point x="94" y="389"/>
      <point x="132" y="389" type="curve"/>
      <point x="233" y="389"/>
      <point x="300" y="431"/>
      <point x="300" y="523" type="curve"/>
      <point x="300" y="613"/>
      <point x="212" y="634"/>
      <point x="109" y="638" type="curve"/>
      <point x="109" y="573"/>
      <point x="109" y="638"/>
      <point x="109" y="573" type="curve"/>
      <point x="153" y="570"/>
      <point x="187" y="554"/>
      <point x="187" y="518" type="curve"/>
      <point x="187" y="492"/>
      <point x="170" y="474"/>
      <point x="142" y="475" type="curve"/>
      <point x="122" y="475"/>
      <point x="102" y="479"/>
      <point x="85" y="492" type="curve"/>
      <point x="29" y="426"/>
      <point x="85" y="492"/>
    </contour>
    <contour>
      <point x="158" y="824" type="move" name="_top"/>
    </contour>
    <contour>
      <point x="159" y="390" type="move" name="_bottom"/>
    </contour>
  </outline>
</glyph>
<glyph name="paragraph" format="1">
  <advance width="699"/>
  <unicode hex="00B6"/>
  <outline>
    <contour>
      <point x="367" y="614" type="curve"/>
      <point x="504" y="614"/>
      <point x="367" y="614"/>
      <point x="504" y="614" type="curve"/>
      <point x="504" y="722"/>
      <point x="504" y="614"/>
      <point x="504" y="722" type="curve"/>
      <point x="458" y="722"/>
      <point x="412" y="722"/>
      <point x="367" y="722" type="curve"/>
      <point x="367" y="614"/>
      <point x="367" y="722"/>
    </contour>
    <contour>
      <point x="343" y="388" type="curve"/>
      <point x="309" y="368"/>
      <point x="283" y="356"/>
      <point x="243" y="356" type="curve"/>
      <point x="186" y="356"/>
      <point x="166" y="409"/>
      <point x="166" y="474" type="curve"/>
      <point x="166" y="553"/>
      <point x="205" y="614"/>
      <point x="279" y="614" type="curve"/>
      <point x="308" y="614"/>
      <point x="336" y="614"/>
      <point x="364" y="614" type="curve"/>
      <point x="364" y="722"/>
      <point x="364" y="614"/>
      <point x="364" y="722" type="curve"/>
      <point x="330" y="722"/>
      <point x="295" y="722"/>
      <point x="260" y="722" type="curve"/>
      <point x="117" y="722"/>
      <point x="25" y="624"/>
      <point x="25" y="479" type="curve"/>
      <point x="25" y="340"/>
      <point x="116" y="255"/>
      <point x="256" y="253" type="curve"/>
      <point x="306" y="253"/>
      <point x="346" y="274"/>
      <point x="388" y="299" type="curve"/>
      <point x="343" y="388"/>
      <point x="387" y="302"/>
    </contour>
    <contour>
      <point x="438" y="0" type="curve"/>
      <point x="438" y="241"/>
      <point x="438" y="481"/>
      <point x="438" y="722" type="curve"/>
      <point x="297" y="722"/>
      <point x="438" y="722"/>
      <point x="297" y="722" type="curve"/>
      <point x="297" y="481"/>
      <point x="297" y="241"/>
      <point x="297" y="0" type="curve"/>
      <point x="438" y="0"/>
      <point x="297" y="0"/>
    </contour>
    <contour>
      <point x="640" y="0" type="curve"/>
      <point x="640" y="241"/>
      <point x="640" y="481"/>
      <point x="640" y="722" type="curve"/>
      <point x="500" y="722"/>
      <point x="640" y="722"/>
      <point x="500" y="722" type="curve"/>
      <point x="500" y="481"/>
      <point x="500" y="241"/>
      <point x="500" y="0" type="curve"/>
      <point x="640" y="0"/>
      <point x="500" y="0"/>
    </contour>
  </outline>
</glyph>
<glyph name="periodcentered" format="1">
  <advance width="219"/>
  <unicode hex="00B7"/>
  <outline>
    <contour>
      <point x="182" y="440" type="curve"/>
      <point x="182" y="487"/>
      <point x="151" y="511"/>
      <point x="109" y="511" type="curve"/>
      <point x="65" y="511"/>
      <point x="37" y="485"/>
      <point x="37" y="440" type="curve"/>
      <point x="182" y="440"/>
      <point x="37" y="440"/>
      <point x="182" y="440" type="curve"/>
      <point x="182" y="392"/>
      <point x="152" y="370"/>
      <point x="109" y="370" type="curve"/>
      <point x="64" y="370"/>
      <point x="37" y="394"/>
      <point x="37" y="440" type="curve"/>
      <point x="182" y="440"/>
      <point x="37" y="440"/>
    </contour>
  </outline>
</glyph>
<glyph name="cedilla" format="1">
  <advance width="286"/>
  <unicode hex="00B8"/>
  <outline>
    <contour>
      <point x="98" y="163" type="curve"/>
      <point x="88" y="142"/>
      <point x="49" y="47"/>
      <point x="39" y="25" type="curve"/>
      <point x="135" y="-61"/>
      <point x="39" y="25"/>
      <point x="135" y="-61" type="curve"/>
      <point x="147" y="-35"/>
      <point x="194" y="61"/>
      <point x="206" y="87" type="curve"/>
      <point x="98" y="163"/>
      <point x="206" y="87"/>
    </contour>
    <contour>
      <point x="135" y="-61" type="curve"/>
      <point x="140" y="-57"/>
      <point x="144" y="-53"/>
      <point x="150" y="-53" type="curve"/>
      <point x="158" y="-53"/>
      <point x="163" y="-57"/>
      <point x="163" y="-66" type="curve"/>
      <point x="163" y="-80"/>
      <point x="150" y="-84"/>
      <point x="135" y="-84" type="curve"/>
      <point x="117" y="-84"/>
      <point x="102" y="-80"/>
      <point x="86" y="-70" type="curve"/>
      <point x="32" y="-149"/>
      <point x="86" y="-70"/>
      <point x="32" y="-149" type="curve"/>
      <point x="62" y="-169"/>
      <point x="91" y="-177"/>
      <point x="128" y="-177" type="curve"/>
      <point x="198" y="-177"/>
      <point x="247" y="-138"/>
      <point x="247" y="-64" type="curve"/>
      <point x="247" y="5"/>
      <point x="203" y="49"/>
      <point x="135" y="49" type="curve"/>
      <point x="98" y="49"/>
      <point x="71" y="44"/>
      <point x="39" y="25" type="curve"/>
      <point x="135" y="-61"/>
      <point x="39" y="25"/>
    </contour>
    <contour>
      <point x="198" y="87" type="move" name="_bottom"/>
    </contour>
  </outline>
</glyph>
<glyph name="onesuperior" format="1">
  <advance width="263"/>
  <unicode hex="00B9"/>
  <outline>
    <contour>
      <point x="70" y="668" type="line"/>
      <point x="209" y="818" type="line"/>
      <point x="97" y="818" type="line"/>
      <point x="7" y="733" type="line"/>
    </contour>
    <contour>
      <point x="209" y="398" type="curve"/>
      <point x="209" y="818" type="line"/>
      <point x="97" y="818" type="line"/>
      <point x="97" y="398" type="line"/>
      <point x="167" y="398"/>
      <point x="119" y="398"/>
    </contour>
    <contour>
      <point x="140" y="818" type="move" name="_top"/>
    </contour>
    <contour>
      <point x="152" y="397" type="move" name="_bottom"/>
    </contour>
  </outline>
</glyph>
<glyph name="ordmasculine" format="1">
  <advance width="354"/>
  <unicode hex="00BA"/>
  <outline>
    <contour>
      <point x="113" y="593" type="line"/>
      <point x="113" y="645"/>
      <point x="125" y="695"/>
      <point x="174" y="695" type="curve"/>
      <point x="222" y="695"/>
      <point x="235" y="647"/>
      <point x="235" y="593" type="curve"/>
      <point x="235" y="539"/>
      <point x="225" y="493"/>
      <point x="180" y="493" type="curve"/>
      <point x="125" y="493"/>
      <point x="113" y="538"/>
      <point x="113" y="593" type="curve"/>
      <point x="30" y="593" type="line"/>
      <point x="30" y="490"/>
      <point x="79" y="420"/>
      <point x="176" y="420" type="curve"/>
      <point x="273" y="420"/>
      <point x="326" y="489"/>
      <point x="326" y="593" type="curve"/>
      <point x="326" y="697"/>
      <point x="275" y="768"/>
      <point x="178" y="768" type="curve"/>
      <point x="79" y="768"/>
      <point x="30" y="697"/>
      <point x="30" y="593" type="curve"/>
    </contour>
  </outline>
</glyph>
<glyph name="guillemotright" format="1">
  <advance width="426"/>
  <unicode hex="00BB"/>
  <outline>
    <contour>
      <point x="234" y="487" type="curve"/>
      <point x="275" y="453"/>
      <point x="350" y="391"/>
      <point x="392" y="357" type="curve"/>
      <point x="392" y="237"/>
      <point x="392" y="337"/>
      <point x="392" y="217" type="curve"/>
      <point x="350" y="251"/>
      <point x="275" y="324"/>
      <point x="234" y="358" type="curve"/>
      <point x="234" y="477"/>
      <point x="234" y="368"/>
    </contour>
    <contour>
      <point x="234" y="218" type="curve"/>
      <point x="275" y="252"/>
      <point x="350" y="322"/>
      <point x="392" y="357" type="curve"/>
      <point x="392" y="237"/>
      <point x="392" y="337"/>
      <point x="392" y="217" type="curve"/>
      <point x="350" y="183"/>
      <point x="275" y="123"/>
      <point x="234" y="89" type="curve"/>
      <point x="234" y="208"/>
      <point x="234" y="99"/>
    </contour>
    <contour>
      <point x="52" y="487" type="curve"/>
      <point x="94" y="453"/>
      <point x="169" y="391"/>
      <point x="211" y="357" type="curve"/>
      <point x="211" y="237"/>
      <point x="211" y="337"/>
      <point x="211" y="217" type="curve"/>
      <point x="169" y="251"/>
      <point x="94" y="324"/>
      <point x="52" y="358" type="curve"/>
      <point x="52" y="477"/>
      <point x="52" y="368"/>
    </contour>
    <contour>
      <point x="52" y="218" type="curve"/>
      <point x="94" y="252"/>
      <point x="169" y="322"/>
      <point x="211" y="357" type="curve"/>
      <point x="211" y="237"/>
      <point x="211" y="337"/>
      <point x="211" y="217" type="curve"/>
      <point x="169" y="183"/>
      <point x="94" y="123"/>
      <point x="52" y="89" type="curve"/>
      <point x="52" y="208"/>
      <point x="52" y="99"/>
    </contour>
  </outline>
</glyph>
<glyph name="onequarter" format="1">
  <advance width="846"/>
  <unicode hex="00BC"/>
  <outline>
    <contour>
      <point x="325" y="-36" type="line"/>
      <point x="645" y="708" type="line"/>
      <point x="517" y="708" type="line"/>
      <point x="197" y="-36" type="line"/>
    </contour>
    <contour>
      <point x="84" y="556" type="line"/>
      <point x="224" y="706" type="line"/>
      <point x="111" y="706" type="line"/>
      <point x="21" y="621" type="line"/>
    </contour>
    <contour>
      <point x="224" y="285" type="curve"/>
      <point x="224" y="706" type="line"/>
      <point x="111" y="706" type="line"/>
      <point x="111" y="285" type="line"/>
      <point x="181" y="285"/>
      <point x="134" y="285"/>
    </contour>
    <contour>
      <point x="815" y="164" type="line"/>
      <point x="503" y="164" type="line"/>
      <point x="503" y="77" type="line"/>
      <point x="815" y="77" type="line"/>
    </contour>
    <contour>
      <point x="545" y="83" type="line"/>
      <point x="730" y="383" type="line"/>
      <point x="651" y="400" type="line"/>
      <point x="503" y="164" type="line"/>
    </contour>
    <contour>
      <point x="764" y="-29" type="line"/>
      <point x="764" y="400" type="line"/>
      <point x="651" y="400" type="line"/>
      <point x="651" y="-29" type="line"/>
    </contour>
  </outline>
</glyph>
<glyph name="onehalf" format="1">
  <advance width="942"/>
  <unicode hex="00BD"/>
  <outline>
    <contour>
      <point x="367" y="-36" type="line"/>
      <point x="686" y="708" type="line"/>
      <point x="558" y="708" type="line"/>
      <point x="239" y="-36" type="line"/>
    </contour>
    <contour>
      <point x="84" y="556" type="line"/>
      <point x="224" y="706" type="line"/>
      <point x="111" y="706" type="line"/>
      <point x="21" y="621" type="line"/>
    </contour>
    <contour>
      <point x="224" y="285" type="curve"/>
      <point x="224" y="706" type="line"/>
      <point x="111" y="706" type="line"/>
      <point x="111" y="285" type="line"/>
      <point x="181" y="285"/>
      <point x="134" y="285"/>
    </contour>
    <contour>
      <point x="607" y="-31" type="curve"/>
      <point x="704" y="-31"/>
      <point x="825" y="-31"/>
      <point x="909" y="-31" type="curve"/>
      <point x="909" y="14"/>
      <point x="909" y="0"/>
      <point x="909" y="55" type="curve"/>
      <point x="818" y="55"/>
      <point x="698" y="55"/>
      <point x="607" y="55" type="curve"/>
      <point x="607" y="-31"/>
      <point x="607" y="55"/>
    </contour>
    <contour>
      <point x="705" y="260" type="curve"/>
      <point x="712" y="288"/>
      <point x="723" y="313"/>
      <point x="752" y="313" type="curve"/>
      <point x="778" y="313"/>
      <point x="788" y="289"/>
      <point x="788" y="259" type="curve"/>
      <point x="788" y="226"/>
      <point x="768" y="207"/>
      <point x="745" y="183" type="curve"/>
      <point x="699" y="141"/>
      <point x="653" y="98"/>
      <point x="607" y="55" type="curve"/>
      <point x="607" y="-31"/>
      <point x="607" y="55"/>
      <point x="607" y="-31" type="curve"/>
      <point x="673" y="17"/>
      <point x="764" y="65"/>
      <point x="817" y="114" type="curve"/>
      <point x="862" y="161"/>
      <point x="896" y="198"/>
      <point x="896" y="264" type="curve"/>
      <point x="896" y="347"/>
      <point x="841" y="399"/>
      <point x="757" y="399" type="curve"/>
      <point x="691" y="399"/>
      <point x="643" y="374"/>
      <point x="624" y="290" type="curve"/>
      <point x="705" y="260"/>
      <point x="624" y="290"/>
    </contour>
  </outline>
</glyph>
<glyph name="threequarters" format="1">
  <advance width="885"/>
  <unicode hex="00BE"/>
  <outline>
    <contour>
      <point x="370" y="-36" type="line"/>
      <point x="690" y="708" type="line"/>
      <point x="562" y="708" type="line"/>
      <point x="242" y="-36" type="line"/>
    </contour>
    <contour>
      <point x="96" y="591" type="curve"/>
      <point x="109" y="605"/>
      <point x="121" y="618"/>
      <point x="140" y="618" type="curve"/>
      <point x="164" y="618"/>
      <point x="177" y="601"/>
      <point x="177" y="575" type="curve"/>
      <point x="177" y="543"/>
      <point x="145" y="532"/>
      <point x="110" y="529" type="curve"/>
      <point x="110" y="455"/>
      <point x="110" y="529"/>
      <point x="110" y="455" type="curve"/>
      <point x="209" y="458"/>
      <point x="289" y="494"/>
      <point x="289" y="582" type="curve"/>
      <point x="289" y="663"/>
      <point x="233" y="706"/>
      <point x="151" y="706" type="curve"/>
      <point x="102" y="706"/>
      <point x="57" y="684"/>
      <point x="30" y="647" type="curve"/>
      <point x="96" y="591"/>
      <point x="30" y="647"/>
    </contour>
    <contour>
      <point x="30" y="307" type="curve"/>
      <point x="61" y="284"/>
      <point x="94" y="270"/>
      <point x="133" y="270" type="curve"/>
      <point x="233" y="270"/>
      <point x="301" y="312"/>
      <point x="301" y="405" type="curve"/>
      <point x="301" y="495"/>
      <point x="212" y="516"/>
      <point x="110" y="520" type="curve"/>
      <point x="110" y="455"/>
      <point x="110" y="520"/>
      <point x="110" y="455" type="curve"/>
      <point x="153" y="452"/>
      <point x="188" y="435"/>
      <point x="188" y="400" type="curve"/>
      <point x="188" y="373"/>
      <point x="170" y="356"/>
      <point x="143" y="357" type="curve"/>
      <point x="123" y="357"/>
      <point x="103" y="361"/>
      <point x="86" y="373" type="curve"/>
      <point x="30" y="307"/>
      <point x="86" y="373"/>
    </contour>
    <contour>
      <point x="860" y="164" type="line"/>
      <point x="548" y="164" type="line"/>
      <point x="548" y="77" type="line"/>
      <point x="860" y="77" type="line"/>
    </contour>
    <contour>
      <point x="590" y="83" type="line"/>
      <point x="775" y="383" type="line"/>
      <point x="696" y="400" type="line"/>
      <point x="548" y="164" type="line"/>
    </contour>
    <contour>
      <point x="808" y="-29" type="line"/>
      <point x="808" y="400" type="line"/>
      <point x="696" y="400" type="line"/>
      <point x="696" y="-29" type="line"/>
    </contour>
  </outline>
</glyph>
<glyph name="questiondown" format="1">
  <advance width="471"/>
  <unicode hex="00BF"/>
  <outline>
    <contour>
      <point x="300" y="365" type="curve"/>
      <point x="300" y="402"/>
      <point x="300" y="486"/>
      <point x="300" y="523" type="curve"/>
      <point x="173" y="523"/>
      <point x="300" y="523"/>
      <point x="173" y="523" type="curve"/>
      <point x="173" y="486"/>
      <point x="173" y="402"/>
      <point x="173" y="365" type="curve"/>
      <point x="300" y="365"/>
      <point x="173" y="365"/>
    </contour>
    <contour>
      <point x="361" y="162" type="line"/>
      <point x="329" y="128"/>
      <point x="301" y="109"/>
      <point x="257" y="109" type="curve"/>
      <point x="193" y="109"/>
      <point x="160" y="159"/>
      <point x="160" y="226" type="curve"/>
      <point x="160" y="309"/>
      <point x="206" y="365"/>
      <point x="287" y="365" type="curve"/>
      <point x="287" y="404"/>
      <point x="288" y="431"/>
      <point x="288" y="470" type="curve"/>
      <point x="129" y="470"/>
      <point x="26" y="377"/>
      <point x="26" y="226" type="curve"/>
      <point x="26" y="81"/>
      <point x="116" y="-7"/>
      <point x="251" y="-7" type="curve"/>
      <point x="330" y="-7"/>
      <point x="390" y="18"/>
      <point x="435" y="73" type="curve"/>
    </contour>
    <contour>
      <point x="163" y="683" type="curve"/>
      <point x="163" y="636"/>
      <point x="194" y="612"/>
      <point x="237" y="612" type="curve"/>
      <point x="280" y="612"/>
      <point x="308" y="638"/>
      <point x="308" y="683" type="curve"/>
      <point x="163" y="683"/>
      <point x="308" y="683"/>
      <point x="163" y="683" type="curve"/>
      <point x="163" y="732"/>
      <point x="193" y="753"/>
      <point x="237" y="753" type="curve"/>
      <point x="281" y="753"/>
      <point x="308" y="730"/>
      <point x="308" y="683" type="curve"/>
      <point x="163" y="683"/>
      <point x="308" y="683"/>
    </contour>
  </outline>
</glyph>
<glyph name="Agrave" format="1">
  <advance width="580"/>
  <unicode hex="00C0"/>
  <outline>
    <contour>
      <point x="402" y="294" type="curve"/>
      <point x="330" y="294"/>
      <point x="257" y="294"/>
      <point x="184" y="294" type="curve"/>
      <point x="126" y="179"/>
      <point x="184" y="294"/>
      <point x="126" y="179" type="curve"/>
      <point x="233" y="179"/>
      <point x="341" y="179"/>
      <point x="447" y="179" type="curve"/>
      <point x="402" y="294"/>
      <point x="447" y="179"/>
    </contour>
    <contour>
      <point x="571" y="0" type="curve"/>
      <point x="503" y="241"/>
      <point x="428" y="481"/>
      <point x="361" y="722" type="curve"/>
      <point x="233" y="722"/>
      <point x="361" y="722"/>
      <point x="233" y="722" type="curve"/>
      <point x="299" y="482"/>
      <point x="358" y="240"/>
      <point x="425" y="0" type="curve"/>
      <point x="571" y="0"/>
      <point x="425" y="0"/>
    </contour>
    <contour>
      <point x="148" y="0" type="curve"/>
      <point x="222" y="240"/>
      <point x="285" y="482"/>
      <point x="360" y="722" type="curve"/>
      <point x="232" y="722"/>
      <point x="360" y="722"/>
      <point x="232" y="722" type="curve"/>
      <point x="156" y="480"/>
      <point x="69" y="242"/>
      <point x="-6" y="0" type="curve"/>
      <point x="148" y="0"/>
      <point x="-6" y="0"/>
    </contour>
    <contour>
      <point x="360" y="782" type="line"/>
      <point x="276" y="948" type="line"/>
      <point x="104" y="948" type="line"/>
      <point x="227" y="782" type="line"/>
    </contour>
  </outline>
</glyph>
<glyph name="Atilde" format="1">
  <advance width="580"/>
  <unicode hex="00C3"/>
  <outline>
    <contour>
      <point x="402" y="294" type="curve"/>
      <point x="330" y="294"/>
      <point x="257" y="294"/>
      <point x="184" y="294" type="curve"/>
      <point x="126" y="179"/>
      <point x="184" y="294"/>
      <point x="126" y="179" type="curve"/>
      <point x="233" y="179"/>
      <point x="341" y="179"/>
      <point x="447" y="179" type="curve"/>
      <point x="402" y="294"/>
      <point x="447" y="179"/>
    </contour>
    <contour>
      <point x="571" y="0" type="curve"/>
      <point x="503" y="241"/>
      <point x="428" y="481"/>
      <point x="361" y="722" type="curve"/>
      <point x="233" y="722"/>
      <point x="361" y="722"/>
      <point x="233" y="722" type="curve"/>
      <point x="299" y="482"/>
      <point x="358" y="240"/>
      <point x="425" y="0" type="curve"/>
      <point x="571" y="0"/>
      <point x="425" y="0"/>
    </contour>
    <contour>
      <point x="148" y="0" type="curve"/>
      <point x="222" y="240"/>
      <point x="285" y="482"/>
      <point x="360" y="722" type="curve"/>
      <point x="232" y="722"/>
      <point x="360" y="722"/>
      <point x="232" y="722" type="curve"/>
      <point x="156" y="480"/>
      <point x="69" y="242"/>
      <point x="-6" y="0" type="curve"/>
      <point x="148" y="0"/>
      <point x="-6" y="0"/>
    </contour>
    <contour>
      <point x="389" y="972" type="curve"/>
      <point x="372" y="936"/>
      <point x="359" y="929"/>
      <point x="345" y="929" type="curve"/>
      <point x="320" y="929"/>
      <point x="308" y="936"/>
      <point x="290" y="950" type="curve"/>
      <point x="264" y="970"/>
      <point x="251" y="978"/>
      <point x="222" y="978" type="curve"/>
      <point x="153" y="978"/>
      <point x="118" y="910"/>
      <point x="97" y="846" type="curve"/>
      <point x="200" y="786"/>
      <point x="97" y="847"/>
      <point x="200" y="786" type="curve"/>
      <point x="220" y="826"/>
      <point x="236" y="833"/>
      <point x="254" y="833" type="curve"/>
      <point x="274" y="833"/>
      <point x="284" y="827"/>
      <point x="298" y="814" type="curve"/>
      <point x="328" y="790"/>
      <point x="344" y="779"/>
      <point x="379" y="779" type="curve"/>
      <point x="448" y="779"/>
      <point x="474" y="844"/>
      <point x="500" y="914" type="curve"/>
      <point x="389" y="972"/>
      <point x="500" y="913"/>
    </contour>
  </outline>
</glyph>
<glyph name="Adieresis" format="1">
  <advance width="580"/>
  <unicode hex="00C4"/>
  <outline>
    <contour>
      <point x="402" y="294" type="curve"/>
      <point x="330" y="294"/>
      <point x="257" y="294"/>
      <point x="184" y="294" type="curve"/>
      <point x="126" y="179"/>
      <point x="184" y="294"/>
      <point x="126" y="179" type="curve"/>
      <point x="233" y="179"/>
      <point x="341" y="179"/>
      <point x="447" y="179" type="curve"/>
      <point x="402" y="294"/>
      <point x="447" y="179"/>
    </contour>
    <contour>
      <point x="571" y="0" type="curve"/>
      <point x="503" y="241"/>
      <point x="428" y="481"/>
      <point x="361" y="722" type="curve"/>
      <point x="233" y="722"/>
      <point x="361" y="722"/>
      <point x="233" y="722" type="curve"/>
      <point x="299" y="482"/>
      <point x="358" y="240"/>
      <point x="425" y="0" type="curve"/>
      <point x="571" y="0"/>
      <point x="425" y="0"/>
    </contour>
    <contour>
      <point x="148" y="0" type="curve"/>
      <point x="222" y="240"/>
      <point x="285" y="482"/>
      <point x="360" y="722" type="curve"/>
      <point x="232" y="722"/>
      <point x="360" y="722"/>
      <point x="232" y="722" type="curve"/>
      <point x="156" y="480"/>
      <point x="69" y="242"/>
      <point x="-6" y="0" type="curve"/>
      <point x="148" y="0"/>
      <point x="-6" y="0"/>
    </contour>
    <contour>
      <point x="268" y="845" type="curve"/>
      <point x="268" y="892"/>
      <point x="236" y="916"/>
      <point x="194" y="916" type="curve"/>
      <point x="151" y="916"/>
      <point x="122" y="890"/>
      <point x="122" y="845" type="curve"/>
      <point x="268" y="845"/>
      <point x="122" y="845"/>
      <point x="268" y="845" type="curve"/>
      <point x="268" y="797"/>
      <point x="237" y="775"/>
      <point x="194" y="775" type="curve"/>
      <point x="150" y="775"/>
      <point x="122" y="799"/>
      <point x="122" y="845" type="curve"/>
      <point x="268" y="845"/>
      <point x="122" y="845"/>
    </contour>
    <contour>
      <point x="465" y="845" type="curve"/>
      <point x="465" y="892"/>
      <point x="434" y="916"/>
      <point x="392" y="916" type="curve"/>
      <point x="348" y="916"/>
      <point x="320" y="890"/>
      <point x="320" y="845" type="curve"/>
      <point x="465" y="845"/>
      <point x="320" y="845"/>
      <point x="465" y="845" type="curve"/>
      <point x="465" y="797"/>
      <point x="435" y="775"/>
      <point x="392" y="775" type="curve"/>
      <point x="347" y="775"/>
      <point x="320" y="799"/>
      <point x="320" y="845" type="curve"/>
      <point x="465" y="845"/>
      <point x="320" y="845"/>
    </contour>
  </outline>
</glyph>
<glyph name="Aring" format="1">
  <advance width="580"/>
  <unicode hex="00C5"/>
  <outline>
    <contour>
      <point x="402" y="294" type="curve"/>
      <point x="330" y="294"/>
      <point x="257" y="294"/>
      <point x="184" y="294" type="curve"/>
      <point x="126" y="179"/>
      <point x="184" y="294"/>
      <point x="126" y="179" type="curve"/>
      <point x="233" y="179"/>
      <point x="341" y="179"/>
      <point x="447" y="179" type="curve"/>
      <point x="402" y="294"/>
      <point x="447" y="179"/>
    </contour>
    <contour>
      <point x="571" y="0" type="curve"/>
      <point x="503" y="241"/>
      <point x="428" y="481"/>
      <point x="361" y="722" type="curve"/>
      <point x="233" y="722"/>
      <point x="361" y="722"/>
      <point x="233" y="722" type="curve"/>
      <point x="299" y="482"/>
      <point x="358" y="240"/>
      <point x="425" y="0" type="curve"/>
      <point x="571" y="0"/>
      <point x="425" y="0"/>
    </contour>
    <contour>
      <point x="148" y="0" type="curve"/>
      <point x="222" y="240"/>
      <point x="285" y="482"/>
      <point x="360" y="722" type="curve"/>
      <point x="232" y="722"/>
      <point x="360" y="722"/>
      <point x="232" y="722" type="curve"/>
      <point x="156" y="480"/>
      <point x="69" y="242"/>
      <point x="-6" y="0" type="curve"/>
      <point x="148" y="0"/>
      <point x="-6" y="0"/>
    </contour>
    <contour>
      <point x="148" y="926" type="curve"/>
      <point x="148" y="837"/>
      <point x="203" y="779"/>
      <point x="292" y="779" type="curve"/>
      <point x="381" y="779"/>
      <point x="437" y="836"/>
      <point x="437" y="926" type="curve"/>
      <point x="437" y="1016"/>
      <point x="380" y="1073"/>
      <point x="290" y="1073" type="curve"/>
      <point x="201" y="1073"/>
      <point x="148" y="1015"/>
      <point x="148" y="926" type="curve"/>
      <point x="272" y="926"/>
      <point x="137" y="926"/>
      <point x="261" y="926" type="curve"/>
      <point x="261" y="949"/>
      <point x="261" y="974"/>
      <point x="290" y="974" type="curve"/>
      <point x="316" y="974"/>
      <point x="318" y="950"/>
      <point x="318" y="926" type="curve"/>
      <point x="318" y="903"/>
      <point x="318" y="878"/>
      <point x="292" y="878" type="curve"/>
      <point x="264" y="878"/>
      <point x="261" y="903"/>
      <point x="261" y="926" type="curve"/>
      <point x="137" y="926"/>
      <point x="272" y="926"/>
    </contour>
  </outline>
</glyph>
<glyph name="AE" format="1">
  <advance width="792"/>
  <unicode hex="00C6"/>
  <outline>
    <contour>
      <point x="393" y="277" type="curve"/>
      <point x="320" y="277"/>
      <point x="248" y="277"/>
      <point x="176" y="277" type="curve"/>
      <point x="118" y="162"/>
      <point x="176" y="277"/>
      <point x="118" y="162" type="curve"/>
      <point x="225" y="162"/>
      <point x="331" y="162"/>
      <point x="438" y="162" type="curve"/>
      <point x="393" y="277"/>
      <point x="438" y="162"/>
    </contour>
    <contour>
      <point x="139" y="0" type="curve"/>
      <point x="505" y="722" type="line"/>
      <point x="378" y="722"/>
      <point x="505" y="722"/>
      <point x="378" y="722" type="curve"/>
      <point x="-15" y="0" type="line"/>
      <point x="139" y="0"/>
      <point x="-15" y="0"/>
    </contour>
    <contour>
      <point x="451" y="318" type="curve"/>
      <point x="532" y="318"/>
      <point x="615" y="318"/>
      <point x="697" y="318" type="curve"/>
      <point x="697" y="427"/>
      <point x="697" y="318"/>
      <point x="697" y="427" type="curve"/>
      <point x="615" y="427"/>
      <point x="532" y="427"/>
      <point x="451" y="427" type="curve"/>
      <point x="451" y="318"/>
      <point x="451" y="427"/>
    </contour>
    <contour>
      <point x="439" y="614" type="curve"/>
      <point x="541" y="614"/>
      <point x="642" y="614"/>
      <point x="744" y="614" type="curve"/>
      <point x="744" y="722"/>
      <point x="744" y="614"/>
      <point x="744" y="722" type="curve"/>
      <point x="642" y="722"/>
      <point x="541" y="722"/>
      <point x="439" y="722" type="curve"/>
      <point x="439" y="614"/>
      <point x="439" y="722"/>
    </contour>
    <contour>
      <point x="518" y="0" type="curve"/>
      <point x="518" y="722" type="line"/>
      <point x="378" y="722"/>
      <point x="518" y="722"/>
      <point x="378" y="722" type="curve"/>
      <point x="378" y="481"/>
      <point x="378" y="241"/>
      <point x="378" y="0" type="curve"/>
      <point x="518" y="0"/>
      <point x="378" y="0"/>
    </contour>
    <contour>
      <point x="439" y="0" type="curve"/>
      <point x="549" y="0"/>
      <point x="659" y="0"/>
      <point x="769" y="0" type="curve"/>
      <point x="769" y="108"/>
      <point x="769" y="0"/>
      <point x="769" y="108" type="curve"/>
      <point x="659" y="108"/>
      <point x="549" y="108"/>
      <point x="439" y="108" type="curve"/>
      <point x="439" y="0"/>
      <point x="439" y="108"/>
    </contour>
  </outline>
</glyph>
<glyph name="Ccedilla" format="1">
  <advance width="560"/>
  <unicode hex="00C7"/>
  <outline>
    <contour>
      <point x="541" y="654" type="curve"/>
      <point x="484" y="697"/>
      <point x="414" y="727"/>
      <point x="334" y="727" type="curve"/>
      <point x="132" y="727"/>
      <point x="37" y="571"/>
      <point x="37" y="345" type="curve"/>
      <point x="37" y="138"/>
      <point x="129" y="-5"/>
      <point x="320" y="-5" type="curve"/>
      <point x="423" y="-5"/>
      <point x="493" y="29"/>
      <point x="553" y="99" type="curve"/>
      <point x="472" y="180"/>
      <point x="553" y="99"/>
      <point x="472" y="180" type="curve"/>
      <point x="428" y="136"/>
      <point x="389" y="108"/>
      <point x="327" y="108" type="curve"/>
      <point x="209" y="108"/>
      <point x="177" y="215"/>
      <point x="177" y="350" type="curve"/>
      <point x="177" y="497"/>
      <point x="207" y="614"/>
      <point x="329" y="614" type="curve"/>
      <point x="382" y="614"/>
      <point x="428" y="596"/>
      <point x="465" y="567" type="curve"/>
      <point x="541" y="654"/>
      <point x="465" y="567"/>
    </contour>
    <contour>
      <point x="262" y="81" type="curve"/>
      <point x="252" y="59"/>
      <point x="213" y="-35"/>
      <point x="203" y="-57" type="curve"/>
      <point x="299" y="-144"/>
      <point x="203" y="-57"/>
      <point x="299" y="-144" type="curve"/>
      <point x="311" y="-118"/>
      <point x="358" y="-21"/>
      <point x="370" y="5" type="curve"/>
      <point x="262" y="81"/>
      <point x="370" y="5"/>
    </contour>
    <contour>
      <point x="299" y="-144" type="curve"/>
      <point x="304" y="-140"/>
      <point x="308" y="-136"/>
      <point x="314" y="-136" type="curve"/>
      <point x="322" y="-136"/>
      <point x="327" y="-139"/>
      <point x="327" y="-149" type="curve"/>
      <point x="327" y="-162"/>
      <point x="314" y="-166"/>
      <point x="299" y="-166" type="curve"/>
      <point x="280" y="-166"/>
      <point x="266" y="-162"/>
      <point x="250" y="-152" type="curve"/>
      <point x="196" y="-231"/>
      <point x="250" y="-152"/>
      <point x="196" y="-231" type="curve"/>
      <point x="226" y="-251"/>
      <point x="255" y="-259"/>
      <point x="292" y="-259" type="curve"/>
      <point x="362" y="-259"/>
      <point x="411" y="-220"/>
      <point x="411" y="-147" type="curve"/>
      <point x="411" y="-77"/>
      <point x="367" y="-33"/>
      <point x="299" y="-33" type="curve"/>
      <point x="262" y="-33"/>
      <point x="235" y="-38"/>
      <point x="203" y="-57" type="curve"/>
      <point x="299" y="-144"/>
      <point x="203" y="-57"/>
    </contour>
  </outline>
</glyph>
<glyph name="Egrave" format="1">
  <advance width="496"/>
  <unicode hex="00C8"/>
  <outline>
    <contour>
      <point x="156" y="318" type="curve"/>
      <point x="237" y="318"/>
      <point x="320" y="318"/>
      <point x="401" y="318" type="curve"/>
      <point x="401" y="427"/>
      <point x="401" y="318"/>
      <point x="401" y="427" type="curve"/>
      <point x="320" y="427"/>
      <point x="237" y="427"/>
      <point x="156" y="427" type="curve"/>
      <point x="156" y="318"/>
      <point x="156" y="427"/>
    </contour>
    <contour>
      <point x="144" y="614" type="curve"/>
      <point x="246" y="614"/>
      <point x="347" y="614"/>
      <point x="448" y="614" type="curve"/>
      <point x="448" y="722"/>
      <point x="448" y="614"/>
      <point x="448" y="722" type="curve"/>
      <point x="347" y="722"/>
      <point x="246" y="722"/>
      <point x="144" y="722" type="curve"/>
      <point x="144" y="614"/>
      <point x="144" y="722"/>
    </contour>
    <contour>
      <point x="223" y="0" type="curve"/>
      <point x="223" y="722" type="line"/>
      <point x="82" y="722"/>
      <point x="223" y="722"/>
      <point x="82" y="722" type="curve"/>
      <point x="82" y="481"/>
      <point x="82" y="241"/>
      <point x="82" y="0" type="curve"/>
      <point x="223" y="0"/>
      <point x="82" y="0"/>
    </contour>
    <contour>
      <point x="144" y="0" type="curve"/>
      <point x="254" y="0"/>
      <point x="363" y="0"/>
      <point x="473" y="0" type="curve"/>
      <point x="473" y="108"/>
      <point x="473" y="0"/>
      <point x="473" y="108" type="curve"/>
      <point x="363" y="108"/>
      <point x="254" y="108"/>
      <point x="144" y="108" type="curve"/>
      <point x="144" y="0"/>
      <point x="144" y="108"/>
    </contour>
    <contour>
      <point x="322" y="782" type="line"/>
      <point x="238" y="948" type="line"/>
      <point x="66" y="948" type="line"/>
      <point x="189" y="782" type="line"/>
    </contour>
  </outline>
</glyph>
<glyph name="Eacute" format="1">
  <advance width="480"/>
  <unicode hex="00C9"/>
  <outline>
    <contour>
      <point x="139" y="318" type="curve"/>
      <point x="220" y="318"/>
      <point x="303" y="318"/>
      <point x="385" y="318" type="curve"/>
      <point x="385" y="427"/>
      <point x="385" y="318"/>
      <point x="385" y="427" type="curve"/>
      <point x="303" y="427"/>
      <point x="220" y="427"/>
      <point x="139" y="427" type="curve"/>
      <point x="139" y="318"/>
      <point x="139" y="427"/>
    </contour>
    <contour>
      <point x="127" y="614" type="curve"/>
      <point x="229" y="614"/>
      <point x="330" y="614"/>
      <point x="432" y="614" type="curve"/>
      <point x="432" y="722"/>
      <point x="432" y="614"/>
      <point x="432" y="722" type="curve"/>
      <point x="330" y="722"/>
      <point x="229" y="722"/>
      <point x="127" y="722" type="curve"/>
      <point x="127" y="614"/>
      <point x="127" y="722"/>
    </contour>
    <contour>
      <point x="206" y="0" type="curve"/>
      <point x="206" y="722" type="line"/>
      <point x="65" y="722"/>
      <point x="206" y="722"/>
      <point x="65" y="722" type="curve"/>
      <point x="65" y="481"/>
      <point x="65" y="241"/>
      <point x="65" y="0" type="curve"/>
      <point x="206" y="0"/>
      <point x="65" y="0"/>
    </contour>
    <contour>
      <point x="127" y="0" type="curve"/>
      <point x="237" y="0"/>
      <point x="347" y="0"/>
      <point x="457" y="0" type="curve"/>
      <point x="457" y="108"/>
      <point x="457" y="0"/>
      <point x="457" y="108" type="curve"/>
      <point x="347" y="108"/>
      <point x="237" y="108"/>
      <point x="127" y="108" type="curve"/>
      <point x="127" y="0"/>
      <point x="127" y="108"/>
    </contour>
    <contour>
      <point x="301" y="780" type="line"/>
      <point x="424" y="946" type="line"/>
      <point x="252" y="946" type="line"/>
      <point x="168" y="780" type="line"/>
    </contour>
  </outline>
</glyph>
<glyph name="Ecircumflex" format="1">
  <advance width="452"/>
  <unicode hex="00CA"/>
  <outline>
    <contour>
      <point x="125" y="318" type="curve"/>
      <point x="206" y="318"/>
      <point x="289" y="318"/>
      <point x="371" y="318" type="curve"/>
      <point x="371" y="427"/>
      <point x="371" y="318"/>
      <point x="371" y="427" type="curve"/>
      <point x="289" y="427"/>
      <point x="206" y="427"/>
      <point x="125" y="427" type="curve"/>
      <point x="125" y="318"/>
      <point x="125" y="427"/>
    </contour>
    <contour>
      <point x="113" y="614" type="curve"/>
      <point x="215" y="614"/>
      <point x="316" y="614"/>
      <point x="418" y="614" type="curve"/>
      <point x="418" y="722"/>
      <point x="418" y="614"/>
      <point x="418" y="722" type="curve"/>
      <point x="316" y="722"/>
      <point x="215" y="722"/>
      <point x="113" y="722" type="curve"/>
      <point x="113" y="614"/>
      <point x="113" y="722"/>
    </contour>
    <contour>
      <point x="192" y="0" type="curve"/>
      <point x="192" y="722" type="line"/>
      <point x="52" y="722"/>
      <point x="192" y="722"/>
      <point x="52" y="722" type="curve"/>
      <point x="52" y="481"/>
      <point x="52" y="241"/>
      <point x="52" y="0" type="curve"/>
      <point x="192" y="0"/>
      <point x="52" y="0"/>
    </contour>
    <contour>
      <point x="113" y="0" type="curve"/>
      <point x="223" y="0"/>
      <point x="333" y="0"/>
      <point x="443" y="0" type="curve"/>
      <point x="443" y="108"/>
      <point x="443" y="0"/>
      <point x="443" y="108" type="curve"/>
      <point x="333" y="108"/>
      <point x="223" y="108"/>
      <point x="113" y="108" type="curve"/>
      <point x="113" y="0"/>
      <point x="113" y="108"/>
    </contour>
    <contour>
      <point x="160" y="781" type="line"/>
      <point x="283" y="947" type="line"/>
      <point x="111" y="947" type="line"/>
      <point x="28" y="781" type="line"/>
    </contour>
    <contour>
      <point x="421" y="781" type="line"/>
      <point x="337" y="947" type="line"/>
      <point x="165" y="947" type="line"/>
      <point x="288" y="781" type="line"/>
    </contour>
  </outline>
</glyph>
<glyph name="Edieresis" format="1">
  <advance width="477"/>
  <unicode hex="00CB"/>
  <outline>
    <contour>
      <point x="137" y="318" type="curve"/>
      <point x="218" y="318"/>
      <point x="301" y="318"/>
      <point x="383" y="318" type="curve"/>
      <point x="383" y="427"/>
      <point x="383" y="318"/>
      <point x="383" y="427" type="curve"/>
      <point x="301" y="427"/>
      <point x="218" y="427"/>
      <point x="137" y="427" type="curve"/>
      <point x="137" y="318"/>
      <point x="137" y="427"/>
    </contour>
    <contour>
      <point x="125" y="614" type="curve"/>
      <point x="227" y="614"/>
      <point x="328" y="614"/>
      <point x="429" y="614" type="curve"/>
      <point x="429" y="722"/>
      <point x="429" y="614"/>
      <point x="429" y="722" type="curve"/>
      <point x="328" y="722"/>
      <point x="227" y="722"/>
      <point x="125" y="722" type="curve"/>
      <point x="125" y="614"/>
      <point x="125" y="722"/>
    </contour>
    <contour>
      <point x="204" y="0" type="curve"/>
      <point x="204" y="722" type="line"/>
      <point x="63" y="722"/>
      <point x="204" y="722"/>
      <point x="63" y="722" type="curve"/>
      <point x="63" y="481"/>
      <point x="63" y="241"/>
      <point x="63" y="0" type="curve"/>
      <point x="204" y="0"/>
      <point x="63" y="0"/>
    </contour>
    <contour>
      <point x="125" y="0" type="curve"/>
      <point x="235" y="0"/>
      <point x="345" y="0"/>
      <point x="454" y="0" type="curve"/>
      <point x="454" y="108"/>
      <point x="454" y="0"/>
      <point x="454" y="108" type="curve"/>
      <point x="345" y="108"/>
      <point x="235" y="108"/>
      <point x="125" y="108" type="curve"/>
      <point x="125" y="0"/>
      <point x="125" y="108"/>
    </contour>
    <contour>
      <point x="211" y="845" type="curve"/>
      <point x="211" y="892"/>
      <point x="179" y="916"/>
      <point x="137" y="916" type="curve"/>
      <point x="94" y="916"/>
      <point x="65" y="890"/>
      <point x="65" y="845" type="curve"/>
      <point x="211" y="845"/>
      <point x="65" y="845"/>
      <point x="211" y="845" type="curve"/>
      <point x="211" y="797"/>
      <point x="180" y="775"/>
      <point x="137" y="775" type="curve"/>
      <point x="93" y="775"/>
      <point x="65" y="799"/>
      <point x="65" y="845" type="curve"/>
      <point x="211" y="845"/>
      <point x="65" y="845"/>
    </contour>
    <contour>
      <point x="408" y="845" type="curve"/>
      <point x="408" y="892"/>
      <point x="377" y="916"/>
      <point x="335" y="916" type="curve"/>
      <point x="291" y="916"/>
      <point x="263" y="890"/>
      <point x="263" y="845" type="curve"/>
      <point x="408" y="845"/>
      <point x="263" y="845"/>
      <point x="408" y="845" type="curve"/>
      <point x="408" y="797"/>
      <point x="378" y="775"/>
      <point x="335" y="775" type="curve"/>
      <point x="290" y="775"/>
      <point x="263" y="799"/>
      <point x="263" y="845" type="curve"/>
      <point x="408" y="845"/>
      <point x="263" y="845"/>
    </contour>
  </outline>
</glyph>
<glyph name="Igrave" format="1">
  <advance width="282"/>
  <unicode hex="00CC"/>
  <outline>
    <contour>
      <point x="216" y="0" type="curve"/>
      <point x="216" y="241"/>
      <point x="216" y="481"/>
      <point x="216" y="722" type="curve"/>
      <point x="75" y="722"/>
      <point x="216" y="722"/>
      <point x="75" y="722" type="curve"/>
      <point x="75" y="481"/>
      <point x="75" y="241"/>
      <point x="75" y="0" type="curve"/>
      <point x="216" y="0"/>
      <point x="75" y="0"/>
    </contour>
    <contour>
      <point x="215" y="782" type="line"/>
      <point x="131" y="948" type="line"/>
      <point x="-41" y="948" type="line"/>
      <point x="82" y="782" type="line"/>
    </contour>
  </outline>
</glyph>
<glyph name="Iacute" format="1">
  <advance width="275"/>
  <unicode hex="00CD"/>
  <outline>
    <contour>
      <point x="206" y="0" type="curve"/>
      <point x="206" y="241"/>
      <point x="206" y="481"/>
      <point x="206" y="722" type="curve"/>
      <point x="65" y="722"/>
      <point x="206" y="722"/>
      <point x="65" y="722" type="curve"/>
      <point x="65" y="481"/>
      <point x="65" y="241"/>
      <point x="65" y="0" type="curve"/>
      <point x="206" y="0"/>
      <point x="65" y="0"/>
    </contour>
    <contour>
      <point x="201" y="780" type="line"/>
      <point x="324" y="946" type="line"/>
      <point x="152" y="946" type="line"/>
      <point x="68" y="780" type="line"/>
    </contour>
  </outline>
</glyph>
<glyph name="Icircumflex" format="1">
  <advance width="319"/>
  <unicode hex="00CE"/>
  <outline>
    <contour>
      <point x="231" y="0" type="curve"/>
      <point x="231" y="241"/>
      <point x="231" y="481"/>
      <point x="231" y="722" type="curve"/>
      <point x="91" y="722"/>
      <point x="231" y="722"/>
      <point x="91" y="722" type="curve"/>
      <point x="91" y="481"/>
      <point x="91" y="241"/>
      <point x="91" y="0" type="curve"/>
      <point x="231" y="0"/>
      <point x="91" y="0"/>
    </contour>
    <contour>
      <point x="99" y="781" type="line"/>
      <point x="222" y="947" type="line"/>
      <point x="50" y="947" type="line"/>
      <point x="-33" y="781" type="line"/>
    </contour>
    <contour>
      <point x="360" y="781" type="line"/>
      <point x="277" y="947" type="line"/>
      <point x="104" y="947" type="line"/>
      <point x="227" y="781" type="line"/>
    </contour>
  </outline>
</glyph>
<glyph name="Idieresis" format="1">
  <advance width="282"/>
  <unicode hex="00CF"/>
  <outline>
    <contour>
      <point x="214" y="0" type="curve"/>
      <point x="214" y="241"/>
      <point x="214" y="481"/>
      <point x="214" y="722" type="curve"/>
      <point x="73" y="722"/>
      <point x="214" y="722"/>
      <point x="73" y="722" type="curve"/>
      <point x="73" y="481"/>
      <point x="73" y="241"/>
      <point x="73" y="0" type="curve"/>
      <point x="214" y="0"/>
      <point x="73" y="0"/>
    </contour>
    <contour>
      <point x="121" y="845" type="curve"/>
      <point x="121" y="892"/>
      <point x="90" y="916"/>
      <point x="47" y="916" type="curve"/>
      <point x="4" y="916"/>
      <point x="-25" y="890"/>
      <point x="-25" y="845" type="curve"/>
      <point x="121" y="845"/>
      <point x="-25" y="845"/>
      <point x="121" y="845" type="curve"/>
      <point x="121" y="797"/>
      <point x="91" y="775"/>
      <point x="47" y="775" type="curve"/>
      <point x="3" y="775"/>
      <point x="-25" y="799"/>
      <point x="-25" y="845" type="curve"/>
      <point x="121" y="845"/>
      <point x="-25" y="845"/>
    </contour>
    <contour>
      <point x="319" y="845" type="curve"/>
      <point x="319" y="892"/>
      <point x="287" y="916"/>
      <point x="245" y="916" type="curve"/>
      <point x="202" y="916"/>
      <point x="173" y="890"/>
      <point x="173" y="845" type="curve"/>
      <point x="319" y="845"/>
      <point x="173" y="845"/>
      <point x="319" y="845" type="curve"/>
      <point x="319" y="797"/>
      <point x="288" y="775"/>
      <point x="245" y="775" type="curve"/>
      <point x="201" y="775"/>
      <point x="173" y="799"/>
      <point x="173" y="845" type="curve"/>
      <point x="319" y="845"/>
      <point x="173" y="845"/>
    </contour>
  </outline>
</glyph>
<glyph name="Ntilde" format="1">
  <advance width="676"/>
  <unicode hex="00D1"/>
  <outline>
    <contour>
      <point x="611" y="0" type="curve"/>
      <point x="478" y="241"/>
      <point x="344" y="481"/>
      <point x="211" y="722" type="curve"/>
      <point x="65" y="722"/>
      <point x="211" y="722"/>
      <point x="65" y="722" type="curve"/>
      <point x="198" y="481"/>
      <point x="332" y="241"/>
      <point x="466" y="0" type="curve"/>
      <point x="611" y="0"/>
      <point x="466" y="0"/>
    </contour>
    <contour>
      <point x="470" y="722" type="curve"/>
      <point x="470" y="481"/>
      <point x="470" y="241"/>
      <point x="470" y="0" type="curve"/>
      <point x="610" y="0"/>
      <point x="470" y="0"/>
      <point x="610" y="0" type="curve"/>
      <point x="610" y="241"/>
      <point x="610" y="481"/>
      <point x="610" y="722" type="curve"/>
      <point x="470" y="722"/>
      <point x="610" y="722"/>
    </contour>
    <contour>
      <point x="206" y="0" type="curve"/>
      <point x="206" y="241"/>
      <point x="206" y="481"/>
      <point x="206" y="722" type="curve"/>
      <point x="65" y="722"/>
      <point x="206" y="722"/>
      <point x="65" y="722" type="curve"/>
      <point x="65" y="481"/>
      <point x="65" y="241"/>
      <point x="65" y="0" type="curve"/>
      <point x="206" y="0"/>
      <point x="65" y="0"/>
    </contour>
    <contour>
      <point x="434" y="972" type="curve"/>
      <point x="418" y="936"/>
      <point x="405" y="929"/>
      <point x="390" y="929" type="curve"/>
      <point x="365" y="929"/>
      <point x="353" y="936"/>
      <point x="335" y="950" type="curve"/>
      <point x="309" y="970"/>
      <point x="296" y="978"/>
      <point x="267" y="978" type="curve"/>
      <point x="198" y="978"/>
      <point x="163" y="910"/>
      <point x="142" y="846" type="curve"/>
      <point x="246" y="786"/>
      <point x="142" y="847"/>
      <point x="246" y="786" type="curve"/>
      <point x="265" y="826"/>
      <point x="281" y="833"/>
      <point x="300" y="833" type="curve"/>
      <point x="320" y="833"/>
      <point x="330" y="827"/>
      <point x="344" y="814" type="curve"/>
      <point x="374" y="790"/>
      <point x="390" y="779"/>
      <point x="425" y="779" type="curve"/>
      <point x="493" y="779"/>
      <point x="519" y="844"/>
      <point x="546" y="914" type="curve"/>
      <point x="434" y="972"/>
      <point x="546" y="913"/>
    </contour>
  </outline>
</glyph>
<glyph name="Oacute" format="1">
  <advance width="646"/>
  <unicode hex="00D3"/>
  <outline>
    <contour>
      <point x="177" y="360" type="curve" name="FullCurve"/>
      <point x="177" y="496"/>
      <point x="199" y="614"/>
      <point x="320" y="614" type="curve" name="FullCurve"/>
      <point x="436" y="614"/>
      <point x="469" y="499"/>
      <point x="469" y="363" type="curve" name="FullCurve"/>
      <point x="469" y="226"/>
      <point x="445" y="109"/>
      <point x="325" y="109" type="curve" name="FullCurve"/>
      <point x="207" y="109"/>
      <point x="177" y="223"/>
      <point x="177" y="360" type="curve" name="FullCurve"/>
      <point x="36" y="360"/>
      <point x="177" y="360"/>
      <point x="36" y="360" type="curve" name="FullCurve"/>
      <point x="36" y="151"/>
      <point x="128" y="-5"/>
      <point x="320" y="-5" type="curve" name="FullCurve"/>
      <point x="515" y="-5"/>
      <point x="610" y="152"/>
      <point x="610" y="363" type="curve" name="FullCurve"/>
      <point x="610" y="570"/>
      <point x="519" y="727"/>
      <point x="326" y="727" type="curve" name="FullCurve"/>
      <point x="132" y="727"/>
      <point x="36" y="570"/>
      <point x="36" y="360" type="curve" name="FullCurve"/>
      <point x="177" y="360"/>
      <point x="36" y="360"/>
    </contour>
    <contour>
      <point x="387" y="780" type="line"/>
      <point x="510" y="946" type="line"/>
      <point x="338" y="946" type="line"/>
      <point x="254" y="780" type="line"/>
    </contour>
  </outline>
</glyph>
<glyph name="Otilde" format="1">
  <advance width="646"/>
  <unicode hex="00D5"/>
  <outline>
    <contour>
      <point x="177" y="360" type="curve" name="FullCurve"/>
      <point x="177" y="496"/>
      <point x="199" y="614"/>
      <point x="320" y="614" type="curve" name="FullCurve"/>
      <point x="436" y="614"/>
      <point x="469" y="499"/>
      <point x="469" y="363" type="curve" name="FullCurve"/>
      <point x="469" y="226"/>
      <point x="445" y="109"/>
      <point x="325" y="109" type="curve" name="FullCurve"/>
      <point x="207" y="109"/>
      <point x="177" y="223"/>
      <point x="177" y="360" type="curve" name="FullCurve"/>
      <point x="36" y="360"/>
      <point x="177" y="360"/>
      <point x="36" y="360" type="curve" name="FullCurve"/>
      <point x="36" y="151"/>
      <point x="128" y="-5"/>
      <point x="320" y="-5" type="curve" name="FullCurve"/>
      <point x="515" y="-5"/>
      <point x="610" y="152"/>
      <point x="610" y="363" type="curve" name="FullCurve"/>
      <point x="610" y="570"/>
      <point x="519" y="727"/>
      <point x="326" y="727" type="curve" name="FullCurve"/>
      <point x="132" y="727"/>
      <point x="36" y="570"/>
      <point x="36" y="360" type="curve" name="FullCurve"/>
      <point x="177" y="360"/>
      <point x="36" y="360"/>
    </contour>
    <contour>
      <point x="420" y="972" type="curve"/>
      <point x="404" y="936"/>
      <point x="391" y="929"/>
      <point x="376" y="929" type="curve"/>
      <point x="351" y="929"/>
      <point x="339" y="936"/>
      <point x="321" y="950" type="curve"/>
      <point x="295" y="970"/>
      <point x="282" y="978"/>
      <point x="253" y="978" type="curve"/>
      <point x="184" y="978"/>
      <point x="149" y="910"/>
      <point x="128" y="846" type="curve"/>
      <point x="232" y="786"/>
      <point x="128" y="847"/>
      <point x="232" y="786" type="curve"/>
      <point x="251" y="826"/>
      <point x="267" y="833"/>
      <point x="286" y="833" type="curve"/>
      <point x="306" y="833"/>
      <point x="316" y="827"/>
      <point x="330" y="814" type="curve"/>
      <point x="359" y="790"/>
      <point x="376" y="779"/>
      <point x="411" y="779" type="curve"/>
      <point x="479" y="779"/>
      <point x="505" y="844"/>
      <point x="532" y="914" type="curve"/>
      <point x="420" y="972"/>
      <point x="532" y="913"/>
    </contour>
  </outline>
</glyph>
<glyph name="Odieresis" format="1">
  <advance width="646"/>
  <unicode hex="00D6"/>
  <outline>
    <contour>
      <point x="177" y="360" type="curve" name="FullCurve"/>
      <point x="177" y="496"/>
      <point x="199" y="614"/>
      <point x="320" y="614" type="curve" name="FullCurve"/>
      <point x="436" y="614"/>
      <point x="469" y="499"/>
      <point x="469" y="363" type="curve" name="FullCurve"/>
      <point x="469" y="226"/>
      <point x="445" y="109"/>
      <point x="325" y="109" type="curve" name="FullCurve"/>
      <point x="207" y="109"/>
      <point x="177" y="223"/>
      <point x="177" y="360" type="curve" name="FullCurve"/>
      <point x="36" y="360"/>
      <point x="177" y="360"/>
      <point x="36" y="360" type="curve" name="FullCurve"/>
      <point x="36" y="151"/>
      <point x="128" y="-5"/>
      <point x="320" y="-5" type="curve" name="FullCurve"/>
      <point x="515" y="-5"/>
      <point x="610" y="152"/>
      <point x="610" y="363" type="curve" name="FullCurve"/>
      <point x="610" y="570"/>
      <point x="519" y="727"/>
      <point x="326" y="727" type="curve" name="FullCurve"/>
      <point x="132" y="727"/>
      <point x="36" y="570"/>
      <point x="36" y="360" type="curve" name="FullCurve"/>
      <point x="177" y="360"/>
      <point x="36" y="360"/>
    </contour>
    <contour>
      <point x="299" y="845" type="curve"/>
      <point x="299" y="892"/>
      <point x="267" y="916"/>
      <point x="225" y="916" type="curve"/>
      <point x="182" y="916"/>
      <point x="153" y="890"/>
      <point x="153" y="845" type="curve"/>
      <point x="299" y="845"/>
      <point x="153" y="845"/>
      <point x="299" y="845" type="curve"/>
      <point x="299" y="797"/>
      <point x="268" y="775"/>
      <point x="225" y="775" type="curve"/>
      <point x="181" y="775"/>
      <point x="153" y="799"/>
      <point x="153" y="845" type="curve"/>
      <point x="299" y="845"/>
      <point x="153" y="845"/>
    </contour>
    <contour>
      <point x="497" y="845" type="curve"/>
      <point x="497" y="892"/>
      <point x="465" y="916"/>
      <point x="423" y="916" type="curve"/>
      <point x="379" y="916"/>
      <point x="351" y="890"/>
      <point x="351" y="845" type="curve"/>
      <point x="497" y="845"/>
      <point x="351" y="845"/>
      <point x="497" y="845" type="curve"/>
      <point x="497" y="797"/>
      <point x="466" y="775"/>
      <point x="423" y="775" type="curve"/>
      <point x="378" y="775"/>
      <point x="351" y="799"/>
      <point x="351" y="845" type="curve"/>
      <point x="497" y="845"/>
      <point x="351" y="845"/>
    </contour>
  </outline>
</glyph>
<glyph name="multiply" format="1">
  <advance width="590"/>
  <unicode hex="00D7"/>
  <outline>
    <contour>
      <point x="117" y="44" type="line"/>
      <point x="552" y="498" type="line"/>
      <point x="473" y="578" type="line"/>
      <point x="38" y="123" type="line"/>
    </contour>
    <contour>
      <point x="552" y="121" type="line"/>
      <point x="117" y="575" type="line"/>
      <point x="38" y="496" type="line"/>
      <point x="473" y="41" type="line"/>
    </contour>
  </outline>
</glyph>
<glyph name="Ugrave" format="1">
  <advance width="622"/>
  <unicode hex="00D9"/>
  <outline>
    <contour>
      <point x="59" y="722" type="curve"/>
      <point x="59" y="588"/>
      <point x="58" y="407"/>
      <point x="59" y="273" type="curve"/>
      <point x="59" y="94"/>
      <point x="135" y="-5"/>
      <point x="307" y="-5" type="curve"/>
      <point x="484" y="-5"/>
      <point x="563" y="99"/>
      <point x="563" y="285" type="curve"/>
      <point x="563" y="415"/>
      <point x="563" y="592"/>
      <point x="563" y="722" type="curve"/>
      <point x="435" y="722"/>
      <point x="563" y="722"/>
      <point x="435" y="722" type="curve"/>
      <point x="435" y="585"/>
      <point x="435" y="407"/>
      <point x="435" y="270" type="curve"/>
      <point x="435" y="178"/>
      <point x="401" y="115"/>
      <point x="317" y="115" type="curve"/>
      <point x="216" y="115"/>
      <point x="187" y="185"/>
      <point x="187" y="295" type="curve"/>
      <point x="187" y="422"/>
      <point x="187" y="596"/>
      <point x="187" y="722" type="curve"/>
      <point x="59" y="722"/>
      <point x="187" y="722"/>
    </contour>
    <contour>
      <point x="381" y="782" type="line"/>
      <point x="297" y="948" type="line"/>
      <point x="125" y="948" type="line"/>
      <point x="248" y="782" type="line"/>
    </contour>
  </outline>
</glyph>
<glyph name="Uacute" format="1">
  <advance width="622"/>
  <unicode hex="00DA"/>
  <outline>
    <contour>
      <point x="59" y="722" type="curve"/>
      <point x="59" y="588"/>
      <point x="58" y="407"/>
      <point x="59" y="273" type="curve"/>
      <point x="59" y="94"/>
      <point x="135" y="-5"/>
      <point x="307" y="-5" type="curve"/>
      <point x="484" y="-5"/>
      <point x="563" y="99"/>
      <point x="563" y="285" type="curve"/>
      <point x="563" y="415"/>
      <point x="563" y="592"/>
      <point x="563" y="722" type="curve"/>
      <point x="435" y="722"/>
      <point x="563" y="722"/>
      <point x="435" y="722" type="curve"/>
      <point x="435" y="585"/>
      <point x="435" y="407"/>
      <point x="435" y="270" type="curve"/>
      <point x="435" y="178"/>
      <point x="401" y="115"/>
      <point x="317" y="115" type="curve"/>
      <point x="216" y="115"/>
      <point x="187" y="185"/>
      <point x="187" y="295" type="curve"/>
      <point x="187" y="422"/>
      <point x="187" y="596"/>
      <point x="187" y="722" type="curve"/>
      <point x="59" y="722"/>
      <point x="187" y="722"/>
    </contour>
    <contour>
      <point x="377" y="780" type="line"/>
      <point x="500" y="946" type="line"/>
      <point x="328" y="946" type="line"/>
      <point x="244" y="780" type="line"/>
    </contour>
  </outline>
</glyph>
